<?xml version="1.0" encoding="UTF-8" standalone="no"?>
<!DOCTYPE svg PUBLIC "-//W3C//DTD SVG 1.1//EN"
 "http://www.w3.org/Graphics/SVG/1.1/DTD/svg11.dtd">
<!-- Generated by graphviz version 2.43.0 (0)
 -->
<!-- Title: classes_superconf Pages: 1 -->
<svg width="964pt" height="616pt"
 viewBox="0.00 0.00 964.00 615.80" xmlns="http://www.w3.org/2000/svg" xmlns:xlink="http://www.w3.org/1999/xlink">
<g id="graph0" class="graph" transform="scale(1 1) rotate(0) translate(4 611.8)">
<title>classes_superconf</title>
<polygon fill="white" stroke="transparent" points="-4,4 -4,-611.8 960,-611.8 960,4 -4,4"/>
<!-- superconf.configuration.Configuration -->
<g id="node1" class="node">
<title>superconf.configuration.Configuration</title>
<polygon fill="none" stroke="black" points="15,-1.4 15,-70.4 302,-70.4 302,-1.4 15,-1.4"/>
<text text-anchor="start" x="23" y="-55.2" font-family="Times,serif" font-size="14.00">superconf.configuration.Configuration</text>
<polyline fill="none" stroke="black" points="15,-47.4 302,-47.4 "/>
<text text-anchor="start" x="70.5" y="-32.2" font-family="Times,serif" font-size="14.00">meta__extra_fields : bool</text>
<polyline fill="none" stroke="black" points="15,-24.4 302,-24.4 "/>
<text text-anchor="start" x="156" y="-9.2" font-family="Times,serif" font-size="14.00"> </text>
</g>
<!-- superconf.configuration.ConfigurationDict -->
<g id="node2" class="node">
<title>superconf.configuration.ConfigurationDict</title>
<polygon fill="none" stroke="black" points="0,-115.8 0,-229.8 317,-229.8 317,-115.8 0,-115.8"/>
<text text-anchor="start" x="8" y="-214.6" font-family="Times,serif" font-size="14.00">superconf.configuration.ConfigurationDict</text>
<polyline fill="none" stroke="black" points="0,-206.8 317,-206.8 "/>
<text text-anchor="start" x="70.5" y="-191.6" font-family="Times,serif" font-size="14.00">meta__cache : bool</text>
<text text-anchor="start" x="70.5" y="-176.6" font-family="Times,serif" font-size="14.00">meta__extra_fields : bool</text>
<text text-anchor="start" x="70.5" y="-161.6" font-family="Times,serif" font-size="14.00">meta__loaders : list</text>
<text text-anchor="start" x="70.5" y="-146.6" font-family="Times,serif" font-size="14.00">meta__strict_cast : bool</text>
<polyline fill="none" stroke="black" points="0,-138.8 317,-138.8 "/>
<text text-anchor="start" x="74" y="-123.6" font-family="Times,serif" font-size="14.00">set_dyn_children(value)</text>
</g>
<!-- superconf.configuration.Configuration&#45;&gt;superconf.configuration.ConfigurationDict -->
<g id="edge1" class="edge">
<title>superconf.configuration.Configuration&#45;&gt;superconf.configuration.ConfigurationDict</title>
<path fill="none" stroke="black" d="M158.5,-70.59C158.5,-81.26 158.5,-93.45 158.5,-105.58"/>
<polygon fill="none" stroke="black" points="155,-105.73 158.5,-115.73 162,-105.73 155,-105.73"/>
</g>
<!-- superconf.configuration.Store -->
<g id="node7" class="node">
<title>superconf.configuration.Store</title>
<polygon fill="none" stroke="black" points="198.5,-274.3 198.5,-456.3 452.5,-456.3 452.5,-274.3 198.5,-274.3"/>
<text text-anchor="start" x="219" y="-441.1" font-family="Times,serif" font-size="14.00">superconf.configuration.Store</text>
<polyline fill="none" stroke="black" points="198.5,-433.3 452.5,-433.3 "/>
<text text-anchor="start" x="272" y="-418.1" font-family="Times,serif" font-size="14.00">cast</text>
<text text-anchor="start" x="272" y="-403.1" font-family="Times,serif" font-size="14.00">declared_fields</text>
<text text-anchor="start" x="272" y="-388.1" font-family="Times,serif" font-size="14.00">default</text>
<polyline fill="none" stroke="black" points="198.5,-380.3 452.5,-380.3 "/>
<text text-anchor="start" x="206.5" y="-366.1" font-family="Times,serif" font-size="14.00">create_child(key, field, value)</text>
<text text-anchor="start" x="206.5" y="-352.1" font-family="Times,serif" font-size="14.00">get_field_value(key, field, default)</text>
<text text-anchor="start" x="206.5" y="-338.1" font-family="Times,serif" font-size="14.00">get_value(key, lvl)</text>
<text text-anchor="start" x="206.5" y="-324.1" font-family="Times,serif" font-size="14.00">get_values(lvl)</text>
<text text-anchor="start" x="206.5" y="-310.1" font-family="Times,serif" font-size="14.00">reset()</text>
<text text-anchor="start" x="206.5" y="-296.1" font-family="Times,serif" font-style="italic" font-size="14.00">set_dyn_children</text>
<text text-anchor="start" x="327.5" y="-296.1" font-family="Times,serif" font-size="14.00">(value)</text>
<text text-anchor="start" x="206.5" y="-282.1" font-family="Times,serif" font-size="14.00">set_values(value, lookup)</text>
</g>
<!-- superconf.configuration.ConfigurationDict&#45;&gt;superconf.configuration.Store -->
<g id="edge2" class="edge">
<title>superconf.configuration.ConfigurationDict&#45;&gt;superconf.configuration.Store</title>
<path fill="none" stroke="black" d="M207.7,-229.93C217.82,-241.47 228.75,-253.94 239.74,-266.47"/>
<polygon fill="none" stroke="black" points="237.35,-269.06 246.58,-274.27 242.62,-264.44 237.35,-269.06"/>
</g>
<!-- superconf.configuration.ConfigurationList -->
<g id="node3" class="node">
<title>superconf.configuration.ConfigurationList</title>
<polygon fill="none" stroke="black" points="335.5,-108.3 335.5,-237.3 649.5,-237.3 649.5,-108.3 335.5,-108.3"/>
<text text-anchor="start" x="343.5" y="-222.1" font-family="Times,serif" font-size="14.00">superconf.configuration.ConfigurationList</text>
<polyline fill="none" stroke="black" points="335.5,-214.3 649.5,-214.3 "/>
<text text-anchor="start" x="404.5" y="-199.1" font-family="Times,serif" font-size="14.00">meta__cache : bool</text>
<text text-anchor="start" x="404.5" y="-184.1" font-family="Times,serif" font-size="14.00">meta__extra_fields : bool</text>
<text text-anchor="start" x="404.5" y="-169.1" font-family="Times,serif" font-size="14.00">meta__loaders : list</text>
<text text-anchor="start" x="404.5" y="-154.1" font-family="Times,serif" font-size="14.00">meta__strict_cast : bool</text>
<polyline fill="none" stroke="black" points="335.5,-146.3 649.5,-146.3 "/>
<text text-anchor="start" x="408" y="-131.1" font-family="Times,serif" font-size="14.00">get_values(lvl)</text>
<text text-anchor="start" x="408" y="-116.1" font-family="Times,serif" font-size="14.00">set_dyn_children(value)</text>
</g>
<!-- superconf.configuration.ConfigurationList&#45;&gt;superconf.configuration.Store -->
<g id="edge3" class="edge">
<title>superconf.configuration.ConfigurationList&#45;&gt;superconf.configuration.Store</title>
<path fill="none" stroke="black" d="M436.66,-237.5C428.42,-246.89 419.78,-256.75 411.11,-266.64"/>
<polygon fill="none" stroke="black" points="408.44,-264.38 404.48,-274.21 413.7,-268.99 408.44,-264.38"/>
</g>
<!-- superconf.configuration.DeclarativeValuesMetaclass -->
<g id="node4" class="node">
<title>superconf.configuration.DeclarativeValuesMetaclass</title>
<polygon fill="none" stroke="black" points="320.5,-0.5 320.5,-71.3 710.5,-71.3 710.5,-0.5 320.5,-0.5"/>
<text text-anchor="start" x="328.5" y="-56.1" font-family="Times,serif" font-size="14.00">superconf.configuration.DeclarativeValuesMetaclass</text>
<polyline fill="none" stroke="black" points="320.5,-48.3 710.5,-48.3 "/>
<polyline fill="none" stroke="black" points="320.5,-23.5 710.5,-23.5 "/>
<text text-anchor="start" x="513" y="-8.3" font-family="Times,serif" font-size="14.00"> </text>
</g>
<!-- superconf.configuration.Node.Meta -->
<g id="node5" class="node">
<title>superconf.configuration.Node.Meta</title>
<polygon fill="none" stroke="black" points="729,-0.5 729,-71.3 956,-71.3 956,-0.5 729,-0.5"/>
<text text-anchor="start" x="737" y="-56.1" font-family="Times,serif" font-size="14.00">superconf.configuration.Meta</text>
<polyline fill="none" stroke="black" points="729,-48.3 956,-48.3 "/>
<polyline fill="none" stroke="black" points="729,-23.5 956,-23.5 "/>
<text text-anchor="start" x="840" y="-8.3" font-family="Times,serif" font-size="14.00"> </text>
</g>
<!-- superconf.configuration.Node -->
<g id="node6" class="node">
<title>superconf.configuration.Node</title>
<polygon fill="none" stroke="black" points="69,-493.3 69,-607.3 582,-607.3 582,-493.3 69,-493.3"/>
<text text-anchor="start" x="220" y="-592.1" font-family="Times,serif" font-size="14.00">superconf.configuration.Node</text>
<polyline fill="none" stroke="black" points="69,-584.3 582,-584.3 "/>
<text text-anchor="start" x="270" y="-569.1" font-family="Times,serif" font-size="14.00">key : NoneType</text>
<polyline fill="none" stroke="black" points="69,-561.3 582,-561.3 "/>
<text text-anchor="start" x="77" y="-546.1" font-family="Times,serif" font-size="14.00">get_hierarchy()</text>
<text text-anchor="start" x="77" y="-531.1" font-family="Times,serif" font-size="14.00">query_cfg(name, include_self, report)</text>
<text text-anchor="start" x="77" y="-516.1" font-family="Times,serif" font-size="14.00">query_inst_cfg()</text>
<text text-anchor="start" x="77" y="-501.1" font-family="Times,serif" font-size="14.00">query_parent_cfg(name, as_subkey, cast, default, include_self, report)</text>
</g>
<!-- superconf.configuration.Store&#45;&gt;superconf.configuration.Node -->
<g id="edge4" class="edge">
<title>superconf.configuration.Store&#45;&gt;superconf.configuration.Node</title>
<path fill="none" stroke="black" d="M325.5,-456.46C325.5,-465.47 325.5,-474.5 325.5,-483.2"/>
<polygon fill="none" stroke="black" points="322,-483.24 325.5,-493.24 329,-483.24 322,-483.24"/>
</g>
</g>
</svg>
