<?xml version="1.0" encoding="UTF-8" standalone="no"?>
<!DOCTYPE svg PUBLIC "-//W3C//DTD SVG 1.1//EN"
 "http://www.w3.org/Graphics/SVG/1.1/DTD/svg11.dtd">
<!-- Generated by graphviz version 2.43.0 (0)
 -->
<!-- Title: classes_superconf Pages: 1 -->
<svg width="1992pt" height="244pt"
 viewBox="0.00 0.00 1992.00 244.00" xmlns="http://www.w3.org/2000/svg" xmlns:xlink="http://www.w3.org/1999/xlink">
<g id="graph0" class="graph" transform="scale(1 1) rotate(0) translate(4 240)">
<title>classes_superconf</title>
<polygon fill="white" stroke="transparent" points="-4,4 -4,-240 1988,-240 1988,4 -4,4"/>
<!-- superconf.fields.Field -->
<g id="node1" class="node">
<title>superconf.fields.Field</title>
<polygon fill="none" stroke="black" points="735,-106.5 735,-235.5 1218,-235.5 1218,-106.5 735,-106.5"/>
<text text-anchor="start" x="899.5" y="-220.3" font-family="Times,serif" font-size="14.00">superconf.fields.Field</text>
<polyline fill="none" stroke="black" points="735,-212.5 1218,-212.5 "/>
<text text-anchor="start" x="911.5" y="-197.3" font-family="Times,serif" font-size="14.00">cast : NoneType</text>
<text text-anchor="start" x="911.5" y="-182.3" font-family="Times,serif" font-size="14.00">default : NotSet</text>
<text text-anchor="start" x="911.5" y="-167.3" font-family="Times,serif" font-size="14.00">help : str</text>
<text text-anchor="start" x="911.5" y="-152.3" font-family="Times,serif" font-size="14.00">key : Optional[str]</text>
<polyline fill="none" stroke="black" points="735,-144.5 1218,-144.5 "/>
<text text-anchor="start" x="743" y="-129.3" font-family="Times,serif" font-size="14.00">is_container()</text>
<text text-anchor="start" x="743" y="-114.3" font-family="Times,serif" font-size="14.00">resolve_value(conf_instance, value, default, cast, loaders, lookup)</text>
</g>
<!-- superconf.fields.FieldBool -->
<g id="node2" class="node">
<title>superconf.fields.FieldBool</title>
<polygon fill="none" stroke="black" points="0,-0.5 0,-69.5 201,-69.5 201,-0.5 0,-0.5"/>
<text text-anchor="start" x="8" y="-54.3" font-family="Times,serif" font-size="14.00">superconf.fields.FieldBool</text>
<polyline fill="none" stroke="black" points="0,-46.5 201,-46.5 "/>
<text text-anchor="start" x="41.5" y="-31.3" font-family="Times,serif" font-size="14.00">cast : AsBoolean</text>
<polyline fill="none" stroke="black" points="0,-23.5 201,-23.5 "/>
<text text-anchor="start" x="98" y="-8.3" font-family="Times,serif" font-size="14.00"> </text>
</g>
<!-- superconf.fields.FieldBool&#45;&gt;superconf.fields.Field -->
<g id="edge1" class="edge">
<title>superconf.fields.FieldBool&#45;&gt;superconf.fields.Field</title>
<path fill="none" stroke="black" d="M201.29,-68.11C204.05,-68.77 206.79,-69.41 209.5,-70 379.55,-107.31 574.08,-132.48 724.68,-148.23"/>
<polygon fill="none" stroke="black" points="724.68,-151.75 734.99,-149.31 725.4,-144.79 724.68,-151.75"/>
</g>
<!-- superconf.fields.FieldConf -->
<g id="node3" class="node">
<title>superconf.fields.FieldConf</title>
<polygon fill="none" stroke="black" points="219,-0.5 219,-69.5 422,-69.5 422,-0.5 219,-0.5"/>
<text text-anchor="start" x="227" y="-54.3" font-family="Times,serif" font-size="14.00">superconf.fields.FieldConf</text>
<polyline fill="none" stroke="black" points="219,-46.5 422,-46.5 "/>
<text text-anchor="start" x="270" y="-31.3" font-family="Times,serif" font-size="14.00">children_class</text>
<polyline fill="none" stroke="black" points="219,-23.5 422,-23.5 "/>
<text text-anchor="start" x="318" y="-8.3" font-family="Times,serif" font-size="14.00"> </text>
</g>
<!-- superconf.fields.FieldConf&#45;&gt;superconf.fields.Field -->
<g id="edge2" class="edge">
<title>superconf.fields.FieldConf&#45;&gt;superconf.fields.Field</title>
<path fill="none" stroke="black" d="M422.26,-67.92C425.03,-68.64 427.78,-69.33 430.5,-70 525.88,-93.39 631.85,-114 724.87,-130.35"/>
<polygon fill="none" stroke="black" points="724.53,-133.84 734.98,-132.12 725.73,-126.94 724.53,-133.84"/>
</g>
<!-- superconf.fields.FieldDict -->
<g id="node4" class="node">
<title>superconf.fields.FieldDict</title>
<polygon fill="none" stroke="black" points="440,-0.5 440,-69.5 639,-69.5 639,-0.5 440,-0.5"/>
<text text-anchor="start" x="448" y="-54.3" font-family="Times,serif" font-size="14.00">superconf.fields.FieldDict</text>
<polyline fill="none" stroke="black" points="440,-46.5 639,-46.5 "/>
<text text-anchor="start" x="494.5" y="-31.3" font-family="Times,serif" font-size="14.00">cast : AsDict</text>
<polyline fill="none" stroke="black" points="440,-23.5 639,-23.5 "/>
<text text-anchor="start" x="537" y="-8.3" font-family="Times,serif" font-size="14.00"> </text>
</g>
<!-- superconf.fields.FieldDict&#45;&gt;superconf.fields.Field -->
<g id="edge3" class="edge">
<title>superconf.fields.FieldDict&#45;&gt;superconf.fields.Field</title>
<path fill="none" stroke="black" d="M639.28,-67.15C642.39,-68.11 645.47,-69.07 648.5,-70 683.75,-80.87 721.15,-92.34 757.6,-103.48"/>
<polygon fill="none" stroke="black" points="756.76,-106.88 767.34,-106.45 758.8,-100.18 756.76,-106.88"/>
</g>
<!-- superconf.fields.FieldFloat -->
<g id="node5" class="node">
<title>superconf.fields.FieldFloat</title>
<polygon fill="none" stroke="black" points="657.5,-0.5 657.5,-69.5 863.5,-69.5 863.5,-0.5 657.5,-0.5"/>
<text text-anchor="start" x="665.5" y="-54.3" font-family="Times,serif" font-size="14.00">superconf.fields.FieldFloat</text>
<polyline fill="none" stroke="black" points="657.5,-46.5 863.5,-46.5 "/>
<text text-anchor="start" x="723" y="-31.3" font-family="Times,serif" font-size="14.00">cast : float</text>
<polyline fill="none" stroke="black" points="657.5,-23.5 863.5,-23.5 "/>
<text text-anchor="start" x="758" y="-8.3" font-family="Times,serif" font-size="14.00"> </text>
</g>
<!-- superconf.fields.FieldFloat&#45;&gt;superconf.fields.Field -->
<g id="edge4" class="edge">
<title>superconf.fields.FieldFloat&#45;&gt;superconf.fields.Field</title>
<path fill="none" stroke="black" d="M814.73,-69.64C830.19,-79.23 847.63,-90.05 865.19,-100.95"/>
<polygon fill="none" stroke="black" points="863.47,-104 873.81,-106.29 867.16,-98.05 863.47,-104"/>
</g>
<!-- superconf.fields.FieldInt -->
<g id="node6" class="node">
<title>superconf.fields.FieldInt</title>
<polygon fill="none" stroke="black" points="881.5,-0.5 881.5,-69.5 1071.5,-69.5 1071.5,-0.5 881.5,-0.5"/>
<text text-anchor="start" x="889.5" y="-54.3" font-family="Times,serif" font-size="14.00">superconf.fields.FieldInt</text>
<polyline fill="none" stroke="black" points="881.5,-46.5 1071.5,-46.5 "/>
<text text-anchor="start" x="936" y="-31.3" font-family="Times,serif" font-size="14.00">cast : AsInt</text>
<polyline fill="none" stroke="black" points="881.5,-23.5 1071.5,-23.5 "/>
<text text-anchor="start" x="974" y="-8.3" font-family="Times,serif" font-size="14.00"> </text>
</g>
<!-- superconf.fields.FieldInt&#45;&gt;superconf.fields.Field -->
<g id="edge5" class="edge">
<title>superconf.fields.FieldInt&#45;&gt;superconf.fields.Field</title>
<path fill="none" stroke="black" d="M976.5,-69.81C976.5,-78.01 976.5,-87.1 976.5,-96.36"/>
<polygon fill="none" stroke="black" points="973,-96.43 976.5,-106.43 980,-96.43 973,-96.43"/>
</g>
<!-- superconf.fields.FieldList -->
<g id="node7" class="node">
<title>superconf.fields.FieldList</title>
<polygon fill="none" stroke="black" points="1090,-0.5 1090,-69.5 1287,-69.5 1287,-0.5 1090,-0.5"/>
<text text-anchor="start" x="1098" y="-54.3" font-family="Times,serif" font-size="14.00">superconf.fields.FieldList</text>
<polyline fill="none" stroke="black" points="1090,-46.5 1287,-46.5 "/>
<text text-anchor="start" x="1144.5" y="-31.3" font-family="Times,serif" font-size="14.00">cast : AsList</text>
<polyline fill="none" stroke="black" points="1090,-23.5 1287,-23.5 "/>
<text text-anchor="start" x="1186" y="-8.3" font-family="Times,serif" font-size="14.00"> </text>
</g>
<!-- superconf.fields.FieldList&#45;&gt;superconf.fields.Field -->
<g id="edge6" class="edge">
<title>superconf.fields.FieldList&#45;&gt;superconf.fields.Field</title>
<path fill="none" stroke="black" d="M1135.28,-69.64C1120.1,-79.23 1102.98,-90.05 1085.75,-100.95"/>
<polygon fill="none" stroke="black" points="1083.87,-97.99 1077.29,-106.29 1087.61,-103.91 1083.87,-97.99"/>
</g>
<!-- superconf.fields.FieldOption -->
<g id="node8" class="node">
<title>superconf.fields.FieldOption</title>
<polygon fill="none" stroke="black" points="1305.5,-0.5 1305.5,-69.5 1523.5,-69.5 1523.5,-0.5 1305.5,-0.5"/>
<text text-anchor="start" x="1313.5" y="-54.3" font-family="Times,serif" font-size="14.00">superconf.fields.FieldOption</text>
<polyline fill="none" stroke="black" points="1305.5,-46.5 1523.5,-46.5 "/>
<text text-anchor="start" x="1360" y="-31.3" font-family="Times,serif" font-size="14.00">cast : AsOption</text>
<polyline fill="none" stroke="black" points="1305.5,-23.5 1523.5,-23.5 "/>
<text text-anchor="start" x="1412" y="-8.3" font-family="Times,serif" font-size="14.00"> </text>
</g>
<!-- superconf.fields.FieldOption&#45;&gt;superconf.fields.Field -->
<g id="edge7" class="edge">
<title>superconf.fields.FieldOption&#45;&gt;superconf.fields.Field</title>
<path fill="none" stroke="black" d="M1305.39,-69.38C1271.4,-79.78 1232.65,-91.63 1193.96,-103.47"/>
<polygon fill="none" stroke="black" points="1192.67,-100.21 1184.13,-106.48 1194.72,-106.9 1192.67,-100.21"/>
</g>
<!-- superconf.fields.FieldString -->
<g id="node9" class="node">
<title>superconf.fields.FieldString</title>
<polygon fill="none" stroke="black" points="1542,-0.5 1542,-69.5 1757,-69.5 1757,-0.5 1542,-0.5"/>
<text text-anchor="start" x="1550" y="-54.3" font-family="Times,serif" font-size="14.00">superconf.fields.FieldString</text>
<polyline fill="none" stroke="black" points="1542,-46.5 1757,-46.5 "/>
<text text-anchor="start" x="1617.5" y="-31.3" font-family="Times,serif" font-size="14.00">cast : str</text>
<polyline fill="none" stroke="black" points="1542,-23.5 1757,-23.5 "/>
<text text-anchor="start" x="1647" y="-8.3" font-family="Times,serif" font-size="14.00"> </text>
</g>
<!-- superconf.fields.FieldString&#45;&gt;superconf.fields.Field -->
<g id="edge8" class="edge">
<title>superconf.fields.FieldString&#45;&gt;superconf.fields.Field</title>
<path fill="none" stroke="black" d="M1541.87,-67.74C1538.72,-68.52 1535.59,-69.28 1532.5,-70 1433.71,-93.17 1323.95,-113.95 1228.23,-130.48"/>
<polygon fill="none" stroke="black" points="1227.39,-127.07 1218.12,-132.22 1228.57,-133.97 1227.39,-127.07"/>
</g>
<!-- superconf.fields.FieldTuple -->
<g id="node10" class="node">
<title>superconf.fields.FieldTuple</title>
<polygon fill="none" stroke="black" points="1775,-0.5 1775,-69.5 1984,-69.5 1984,-0.5 1775,-0.5"/>
<text text-anchor="start" x="1783" y="-54.3" font-family="Times,serif" font-size="14.00">superconf.fields.FieldTuple</text>
<polyline fill="none" stroke="black" points="1775,-46.5 1984,-46.5 "/>
<text text-anchor="start" x="1829.5" y="-31.3" font-family="Times,serif" font-size="14.00">cast : AsTuple</text>
<polyline fill="none" stroke="black" points="1775,-23.5 1984,-23.5 "/>
<text text-anchor="start" x="1877" y="-8.3" font-family="Times,serif" font-size="14.00"> </text>
</g>
<!-- superconf.fields.FieldTuple&#45;&gt;superconf.fields.Field -->
<g id="edge9" class="edge">
<title>superconf.fields.FieldTuple&#45;&gt;superconf.fields.Field</title>
<path fill="none" stroke="black" d="M1775,-68.11C1772.14,-68.77 1769.31,-69.4 1766.5,-70 1588.35,-107.8 1384.36,-133.18 1228.29,-148.91"/>
<polygon fill="none" stroke="black" points="1227.69,-145.45 1218.08,-149.93 1228.38,-152.42 1227.69,-145.45"/>
</g>
</g>
</svg>
