<?xml version="1.0" encoding="UTF-8" standalone="no"?>
<!DOCTYPE svg PUBLIC "-//W3C//DTD SVG 1.1//EN"
 "http://www.w3.org/Graphics/SVG/1.1/DTD/svg11.dtd">
<!-- Generated by graphviz version 2.43.0 (0)
 -->
<!-- Title: classes_superconf Pages: 1 -->
<svg width="783pt" height="274pt"
 viewBox="0.00 0.00 783.00 274.00" xmlns="http://www.w3.org/2000/svg" xmlns:xlink="http://www.w3.org/1999/xlink">
<g id="graph0" class="graph" transform="scale(1 1) rotate(0) translate(4 270)">
<title>classes_superconf</title>
<polygon fill="white" stroke="transparent" points="-4,4 -4,-270 779,-270 779,4 -4,4"/>
<!-- superconf.anchors.FileAnchor -->
<g id="node1" class="node">
<title>superconf.anchors.FileAnchor</title>
<polygon fill="none" stroke="black" points="273,-0.5 273,-84.5 502,-84.5 502,-0.5 273,-0.5"/>
<text text-anchor="start" x="281" y="-69.3" font-family="Times,serif" font-size="14.00">superconf.anchors.FileAnchor</text>
<polyline fill="none" stroke="black" points="273,-61.5 502,-61.5 "/>
<text text-anchor="start" x="304.5" y="-46.3" font-family="Times,serif" font-size="14.00">path_file : Optional[str]</text>
<polyline fill="none" stroke="black" points="273,-38.5 502,-38.5 "/>
<text text-anchor="start" x="336" y="-23.3" font-family="Times,serif" font-size="14.00">get_file(): str</text>
<text text-anchor="start" x="336" y="-8.3" font-family="Times,serif" font-size="14.00">get_path(): str</text>
</g>
<!-- superconf.anchors.PathAnchor -->
<g id="node2" class="node">
<title>superconf.anchors.PathAnchor</title>
<polygon fill="none" stroke="black" points="0,-121.5 0,-265.5 775,-265.5 775,-121.5 0,-121.5"/>
<text text-anchor="start" x="278.5" y="-250.3" font-family="Times,serif" font-size="14.00">superconf.anchors.PathAnchor</text>
<polyline fill="none" stroke="black" points="0,-242.5 775,-242.5 "/>
<text text-anchor="start" x="256" y="-227.3" font-family="Times,serif" font-size="14.00">path_anchor : Optional[&#39;PathAnchor&#39;]</text>
<text text-anchor="start" x="256" y="-212.3" font-family="Times,serif" font-size="14.00">path_dir : str</text>
<text text-anchor="start" x="256" y="-197.3" font-family="Times,serif" font-size="14.00">path_mode : Optional[str]</text>
<polyline fill="none" stroke="black" points="0,-189.5 775,-189.5 "/>
<text text-anchor="start" x="8" y="-174.3" font-family="Times,serif" font-size="14.00">get_dir(mode: Optional[str], clean: Optional[bool], start: Optional[str], anchor: Optional[&#39;PathAnchor&#39;]): str</text>
<text text-anchor="start" x="8" y="-159.3" font-family="Times,serif" font-size="14.00">get_mode(lvl: int): Optional[str]</text>
<text text-anchor="start" x="8" y="-144.3" font-family="Times,serif" font-size="14.00">get_parents(itself: bool): List</text>
<text text-anchor="start" x="8" y="-129.3" font-family="Times,serif" font-size="14.00">get_path(): str</text>
</g>
<!-- superconf.anchors.FileAnchor&#45;&gt;superconf.anchors.PathAnchor -->
<g id="edge1" class="edge">
<title>superconf.anchors.FileAnchor&#45;&gt;superconf.anchors.PathAnchor</title>
<path fill="none" stroke="black" d="M387.5,-84.61C387.5,-92.96 387.5,-102.02 387.5,-111.21"/>
<polygon fill="none" stroke="black" points="384,-111.22 387.5,-121.22 391,-111.22 384,-111.22"/>
</g>
</g>
</svg>
