<?xml version="1.0" encoding="UTF-8" standalone="no"?>
<!-- Created with Inkscape (http://www.inkscape.org/) -->

<svg
   width="1536"
   height="512"
   viewBox="0 0 1536 511.99997"
   version="1.1"
   id="svg1"
   xml:space="preserve"
   inkscape:version="1.4 (e7c3feb100, 2024-10-09)"
   sodipodi:docname="banner.svg"
   xmlns:inkscape="http://www.inkscape.org/namespaces/inkscape"
   xmlns:sodipodi="http://sodipodi.sourceforge.net/DTD/sodipodi-0.dtd"
   xmlns="http://www.w3.org/2000/svg"
   xmlns:svg="http://www.w3.org/2000/svg"><sodipodi:namedview
     id="namedview1"
     pagecolor="#ffffff"
     bordercolor="#000000"
     borderopacity="0.25"
     inkscape:showpageshadow="2"
     inkscape:pageopacity="0.0"
     inkscape:pagecheckerboard="0"
     inkscape:deskcolor="#d1d1d1"
     inkscape:document-units="px"
     inkscape:zoom="53.483933"
     inkscape:cx="599.06776"
     inkscape:cy="269.5202"
     inkscape:window-width="1920"
     inkscape:window-height="1025"
     inkscape:window-x="0"
     inkscape:window-y="27"
     inkscape:window-maximized="1"
     inkscape:current-layer="layer6"
     showguides="false" /><defs
     id="defs1"><inkscape:path-effect
       effect="perspective-envelope"
       up_left_point="163.43667,361.77985"
       up_right_point="367.2417,387.52141"
       down_left_point="160.12704,430.12071"
       down_right_point="367.2417,413.24641"
       id="path-effect25"
       is_visible="true"
       lpeversion="1"
       deform_type="perspective"
       horizontal_mirror="false"
       vertical_mirror="false"
       overflow_perspective="false" /><inkscape:path-effect
       effect="clone_original"
       css_properties=""
       attributes="style,clip-path,mask"
       linkeditem="#text23"
       is_visible="true"
       method="d"
       allow_transforms="true"
       id="path-effect24"
       lpeversion="1" /><rect
       x="82.390068"
       y="367.92511"
       width="366.0383"
       height="144.07491"
       id="rect24" /><rect
       x="82.390068"
       y="367.92511"
       width="366.0383"
       height="144.07491"
       id="rect24-9" /><inkscape:path-effect
       effect="clone_original"
       css_properties=""
       attributes="style,clip-path,mask"
       linkeditem=""
       is_visible="true"
       method="d"
       allow_transforms="true"
       id="path-effect24-7"
       lpeversion="1" /><inkscape:path-effect
       effect="perspective-envelope"
       up_left_point="163.43667,361.77985"
       up_right_point="367.2417,387.52141"
       down_left_point="160.12704,430.12071"
       down_right_point="367.2417,413.24641"
       id="path-effect25-1"
       is_visible="true"
       lpeversion="1"
       deform_type="perspective"
       horizontal_mirror="false"
       vertical_mirror="false"
       overflow_perspective="false" /><inkscape:path-effect
       effect="clone_original"
       css_properties=""
       attributes="style,clip-path,mask"
       linkeditem=""
       is_visible="true"
       method="d"
       allow_transforms="true"
       id="path-effect24-7-9"
       lpeversion="1" /><inkscape:path-effect
       effect="perspective-envelope"
       up_left_point="163.43667,361.77985"
       up_right_point="367.2417,387.52141"
       down_left_point="160.12704,430.12071"
       down_right_point="367.2417,413.24641"
       id="path-effect25-1-7"
       is_visible="true"
       lpeversion="1"
       deform_type="perspective"
       horizontal_mirror="false"
       vertical_mirror="false"
       overflow_perspective="false" /><rect
       x="82.390068"
       y="367.92511"
       width="366.0383"
       height="144.07491"
       id="rect24-8" /><rect
       x="82.390068"
       y="367.92511"
       width="366.0383"
       height="144.07491"
       id="rect24-9-5" /><rect
       x="82.390068"
       y="367.92511"
       width="366.0383"
       height="144.07491"
       id="rect24-1" /><rect
       x="82.390068"
       y="367.92511"
       width="366.0383"
       height="144.07491"
       id="rect24-3" /><rect
       x="82.390068"
       y="367.92511"
       width="366.0383"
       height="144.07491"
       id="rect24-1-0" /></defs><g
     inkscape:groupmode="layer"
     id="layer2"
     inkscape:label="Hero"
     style="display:inline"><path
       id="rect23"
       style="display:inline;opacity:1;fill:#f0b204;fill-opacity:1;fill-rule:evenodd;stroke:none;stroke-width:13.5443;stroke-miterlimit:7.2;stroke-dashoffset:5.75998;stroke-opacity:1"
       d="m 245.42606,81.246641 c -9.36378,0.730338 -18.505,4.827294 -25.29107,12.124601 -7.53016,8.097448 -7.39369,11.032268 0.2703,5.831348 6.80392,-4.61727 11.82018,-4.64567 9.72856,-0.0551 -3.30889,7.2622 5.65354,13.59832 13.49714,9.54223 2.28891,-1.18365 4.56826,-2.09919 5.06503,-2.03389 0.49677,0.0652 1.68304,-1.7332 2.63487,-3.99692 2.16263,-5.14334 7.75856,-10.846559 10.64183,-10.846559 1.51748,0 0.94721,1.038795 -1.87906,3.416939 -2.23279,1.87877 -5.36255,5.52285 -6.95458,8.0988 -6.85413,11.09024 -22.28676,11.20079 -25.23333,0.18109 -1.34898,-5.04499 -5.76805,-5.41538 -10.3164,-0.86342 -11.50552,11.51465 2.72404,49.26439 16.24749,43.10267 4.59161,-2.09207 5.78931,-1.85507 2.64273,0.52488 -5.23237,3.95756 -12.19584,2.00627 -18.62254,-5.21725 l -3.76598,-4.23049 0.90805,10.07759 c 2.34667,26.06808 24.37223,42.87223 44.24427,33.75466 2.95609,-1.3563 8.48372,-5.77266 12.28469,-9.81514 7.11608,-7.56824 6.87514,-6.96126 10.73105,-26.9628 0.78811,-4.08806 -0.91126,-4.8372 -3.60589,-1.59036 -5.77504,6.95849 -11.56168,7.23459 -21.61169,1.03136 -7.94102,-4.90147 -8.00476,-4.91711 -12.6311,-2.71096 -4.95924,2.3649 -6.18153,1.70596 -2.29896,-1.24133 3.85322,-2.92501 8.21864,-2.14697 16.45481,2.93666 24.37068,15.04245 36.89747,-34.16998 13.48664,-52.983428 -7.67681,-6.169252 -17.26309,-8.805529 -26.62686,-8.075191 z m 35.84628,92.165309 -3.96016,3.79221 c -2.17776,2.08641 -3.96019,4.62326 -3.96019,5.63715 0,1.01383 -0.54296,1.50752 -1.20721,1.09699 -0.66425,-0.41052 -4.14102,2.04264 -7.72615,5.45082 -10.34362,9.83307 -14.85592,12.91157 -17.63314,12.03012 -3.50899,-1.11372 -15.98889,-13.37773 -17.0663,-16.77237 -1.2124,-3.81994 -3.81003,-3.61256 -2.69523,0.21521 0.48426,1.6628 2.64,6.86899 4.7921,11.57085 2.15212,4.70187 3.89406,8.93445 3.87095,9.40575 -0.10292,2.10388 -6.88616,-10.55212 -8.90186,-16.60965 -5.7092,-17.15698 -10.55988,-18.04127 -11.59185,-2.11262 -0.42746,6.59809 -1.67144,13.70279 -2.7661,15.78821 -1.96635,3.74607 -1.90032,3.87709 5.46395,10.84654 l 7.45321,7.05431 25.68473,-0.0446 25.6821,-0.0446 5.21988,-6.10429 c 5.06743,-5.92463 5.17647,-6.25891 3.64787,-11.3609 -0.8662,-2.89113 -1.8934,-9.34477 -2.2832,-14.34219 -0.38981,-4.99742 -1.00572,-10.52917 -1.3673,-12.29256 z m -112.10527,8.01482 c -3.05121,0.003 -6.10537,0.74348 -9.51859,2.04964 -9.03699,3.45825 -8.756,4.51876 2.21759,8.38224 4.78152,1.68344 10.81083,4.31084 13.39741,5.8366 2.58658,1.52576 8.02848,4.06534 12.09311,5.64502 4.06462,1.57968 9.20419,4.55178 11.42126,6.60555 2.21707,2.05377 5.52626,4.73448 7.3535,5.9547 7.13743,4.76633 -1.77534,0.97558 -31.72603,-13.48927 -18.99818,-9.17528 -26.93969,-10.47335 -31.16704,-5.09916 -4.09781,5.20956 -4.12137,5.18204 8.17492,8.64469 6.09694,1.71689 17.43422,5.09899 25.19396,7.51358 20.45862,6.36607 23.7674,7.04502 34.93564,7.1724 l 10.07758,0.11542 -15.4523,-14.79357 c -18.71879,-17.91849 -27.84739,-24.547 -37.00101,-24.53788 z m 162.70054,0.27557 c -10.17124,-1.10294 -22.0103,7.78751 -44.407,31.05155 l -8.06207,8.37437 5.69489,-0.70332 c 4.97177,-0.61437 7.65277,-2.50849 21.13144,-14.94055 8.49056,-7.83126 16.17566,-14.23984 17.07941,-14.23984 1.56546,0 -10.1346,11.10199 -17.70139,16.79598 -1.96419,1.47804 -5.63904,5.05338 -8.16442,7.94397 l -4.59002,5.254 7.38236,-1.07863 c 4.06113,-0.59339 8.44312,-1.12197 9.73641,-1.17572 1.29329,-0.0537 2.35144,-0.50673 2.35144,-1.00514 0,-0.49842 2.26746,-1.28821 5.03879,-1.7557 2.77134,-0.46748 8.96906,-2.31989 13.77271,-4.11763 4.80365,-1.79774 12.23865,-4.23013 16.52305,-5.40358 10.58904,-2.90022 11.19625,-11.42652 0.81354,-11.42652 -2.23329,0 -27.71808,11.66743 -29.4297,13.47352 -0.97904,1.03309 -10.86536,5.04561 -14.78046,5.99932 -3.38042,0.82349 5.52972,-4.34775 30.08317,-17.46257 l 13.28719,-7.0963 -5.8156,-4.21475 c -3.34916,-2.4261 -6.55333,-3.90482 -9.94374,-4.27246 z m 21.79278,28.94156 c -2.8906,-0.0746 -5.75238,0.2815 -8.52396,1.12586 -8.49765,2.58881 -20.72467,8.16722 -20.72467,9.45561 0,5.3726 17.21869,23.86324 33.88851,36.39215 6.44544,4.84434 15.39968,7.10553 27.58477,6.96771 l 9.73905,-0.11018 -0.0551,-8.73391 c -0.14375,-22.95091 -21.67436,-44.57496 -41.90859,-45.0972 z m -210.3985,0.47502 c -11.7514,0.2521 -21.78912,4.67838 -30.07267,13.26882 -10.07237,10.44554 -18.78254,43.17145 -11.00661,41.35484 1.39599,-0.32612 8.988,-1.10305 16.87209,-1.72684 21.07294,-1.66729 38.33883,-12.45372 51.95467,-32.46085 7.60405,-11.17338 7.29702,-12.22325 -4.75536,-16.38133 -8.27474,-2.85479 -15.94126,-4.20591 -22.99212,-4.05464 z m 109.45467,15.06126 c -63.11358,0 -70.73469,0.4771 -70.73469,4.43781 0,0.72615 -7.57661,8.56244 -16.83534,17.41271 -9.25875,8.85027 -17.44477,17.23395 -18.19214,18.63041 -2.10371,3.93081 16.2826,24.88052 23.94214,27.28035 4.76548,1.49306 3.66617,-0.24638 -6.04655,-9.56322 -5.8966,-5.6562 -7.42446,-7.62737 -4.36696,-5.63452 2.58658,1.6859 12.56339,11.17612 22.17069,21.08682 9.6073,9.91072 28.60025,29.12118 42.20777,42.69065 l 24.74257,24.67172 5.32223,-2.98653 c 2.92821,-1.64244 5.61697,-3.74236 5.97307,-4.66614 0.3561,-0.92378 1.34491,-1.6796 2.1966,-1.6796 0.85171,0 2.31851,-1.23312 3.25947,-2.73984 0.94096,-1.50672 2.2953,-2.37859 3.01015,-1.93679 0.71485,0.4418 1.29907,0.0969 1.29907,-0.76893 0,-0.86593 4.3385,-5.58976 9.64194,-10.49487 5.30343,-4.90511 18.32808,-17.38278 28.94419,-27.72911 19.23168,-18.74291 33.20534,-31.16589 26.01802,-23.1312 -3.6191,4.04579 -3.11365,5.97638 0.99201,3.77909 4.73727,-2.5353 23.00508,-23.36089 22.00799,-25.089 -0.5158,-0.89394 -10.09993,-11.06076 -21.29941,-22.59583 L 316.60689,226.18018 Z M 95.98122,273.27453 c -6.823565,-0.16253 -16.638892,9.67506 -24.467013,25.84218 -2.225011,4.59521 -7.633504,13.8933 -12.016998,20.66168 -13.133299,20.27859 -13.721844,40.43458 -1.36468,46.64295 7.900626,3.96935 43.498661,12.85508 60.024631,14.98254 9.6073,1.23678 18.97945,3.00322 20.82701,3.92606 1.84756,0.92285 6.32069,3.28233 9.94112,5.24349 8.1222,4.39974 13.41667,4.51492 18.82199,0.40679 2.28682,-1.73802 6.1038,-4.16303 8.48197,-5.38784 8.62674,-4.44297 15.14967,-15.63863 9.11182,-15.63863 -2.4472,0 -2.57089,-1.83537 -0.36216,-5.37209 2.89728,-4.63932 -1.65665,-7.8895 -6.61079,-4.71863 l -3.77648,2.41705 3.02328,-3.30407 c 3.72598,-4.07154 3.7542,-5.1991 0.23881,-9.66819 -4.02497,-5.11692 -6.7637,-4.45132 -16.27635,3.96017 -14.75616,13.04803 -16.82805,12.57836 -39.4338,-8.95697 -6.87846,-6.55277 -16.18885,-14.24259 -20.68792,-17.08729 -4.49907,-2.8447 -7.83119,-5.51899 -7.40598,-5.9442 0.42522,-0.42521 -0.0242,-0.73792 -0.99725,-0.69546 -8.315395,0.36336 -18.880106,-0.5545 -17.82474,-1.54838 2.127956,-2.00396 9.673314,-3.11421 10.631329,-1.56412 0.483483,0.78229 1.523557,1.42241 2.309447,1.42241 0.886949,0 0.78108,-0.78064 -0.280802,-2.06013 -1.246812,-1.50231 -1.337577,-2.86877 -0.328045,-5.03879 0.761852,-1.63761 2.029545,-4.49031 2.815946,-6.33787 1.331317,-3.12774 1.377445,-3.06216 0.67446,0.9579 -3.25154,18.59382 18.611475,21.13462 37.693855,4.38008 15.38318,-13.50661 12.91022,-33.31899 -4.05728,-32.50809 -16.31136,0.77952 -23.21516,4.70738 -28.64239,16.29472 -1.76108,3.75999 -3.44061,6.59499 -3.73449,6.30111 -0.76146,-0.76146 5.56736,-12.95646 8.78903,-16.93506 2.5505,-3.14974 2.58249,-3.5579 0.52487,-7.0412 -1.42524,-2.41273 -3.36788,-3.57794 -5.6424,-3.63212 z m 304.10168,0.67971 c -5.62567,-0.87384 -6.46112,6.25826 -0.57213,13.77794 2.13642,2.72801 4.62217,7.37869 5.52431,10.33478 0.90214,2.9561 3.08476,8.01939 4.84984,11.25331 3.73889,6.85027 3.7479,6.88635 1.47227,6.88635 -0.99944,0 -3.35944,-4.99843 -5.55055,-11.75718 -8.824,-27.21893 -32.76236,-35.45513 -40.3707,-13.8908 -5.66018,16.04264 23.34219,38.57877 38.08226,29.59242 2.49249,-1.51956 5.34365,-2.44953 6.33785,-2.06802 0.9942,0.38151 2.16563,0.11878 2.60075,-0.58523 0.46575,-0.7536 2.55477,-0.36318 5.08079,0.95003 l 4.29084,2.2307 -7.53194,1.51164 c -10.01187,2.01204 -20.00233,8.27574 -33.45286,20.97136 -10.94046,10.32643 -25.2332,20.07523 -29.42446,20.0712 -2.22259,-0.003 -13.13441,-10.70267 -12.58911,-12.34505 0.56749,-1.70918 -4.88264,-2.59644 -7.46371,-1.21508 -7.14962,3.82635 -14.66082,16.66624 -11.05385,18.89547 1.20985,0.74773 1.08093,1.22607 -0.49077,1.82919 -4.15594,1.59478 -2.05229,6.03817 6.76302,14.28445 12.9219,12.08781 16.22623,12.73322 26.95754,5.26974 5.74046,-3.99242 12.6128,-5.81704 36.70971,-9.75216 12.68441,-2.07142 37.02547,-8.68138 45.31502,-12.30568 11.81748,-5.16676 12.58892,-24.62747 1.70846,-43.14204 -2.97936,-5.06982 -8.71862,-15.94359 -12.75182,-24.16522 -7.56463,-15.42051 -12.60311,-21.38663 -21.74291,-25.74509 -0.9936,-0.47381 -1.89419,-0.7622 -2.69785,-0.88703 z m -239.80457,28.191 c -1.81768,-0.44431 -0.71268,1.8012 3.57964,9.4766 5.03952,9.01149 7.29903,11.15001 20.54619,19.45971 5.25117,3.29396 8.10476,5.89471 7.5162,6.847 -0.60681,0.98185 -0.35048,1.16528 0.71121,0.50912 0.9943,-0.61451 3.10149,0.30989 5.24875,2.30157 1.97226,1.82938 4.7942,3.99239 6.27225,4.80786 2.28382,1.26003 2.34035,1.48746 0.38052,1.52213 -2.13307,0.0378 -2.11535,0.3697 0.23096,4.40894 1.39515,2.40183 4.20953,11.32049 6.25388,19.81926 2.97548,12.36974 4.42895,16.07955 7.28787,18.59367 4.1573,3.6559 28.23007,19.02932 29.79711,19.02932 0.58442,0 1.06288,-8.39032 1.06288,-18.64616 0,-14.93586 -0.40113,-18.98069 -2.01552,-20.32051 -1.10854,-0.92 -2.01552,-2.11142 -2.01552,-2.64799 0,-0.53657 -7.03131,-7.86875 -15.62551,-16.29473 -8.59421,-8.42596 -20.48481,-20.31335 -26.42217,-26.41429 -8.27777,-8.50581 -12.07612,-11.42384 -16.28685,-12.51563 -7.06727,-1.83245 -18.72657,-6.10458 -23.74006,-8.69717 -1.24546,-0.64405 -2.17594,-1.0906 -2.78183,-1.2387 z m 186.61118,1.05237 c -0.70345,0.12537 -1.77127,0.582 -3.20436,1.30694 -2.10099,1.0628 -8.96066,3.5623 -15.24235,5.55579 -16.40459,5.20596 -18.25243,6.43545 -36.547,24.30168 -9.09001,8.87718 -21.7291,20.97028 -28.08602,26.87357 l -11.55773,10.73368 -0.92903,19.12642 c -1.09847,22.61318 -3.07818,21.92501 19.61192,6.83386 14.59208,-9.70518 15.78374,-10.8205 16.55717,-15.52054 0.45833,-2.78529 2.62865,-10.50693 4.82359,-17.15813 2.19492,-6.65121 4.3405,-13.16128 4.76849,-14.46553 0.60739,-1.85097 0.22706,-2.18925 -1.73472,-1.54577 -1.38236,0.45342 0.81146,-1.15708 4.87609,-3.57701 6.54206,-3.8949 8.54719,-4.62928 14.10862,-5.17789 0.73902,-0.0728 0.53916,-0.64198 -0.44352,-1.26495 -1.29028,-0.81796 0.0164,-2.17306 4.70287,-4.87871 12.92627,-7.46262 19.0958,-12.88783 24.64022,-21.66681 4.57958,-7.25123 5.76609,-9.85248 3.65576,-9.4766 z"
       inkscape:label="Hero" /></g><g
     inkscape:groupmode="layer"
     id="layer6"
     inkscape:label="Title"
     style="display:inline"
     transform="matrix(1.9935665,0,0,1.9935665,461.75981,-290.20653)"><path
       id="path270"
       style="font-weight:600;font-size:35px;line-height:70px;font-family:Manrope;-inkscape-font-specification:'Manrope Semi-Bold';text-align:center;white-space:pre;display:inline;fill:#5a9cfe;fill-opacity:1;fill-rule:evenodd;stroke-width:13.5443;stroke-miterlimit:7.2;stroke-dashoffset:5.75998"
       d="m 351.54783,265.53547 c -6.27095,0 -11.4439,1.23343 -15.51793,3.69774 l -0.005,0.003 c -3.85292,2.31227 -6.74547,5.58727 -8.72867,9.77055 -0.0617,-0.0289 -0.12698,-0.0505 -0.18895,-0.0787 l 0.0971,-0.23882 c -0.16057,-0.0787 -0.33342,-0.13047 -0.49602,-0.20471 l 0.0971,-0.23881 c -0.16131,-0.079 -0.33537,-0.13007 -0.49863,-0.20469 l 0.0971,-0.23621 c -0.16057,-0.0787 -0.3335,-0.1302 -0.49601,-0.20469 l 0.0971,-0.23882 c -0.16058,-0.0787 -0.33358,-0.13006 -0.496,-0.20471 l 0.0971,-0.23619 c -0.16115,-0.0789 -0.33568,-0.12966 -0.49863,-0.20469 l 0.0971,-0.23883 c -0.16059,-0.0786 -0.33365,-0.1298 -0.49601,-0.20469 l 0.0971,-0.2362 c -0.16044,-0.0786 -0.33386,-0.1298 -0.49601,-0.20469 l 0.0971,-0.23883 c -0.16129,-0.079 -0.33566,-0.12939 -0.49862,-0.20469 l 0.0971,-0.23883 c -0.16061,-0.0786 -0.3338,-0.12953 -0.49601,-0.2047 l 0.0971,-0.23619 c -0.16059,-0.0787 -0.33384,-0.12939 -0.49601,-0.20471 l 0.0971,-0.23881 c -0.1606,-0.0786 -0.33389,-0.12939 -0.49602,-0.20469 l 0.0971,-0.23883 c -0.16123,-0.0789 -0.33589,-0.12899 -0.49863,-0.2047 l 0.0971,-0.23619 c -0.16059,-0.0786 -0.33394,-0.12926 -0.496,-0.20471 l 0.0971,-0.23881 c -0.16047,-0.0786 -0.3341,-0.12913 -0.496,-0.20471 l 0.0971,-0.23619 c -0.16131,-0.0789 -0.33592,-0.12886 -0.49863,-0.2047 l 0.0971,-0.23881 c -0.16048,-0.0786 -0.33415,-0.12899 -0.49601,-0.20471 l 0.0971,-0.23619 c -0.16055,-0.0786 -0.33412,-0.12899 -0.496,-0.20469 l 0.0971,-0.23883 c -0.16128,-0.079 -0.33602,-0.12859 -0.49862,-0.2047 l 0.0997,-0.23882 c -0.16121,-0.0789 -0.33613,-0.12859 -0.49863,-0.2047 l 0.0971,-0.23619 c -0.16057,-0.0786 -0.33418,-0.12886 -0.496,-0.20471 l 0.0157,-0.0394 0.0814,-0.19945 c -0.1605,-0.0786 -0.33429,-0.12873 -0.496,-0.2047 l 0.0945,-0.23095 0.003,-0.008 c -2.62555,-1.28456 -5.41066,-2.22082 -8.356,-2.8107 l -0.0107,-0.003 c -2.8916,-0.64228 -5.75825,-0.96577 -8.59745,-0.96577 h -0.008 c -5.94846,0 -10.9886,1.25842 -15.11638,3.77647 l -0.005,0.003 c -4.12644,2.5194 -7.26124,6.00268 -9.40575,10.45026 l -0.005,0.008 c -1.50414,3.12237 -2.45078,6.59255 -2.89993,10.37413 -0.2135,-0.16726 -0.44907,-0.31858 -0.67709,-0.47501 -0.23331,-0.18526 -0.48616,-0.35565 -0.73745,-0.5275 -0.2295,-0.18233 -0.47701,-0.35057 -0.72433,-0.51962 -0.22965,-0.18295 -0.47636,-0.35295 -0.72432,-0.52226 -0.0108,-0.008 -0.018,-0.0203 -0.0289,-0.0289 -0.13825,-0.19901 -0.26954,-0.40373 -0.42777,-0.58786 -0.14988,-0.21865 -0.29155,-0.44414 -0.46451,-0.64559 -0.14748,-0.21372 -0.28513,-0.43472 -0.45402,-0.63247 -0.15119,-0.21865 -0.2916,-0.44577 -0.46451,-0.64822 -0.15034,-0.21606 -0.29092,-0.43968 -0.46189,-0.64036 -0.15263,-0.21844 -0.29401,-0.44506 -0.46714,-0.64821 -0.15012,-0.21349 -0.28744,-0.43585 -0.45664,-0.63509 -0.15202,-0.21581 -0.29089,-0.44132 -0.46189,-0.64298 -0.15233,-0.21541 -0.29113,-0.44132 -0.46188,-0.64298 -0.15239,-0.21473 -0.28902,-0.44154 -0.45927,-0.64296 -0.15349,-0.21547 -0.29346,-0.44059 -0.46451,-0.64298 -0.15281,-0.21378 -0.28959,-0.43915 -0.45927,-0.64034 -0.15411,-0.2151 -0.2911,-0.44294 -0.46189,-0.6456 -0.15466,-0.21516 -0.29353,-0.44261 -0.46451,-0.6456 -0.15149,-0.2099 -0.28732,-0.43128 -0.45402,-0.62984 -0.15695,-0.21752 -0.29684,-0.44785 -0.46976,-0.65346 -0.15341,-0.21162 -0.28842,-0.43717 -0.45665,-0.63773 -0.15506,-0.21353 -0.29205,-0.44045 -0.46189,-0.64297 -0.1556,-0.21382 -0.2944,-0.43996 -0.46451,-0.64298 -0.15519,-0.21269 -0.28999,-0.44077 -0.45927,-0.64296 -0.15605,-0.21353 -0.29454,-0.43983 -0.46451,-0.64298 -0.15378,-0.20984 -0.28706,-0.43507 -0.45401,-0.63509 -0.15893,-0.21679 -0.29967,-0.44696 -0.47239,-0.65347 -3.42163,-4.64862 -9.90925,-7.01059 -19.56469,-7.01232 h -0.008 l -17.60954,0.003 h -0.005 v 12.83055 h -0.39366 v -0.44352 h -0.39891 v -0.44352 h -0.3989 v -0.44089 h -0.39891 v -0.4409 h -0.40153 v -0.44351 h -0.3989 v -0.44352 h -0.40153 v -0.4409 h -0.3989 v -0.44352 h -0.39891 v -0.44351 h -0.39891 v -0.4409 h -0.3989 v -0.44352 h -0.40153 v -0.44089 h -0.3989 v -0.44363 h -0.40153 v -0.44089 h -0.39891 v -0.44352 h -0.3989 v -0.4409 h -0.39891 v -0.44352 h -0.39889 v -0.44351 h -0.40154 v -0.4409 h -0.39889 v -0.44352 h -0.40154 v -0.44352 h -0.39891 v -0.44089 h -0.39889 v -0.44352 h -0.39892 v -0.44089 h -0.39889 v -0.44352 h -0.40153 v -0.4409 h -0.39892 v -0.0499 -0.39366 h -0.40151 v -0.24143 -0.20208 h -0.39891 v -0.43826 -0.003 h -33.05134 -0.005 v 22.2678 c -0.097,-0.13101 -0.22984,-0.23586 -0.3333,-0.36216 -0.12966,-0.18148 -0.30939,-0.32618 -0.45139,-0.49864 -0.12644,-0.1767 -0.30236,-0.31758 -0.44089,-0.48551 -0.12779,-0.17883 -0.303,-0.3238 -0.44352,-0.49338 -0.12846,-0.17977 -0.30706,-0.32327 -0.44876,-0.49338 -0.12752,-0.17854 -0.30248,-0.32204 -0.44353,-0.49077 -0.12751,-0.17833 -0.30212,-0.32253 -0.44352,-0.49075 -0.12751,-0.17864 -0.30155,-0.32264 -0.44352,-0.49075 -0.12805,-0.1795 -0.30301,-0.32487 -0.44614,-0.49339 -0.1294,-0.18141 -0.30598,-0.32886 -0.4514,-0.49862 -0.12711,-0.17786 -0.30037,-0.32191 -0.4435,-0.48815 -0.12752,-0.17866 -0.29921,-0.32428 -0.44352,-0.49075 -0.12846,-0.18001 -0.30005,-0.32886 -0.44615,-0.496 -0.12644,-0.17695 -0.29661,-0.32156 -0.4409,-0.48551 -0.12859,-0.18037 -0.30085,-0.32976 -0.44876,-0.49601 -0.12913,-0.18109 -0.29924,-0.33243 -0.44877,-0.49862 -0.12376,-0.17315 -0.28951,-0.31623 -0.43302,-0.47502 -0.13007,-0.18353 -0.30077,-0.33724 -0.45401,-0.50388 -0.12591,-0.17645 -0.28969,-0.32555 -0.43828,-0.48551 -0.12967,-0.18277 -0.29865,-0.33712 -0.45402,-0.50125 -0.1263,-0.17684 -0.28894,-0.32732 -0.44089,-0.48551 -0.19801,-0.27877 -0.42706,-0.53427 -0.69284,-0.76369 -0.0463,-0.0407 -0.11018,-0.0676 -0.15745,-0.10763 -0.0954,-0.10118 -0.13423,-0.24329 -0.24145,-0.33592 -0.0486,-0.0427 -0.11569,-0.0709 -0.16533,-0.11287 -0.0926,-0.0993 -0.13142,-0.2376 -0.2362,-0.32805 -0.0463,-0.0407 -0.11018,-0.0676 -0.15746,-0.10762 -0.0934,-0.10253 -0.13424,-0.24346 -0.24143,-0.33592 -0.0464,-0.0407 -0.11032,-0.0676 -0.15747,-0.10763 -0.0922,-0.10347 -0.13423,-0.2434 -0.24145,-0.33592 -0.0472,-0.0415 -0.11206,-0.0695 -0.16008,-0.11018 -0.0896,-0.10306 -0.13303,-0.23922 -0.23881,-0.33068 -0.0482,-0.0425 -0.11623,-0.0685 -0.16534,-0.11018 -0.0877,-0.10387 -0.13061,-0.23962 -0.23619,-0.33067 -0.0464,-0.0407 -0.11032,-0.0676 -0.15747,-0.10763 -0.0867,-0.10763 -0.1341,-0.24337 -0.24145,-0.33592 -0.0464,-0.0407 -0.11031,-0.0675 -0.15745,-0.10763 -0.0834,-0.10977 -0.13457,-0.24324 -0.24143,-0.33592 -0.0482,-0.0423 -0.11623,-0.0685 -0.16535,-0.11018 -0.0787,-0.11018 -0.13101,-0.23975 -0.2362,-0.33066 -0.003,-0.003 -0.007,-0.005 -0.0107,-0.008 -0.6796,-0.96578 -1.46788,-1.85279 -2.38556,-2.64536 l -0.003,-0.003 c -3.53791,-3.10926 -9.00665,-4.66478 -16.40494,-4.66612 h -0.003 l -18.01107,0.003 h -0.005 V 281.909 h -0.084 v -0.44352 h -0.40153 v -0.44351 h -0.3989 v -0.4409 h -0.40269 v -0.44352 h -0.3989 v -0.44351 h -0.39891 v -0.4409 h -0.3989 v -0.44352 h -0.39891 v -0.44352 h -0.40153 v -0.44089 h -0.3989 v -0.4409 h -0.39891 v -0.44351 h -0.40153 v -0.44352 h -0.3989 v -0.4409 h -0.3989 v -0.44352 h -0.39891 v -0.44351 h -0.40153 v -0.4409 h -0.3989 v -0.44352 h -0.39891 v -0.44089 h -0.40153 v -0.44327 h -0.3989 v -0.44089 h -0.39891 v -0.44352 h -0.3989 v -0.4409 h -0.40153 v -0.44352 h -0.3989 v -0.44351 h -0.39891 v -0.4409 h -0.40153 v -0.44352 h -0.3989 v -0.44352 h -0.39891 v -0.44089 h -0.3989 v -0.44352 h -0.40153 v -0.44089 h -0.39891 v -0.44352 h -0.3989 v -0.4409 h -0.40153 v -0.44352 h -0.3989 v -0.44351 h -0.39891 v -0.4409 h -12.14296 -0.003 v 35.06686 c 0,4.19599 -0.84188,7.30371 -2.46166,9.40311 v -21.90562 h -0.003 -0.39628 v -0.44352 h -0.23881 -0.160086 v -0.44353 h -0.398911 v -0.44088 h -0.401532 v -0.44352 h -0.398897 v -0.44089 h -0.401532 v -0.44352 h -0.398898 v -0.4409 h -0.398911 v -0.44353 h -0.398897 v -0.44088 h -0.398912 v -0.44352 h -0.401531 v -0.44353 h -0.398898 v -0.44088 h -0.398911 v -0.44353 h -0.401531 v -0.44352 h -0.398576 v -0.44122 h -0.398898 v -0.44091 h -0.398911 v -0.44352 h -0.401531 v -0.4435 h -0.398898 v -0.44091 h -0.398911 v -0.44352 h -0.401532 v -0.4435 h -0.398897 v -0.44091 h -0.398912 v -0.44352 H 90.87854 v -0.44352 h -0.401532 v -0.44089 h -0.398897 v -0.4409 h -0.398912 v -0.44351 h -0.401531 v -0.44352 H 88.87877 v -0.4409 h -0.398911 v -0.44352 h -0.398898 v -0.44351 H 87.67943 v -0.4409 h -0.398911 v -0.44352 h -0.398898 v -0.44089 H 86.48009 v -0.44352 h -0.398898 v -0.44089 h -0.398911 v -0.44352 h -0.398898 v -0.4409 H 84.881852 V 271.7316 H 84.48294 v -0.44351 h -0.398897 v -0.4409 h -0.398911 v -0.44352 H 83.2836 v -0.44352 h -0.398898 v -0.44089 h -0.398897 v -0.44352 h -0.401532 v -0.44089 h -0.398911 v -0.44352 h -0.398898 v -0.4409 h -0.398911 v -0.44352 h -0.401531 v -0.44351 h -0.398898 v -0.4409 H 67.941536 v 14.68337 c -0.138022,-0.0599 -0.269219,-0.10145 -0.406785,-0.16009 l 0.102388,-0.2467 c -0.17015,-0.0743 -0.331808,-0.12456 -0.501245,-0.19682 l 0.102388,-0.24407 c -0.17015,-0.0743 -0.331821,-0.12456 -0.501259,-0.19683 l 0.102388,-0.24669 c -0.17015,-0.0742 -0.331821,-0.12456 -0.501246,-0.19683 l 0.102389,-0.24669 c -0.170836,-0.0746 -0.33377,-0.12429 -0.50388,-0.19682 l 0.102389,-0.24407 c -0.17007,-0.0743 -0.331889,-0.12456 -0.50126,-0.19683 l 0.102389,-0.24407 c -0.171198,-0.0747 -0.333421,-0.12671 -0.50388,-0.19945 l 0.102389,-0.24407 c -0.170164,-0.0742 -0.331808,-0.12456 -0.50126,-0.19682 l 0.102389,-0.2467 c -0.17015,-0.0743 -0.331822,-0.12456 -0.501246,-0.19682 l 0.102388,-0.24407 c -0.170123,-0.0743 -0.331861,-0.12456 -0.501259,-0.19683 l 0.102388,-0.24669 c -0.170069,-0.0743 -0.331888,-0.12456 -0.501245,-0.19682 l 0.102388,-0.2467 c -0.170835,-0.0744 -0.33377,-0.12429 -0.503879,-0.19682 l 0.102388,-0.24407 c -0.170069,-0.0743 -0.331889,-0.12456 -0.501259,-0.19683 l 0.102388,-0.24669 c -0.17015,-0.0743 -0.331808,-0.12456 -0.501246,-0.19682 l 0.0997,-0.24408 0.0027,-0.003 c -0.170957,-0.0746 -0.333649,-0.12429 -0.50388,-0.19682 l 0.102389,-0.24407 c -0.17015,-0.0743 -0.331822,-0.12456 -0.50126,-0.19683 l 0.102389,-0.24407 c -0.170123,-0.0743 -0.331862,-0.12456 -0.501259,-0.19682 l 0.102388,-0.2467 c -0.17007,-0.0743 -0.331889,-0.12456 -0.501259,-0.19682 l 0.102388,-0.24407 v -0.003 c -0.170835,-0.0744 -0.33377,-0.12429 -0.503879,-0.19684 l 0.102388,-0.24407 c -0.170043,-0.0743 -0.331929,-0.12455 -0.501259,-0.19682 l 0.102388,-0.2467 c -0.17015,-0.0743 -0.331821,-0.12456 -0.501246,-0.19682 l 0.0997,-0.24406 c -0.170123,-0.0743 -0.331861,-0.12456 -0.501259,-0.19684 l 0.102388,-0.24669 c -0.170163,-0.0742 -0.331794,-0.12455 -0.501259,-0.19682 l 0.102388,-0.2467 c -0.170149,-0.0743 -0.331807,-0.12456 -0.501245,-0.19682 l 0.102388,-0.24406 c -0.170069,-0.0743 -0.331888,-0.12456 -0.501259,-0.19684 l 0.102388,-0.24669 c -0.170163,-0.0742 -0.331835,-0.12456 -0.501259,-0.19683 l 0.0997,-0.24407 c -2.94803,-1.28724 -5.789574,-2.28 -8.523959,-2.97603 l -0.0027,-0.003 c -2.680638,-0.69602 -5.521498,-1.04451 -8.523947,-1.04451 -6.004897,0 -10.749358,1.44771 -14.234591,4.34334 h -0.0027 c -3.485098,2.84053 -5.227614,6.83525 -5.227748,11.98288 v 0.003 c 0,2.62689 0.456149,4.87801 1.367297,6.75512 0.911283,1.87578 2.062634,3.48524 3.456297,4.82623 h 0.0027 c 0.01951,0.0173 0.04084,0.03 0.06036,0.0473 0.120044,0.12335 0.214689,0.27461 0.338545,0.39366 v 0.003 c 0.0195,0.0173 0.04083,0.03 0.06036,0.0472 0.119977,0.12322 0.214762,0.27469 0.338544,0.39366 0.01803,0.016 0.03706,0.0286 0.05512,0.0446 0.121697,0.12523 0.21817,0.27805 0.343793,0.39891 h 0.0027 c 0.01993,0.0177 0.04042,0.0322 0.06036,0.0498 0.11952,0.12281 0.215246,0.27239 0.338545,0.39103 v 0.003 c 0.01951,0.0173 0.04083,0.03 0.06036,0.0472 0.119977,0.12321 0.21476,0.27468 0.338544,0.39365 0.01897,0.0168 0.03874,0.0305 0.05774,0.0473 0.120448,0.12375 0.216892,0.27421 0.34117,0.39366 l 0.0027,0.003 c 0.0171,0.0152 0.03537,0.0269 0.05248,0.0419 0.121697,0.12523 0.218183,0.27805 0.343794,0.3989 h 0.0027 c 0.01951,0.0173 0.04083,0.03 0.06036,0.0473 0.120058,0.12335 0.214676,0.27461 0.338544,0.39366 v 0.003 c 0.01991,0.0177 0.04043,0.0323 0.06036,0.0499 0.119533,0.12268 0.215233,0.27251 0.338544,0.39104 0.01803,0.016 0.03706,0.0286 0.05512,0.0446 0.121697,0.12523 0.218183,0.27804 0.343794,0.39891 h 0.0027 c 0.01993,0.0177 0.04042,0.0323 0.06036,0.0499 0.119534,0.12281 0.215233,0.27239 0.338544,0.39102 0.01709,0.0152 0.03538,0.0269 0.05248,0.0419 0.122463,0.12591 0.219987,0.28001 0.346418,0.40154 0.01709,0.0152 0.03538,0.0269 0.05248,0.0419 0.122476,0.12604 0.219975,0.27989 0.346417,0.40153 0.02042,0.0181 0.04253,0.0317 0.06298,0.0498 0.119211,0.12241 0.212946,0.27271 0.335919,0.39102 h 0.0027 c 0.01711,0.0152 0.03536,0.0269 0.05248,0.0419 0.122462,0.1259 0.219985,0.28001 0.346416,0.40153 0.01897,0.0168 0.03875,0.0305 0.05774,0.0473 0.120447,0.12375 0.216879,0.2742 0.341168,0.39365 v 0.003 c 0.01993,0.0177 0.04042,0.0323 0.06036,0.0498 0.119601,0.12295 0.215162,0.27232 0.338544,0.39102 h 0.0027 c 0.01951,0.0173 0.04083,0.03 0.06036,0.0473 0.120058,0.12335 0.214677,0.27449 0.338544,0.39366 0.01709,0.0152 0.03538,0.0269 0.05248,0.0419 0.122476,0.1259 0.219973,0.28001 0.346416,0.40153 0.01709,0.0152 0.03538,0.0269 0.05248,0.0419 0.122463,0.12603 0.219986,0.27988 0.346417,0.40151 0.02042,0.0181 0.04253,0.0317 0.06298,0.0498 0.119224,0.12255 0.212946,0.27273 0.335919,0.39104 h 0.0027 c 0.01711,0.0152 0.03536,0.0269 0.05248,0.0419 0.122476,0.12591 0.219973,0.28001 0.346416,0.40154 0.01897,0.0168 0.03875,0.0305 0.05774,0.0472 0.120447,0.12375 0.216879,0.27422 0.341168,0.39366 v 0.003 c 0.01993,0.0177 0.04042,0.0323 0.06036,0.0499 0.119614,0.12295 0.21515,0.27234 0.338544,0.39104 h 0.0027 c 0.01711,0.0152 0.03537,0.0269 0.05248,0.0419 0.122476,0.12604 0.219974,0.27989 0.346417,0.40154 0.01897,0.0169 0.03875,0.0304 0.05774,0.0473 0.120448,0.12376 0.216879,0.27421 0.341168,0.39365 v 0.003 c 0.01951,0.0173 0.04084,0.03 0.06036,0.0473 0.119991,0.12335 0.21475,0.27457 0.338544,0.39366 0.01991,0.0177 0.04043,0.0323 0.06036,0.0498 0.119695,0.12295 0.215067,0.27224 0.338544,0.39104 h 0.0027 c 0.01711,0.0152 0.03537,0.0269 0.05248,0.0419 0.122477,0.1259 0.219974,0.28001 0.346417,0.40152 0.01897,0.0169 0.03875,0.0304 0.05774,0.0473 0.12046,0.12375 0.216867,0.2742 0.341169,0.39365 v 0.003 c 0.01993,0.0177 0.04042,0.0323 0.06036,0.0499 0.119614,0.12295 0.21515,0.27232 0.338544,0.39104 h 0.0027 c 0.01711,0.0152 0.03537,0.0269 0.05248,0.0419 0.122476,0.12604 0.219974,0.27989 0.346418,0.40153 0.01897,0.0168 0.03874,0.0304 0.05774,0.0472 0.12046,0.12376 0.216868,0.27421 0.341169,0.39366 v 0.003 c 0.01951,0.0173 0.04083,0.03 0.06036,0.0473 0.11999,0.12335 0.214748,0.27456 0.338544,0.39365 0.01991,0.0177 0.04043,0.0323 0.06036,0.0499 0.12038,0.12376 0.216953,0.27417 0.341169,0.39366 0.01993,0.0177 0.0404,0.0323 0.06036,0.0498 0.119561,0.12282 0.21521,0.27251 0.338544,0.39103 0.01709,0.0152 0.03538,0.0269 0.05248,0.0419 0.122476,0.1259 0.219973,0.28001 0.346418,0.40153 0.01803,0.016 0.03706,0.0286 0.05512,0.0446 0.121724,0.12523 0.218146,0.27805 0.343794,0.39891 0.02232,0.0199 0.04589,0.0353 0.06823,0.0551 0.117894,0.12107 0.211726,0.26885 0.333295,0.38579 0.01897,0.0169 0.03874,0.0304 0.05774,0.0473 0.120461,0.12376 0.216867,0.27421 0.341168,0.39366 0.01709,0.0152 0.03538,0.0269 0.05248,0.0419 0.12249,0.12604 0.219963,0.27989 0.346418,0.40154 0.01991,0.0177 0.04042,0.0322 0.06036,0.0498 0.12038,0.12375 0.216951,0.27416 0.341168,0.39365 0.01951,0.0173 0.04083,0.03 0.06036,0.0472 0.120084,0.12335 0.214652,0.2746 0.338543,0.39365 0.01709,0.0152 0.03538,0.0269 0.05249,0.0419 0.122489,0.1259 0.219961,0.28001 0.346416,0.40153 0.01803,0.016 0.03706,0.0286 0.05512,0.0446 0.03527,0.0363 0.06413,0.0795 0.09973,0.11542 -1.265258,0.94815 -3.239167,1.44603 -5.994063,1.44603 h -0.0027 c -2.895223,0 -5.816565,-0.48127 -8.765401,-1.44603 v -0.003 c -2.894955,-1.01851 -5.708487,-2.11781 -8.442603,-3.29621 h -0.0027 v 11.3399 c 0.12855,0.0621 0.269415,0.10225 0.398905,0.16272 v 0.27818 c 0.12855,0.0621 0.269414,0.10226 0.398904,0.16271 v 0.28081 c 0.129612,0.0626 0.270971,0.10441 0.401529,0.16533 v 0.27819 c 0.128671,0.0622 0.269303,0.10226 0.398905,0.16271 v 0.27818 c 0.128549,0.0621 0.269414,0.10226 0.398904,0.16271 v 0.28081 c 0.12859,0.0621 0.269382,0.10226 0.398904,0.16271 v 0.28081 c 0.129612,0.0626 0.270973,0.10441 0.401529,0.16533 v 0.27556 c 0.12855,0.0621 0.269414,0.10226 0.398905,0.16272 v 0.2808 c 0.12859,0.0621 0.269382,0.10226 0.398904,0.16271 v 0.27818 0.003 c 0.129611,0.0626 0.270974,0.1044 0.401529,0.16532 v 0.27557 c 0.12863,0.0622 0.269335,0.10225 0.398904,0.16272 v 0.27818 c 0.12855,0.0621 0.269414,0.10225 0.398905,0.1627 v 0.28082 c 0.12859,0.0621 0.269386,0.10225 0.398904,0.1627 v 0.28081 c 0.129611,0.0626 0.270974,0.1044 0.401529,0.16534 v 0.27556 c 0.128563,0.0621 0.269415,0.10225 0.398906,0.1627 2e-6,0.0141 -4e-6,0.28019 0,0.28082 0.12859,0.0621 0.269384,0.10225 0.398903,0.1627 v 0.27819 0.003 c 0.129611,0.0626 0.270974,0.10441 0.40153,0.16534 v 0.27556 c 0.12863,0.0621 0.269337,0.10226 0.398904,0.16271 v 0.28082 c 0.12859,0.0621 0.269382,0.10225 0.398905,0.1627 v 0.27818 c 0.128549,0.0621 0.269417,0.10226 0.398904,0.16272 v 0.28081 c 0.129571,0.0626 0.271005,0.1044 0.401529,0.16533 v 0.27557 c 0.12863,0.0621 0.269337,0.10225 0.398904,0.1627 v 0.2808 c 0.12859,0.0621 0.269385,0.10226 0.398905,0.16272 v 0.27819 0.003 c 0.129315,0.0625 0.271274,0.10199 0.401528,0.16272 v 0.27818 c 0.128631,0.0621 0.269338,0.10226 0.398905,0.16271 v 0.28082 c 0.12859,0.0621 0.269385,0.10225 0.398904,0.1627 v 0.27818 0.003 c 0.12859,0.0621 0.269385,0.10225 0.398905,0.16272 v 0.27818 c 0.129571,0.0626 0.271005,0.10441 0.401529,0.16534 v 0.27818 c 0.128657,0.0622 0.269309,0.10226 0.398904,0.16271 v 0.27818 c 0.12855,0.0621 0.269418,0.10225 0.398904,0.16272 v 0.27818 0.003 c 0.129571,0.0626 0.271007,0.1044 0.401529,0.16534 v 0.27555 c 0.12863,0.0622 0.269342,0.10225 0.398905,0.16272 v 0.2808 c 0.128576,0.0621 0.269388,0.10225 0.398904,0.16272 v 0.27818 0.003 c 0.12859,0.0621 0.269386,0.10225 0.398905,0.16272 v 0.27818 c 0.12957,0.0626 0.271006,0.1044 0.401528,0.16532 v 0.27819 c 0.128657,0.0622 0.26931,0.10225 0.398905,0.16271 v 0.27819 c 0.128549,0.0621 0.269418,0.10225 0.398904,0.1627 v 0.28082 c 0.129571,0.0626 0.271007,0.1044 0.401529,0.16532 v 0.2782 c 0.128657,0.0622 0.269311,0.10225 0.398904,0.1627 v 0.27819 c 0.12855,0.0621 0.269421,0.10225 0.398905,0.1627 v 0.28082 c 0.128549,0.0621 0.269419,0.10225 0.398904,0.1627 v 0.27819 c 0.129571,0.0626 0.271009,0.1044 0.40153,0.16534 v 0.27818 c 0.128657,0.0622 0.26931,0.10225 0.398903,0.16272 v 0.27818 0.003 c 0.128577,0.0621 0.269389,0.10225 0.398906,0.1627 v 0.2782 c 0.129571,0.0626 0.271009,0.1044 0.401529,0.16532 v 0.27818 c 0.128657,0.0622 0.269309,0.10226 0.398904,0.16272 v 0.27819 c 0.12855,0.0621 0.269421,0.10225 0.398905,0.1627 v 0.28082 c 0.128549,0.0621 0.269421,0.10225 0.398904,0.1627 v 0.2808 c 0.129598,0.0626 0.270976,0.10441 0.401529,0.16534 v 0.27557 c 0.12863,0.0622 0.269342,0.10225 0.398904,0.1627 v 0.28082 c 0.128577,0.0621 0.269394,0.10225 0.398905,0.1627 v 0.27818 c 4.772473,2.30576 10.18884,3.45893 16.247485,3.45893 6.756014,0 11.959112,-1.5003 15.604511,-4.50342 3.699147,-3.05687 5.550547,-7.13306 5.550547,-12.22695 0,-3.00177 -0.564103,-5.52379 -1.690105,-7.56081 -0.609909,-1.1041 -1.387388,-2.11376 -2.280572,-3.06002 -0.127246,-0.14532 -0.257462,-0.2886 -0.391037,-0.4304 -0.133561,-0.15291 -0.268776,-0.305 -0.409392,-0.45401 -0.127246,-0.14528 -0.257502,-0.28865 -0.391037,-0.4304 -0.130471,-0.14925 -0.261802,-0.29798 -0.398911,-0.44352 -0.132084,-0.15112 -0.265256,-0.30145 -0.404152,-0.44877 -0.128455,-0.14681 -0.258738,-0.29241 -0.393657,-0.43564 -0.133562,-0.15284 -0.268816,-0.30508 -0.409392,-0.45402 -0.127246,-0.14532 -0.257462,-0.2886 -0.391037,-0.4304 -0.133562,-0.15287 -0.268803,-0.30503 -0.409405,-0.45401 -0.127247,-0.14535 -0.257449,-0.28857 -0.391024,-0.4304 -0.130471,-0.14929 -0.261803,-0.29796 -0.398911,-0.44352 -0.132084,-0.15112 -0.265256,-0.30145 -0.404152,-0.44876 -0.128456,-0.14682 -0.258739,-0.29243 -0.393657,-0.43565 -0.13195,-0.15105 -0.265296,-0.30153 -0.404152,-0.44877 -0.13074,-0.14957 -0.264019,-0.29768 -0.401531,-0.44351 -0.13074,-0.14951 -0.26402,-0.29775 -0.401518,-0.44352 -0.129934,-0.14861 -0.2623,-0.29597 -0.398911,-0.4409 -0.128456,-0.14683 -0.258766,-0.29243 -0.393658,-0.43565 -0.132083,-0.15104 -0.265269,-0.30152 -0.404151,-0.44876 -0.128456,-0.14687 -0.258699,-0.29239 -0.393658,-0.43565 -0.132755,-0.15194 -0.267056,-0.30329 -0.406771,-0.45139 -0.129934,-0.1486 -0.2623,-0.29599 -0.398912,-0.44089 -0.130739,-0.14951 -0.264019,-0.29775 -0.401531,-0.44352 -0.129934,-0.1486 -0.262286,-0.29598 -0.398898,-0.44089 -0.128455,-0.1468 -0.258765,-0.29247 -0.393657,-0.43565 -0.130471,-0.14927 -0.261749,-0.29799 -0.398898,-0.44352 -0.132083,-0.15112 -0.265269,-0.30145 -0.404165,-0.44878 -0.129934,-0.14859 -0.262259,-0.29597 -0.398898,-0.44088 -0.130739,-0.14958 -0.264059,-0.29769 -0.401531,-0.44352 -0.130874,-0.14953 -0.264006,-0.29774 -0.401531,-0.44353 -0.128456,-0.14681 -0.258766,-0.29242 -0.393658,-0.43564 -0.131949,-0.15109 -0.265282,-0.30148 -0.404151,-0.44876 -0.128456,-0.14683 -0.258712,-0.29244 -0.393658,-0.43565 -0.132083,-0.15113 -0.265255,-0.30146 -0.404151,-0.44876 -0.129934,-0.1486 -0.262259,-0.29598 -0.398898,-0.4409 -0.129127,-0.14778 -0.260539,-0.29415 -0.396277,-0.43827 -0.13195,-0.15105 -0.265296,-0.30154 -0.404165,-0.44878 -0.129934,-0.14859 -0.262286,-0.29596 -0.398898,-0.44088 -0.13074,-0.14954 -0.26406,-0.29772 -0.401532,-0.44353 -0.128455,-0.14682 -0.258711,-0.29242 -0.393657,-0.43564 -0.132084,-0.15111 -0.265255,-0.30146 -0.404151,-0.44877 -0.130069,-0.14865 -0.262219,-0.29593 -0.398898,-0.4409 -0.129262,-0.14777 -0.260539,-0.29414 -0.396278,-0.43826 -0.131949,-0.15105 -0.265296,-0.30153 -0.404165,-0.44877 -0.13074,-0.14947 -0.263992,-0.29778 -0.401518,-0.44352 -0.128724,-0.14722 -0.258376,-0.29464 -0.393657,-0.43826 -0.0094,-0.0107 -0.01666,-0.0231 -0.0262,-0.0341 1.182249,-0.76685 2.726726,-1.17196 4.676618,-1.1731 2.199602,0 4.344206,0.29453 6.434969,0.88441 0.27536,0.0777 0.647049,0.24206 0.931653,0.32804 v 3.89195 c 0,6.38113 1.984183,11.52767 5.952065,15.44181 0.1083,0.10534 0.232738,0.19401 0.343793,0.29655 0.01948,0.0484 0.02002,0.10991 0.05778,0.14696 0.108435,0.10547 0.232564,0.19397 0.343794,0.29656 0.02835,0.0421 0.01787,0.10776 0.05509,0.14434 0.107494,0.10454 0.230911,0.19228 0.341159,0.29393 0.03198,0.0419 0.01948,0.11152 0.05778,0.14959 0.06584,0.0641 0.153528,0.10507 0.220443,0.16796 0.05939,0.0912 0.09863,0.1945 0.178468,0.27293 0.0649,0.0633 0.151795,0.10319 0.217823,0.16534 0.06409,0.0904 0.100105,0.19836 0.181075,0.27818 0.06584,0.0641 0.153501,0.10507 0.220443,0.16796 0.06665,0.088 0.100508,0.19617 0.181088,0.27556 0.06584,0.0641 0.153448,0.10507 0.220444,0.16796 0.06799,0.0859 0.09889,0.19429 0.178467,0.27293 0.0649,0.0632 0.151715,0.10333 0.21781,0.16534 0.07041,0.0864 0.100239,0.19831 0.181088,0.27818 0.06678,0.0649 0.155114,0.10695 0.223077,0.17058 0.07001,0.0834 0.09943,0.19243 0.178454,0.27032 0.0645,0.0627 0.149538,0.10373 0.21519,0.16533 0.07283,0.0854 0.102389,0.19803 0.183708,0.27818 0.0645,0.0628 0.149498,0.10386 0.215203,0.16534 0.07363,0.0849 0.102389,0.19804 0.183708,0.27818 0.06584,0.0641 0.153327,0.10521 0.220444,0.16796 0.07283,0.0828 0.09876,0.19446 0.178454,0.27294 0.05872,0.0572 0.137042,0.0935 0.196835,0.14959 0.01747,0.0247 0.03977,0.0464 0.05778,0.0708 0.061,0.0669 0.08183,0.15874 0.146959,0.22308 0.02929,0.0285 0.06745,0.0478 0.09715,0.0761 0.102657,0.12066 0.187081,0.25162 0.301804,0.36478 0.02755,0.0267 0.06409,0.0444 0.09191,0.0708 0.105075,0.12241 0.190332,0.25742 0.307044,0.37265 0.03037,0.0294 0.07175,0.0469 0.102388,0.076 0.103597,0.11905 0.185091,0.25231 0.299183,0.36479 0.02755,0.0269 0.06396,0.0443 0.09191,0.0708 0.106419,0.1216 0.190251,0.25741 0.307044,0.37265 0.02755,0.0267 0.06409,0.0443 0.09191,0.0708 0.107091,0.12133 0.190252,0.2574 0.307058,0.37265 0.02902,0.0282 0.06785,0.0457 0.09715,0.0735 0.10615,0.11918 0.186623,0.25378 0.301803,0.3674 0.02983,0.029 0.0696,0.0474 0.0997,0.0761 0.106554,0.11892 0.186731,0.25382 0.301804,0.36741 0.02755,0.0269 0.06396,0.0443 0.09191,0.0708 0.108435,0.12039 0.190292,0.25742 0.307058,0.37265 0.02889,0.0282 0.06785,0.0457 0.09715,0.0735 0.10736,0.11838 0.186772,0.25392 0.301804,0.36742 0.03077,0.0298 0.07121,0.0493 0.102388,0.0787 0.10642,0.11649 0.185535,0.25014 0.299184,0.36216 0.02714,0.0265 0.06436,0.0422 0.09191,0.0683 0.110048,0.12039 0.189687,0.25945 0.307058,0.37529 0.02808,0.0273 0.06611,0.0439 0.09446,0.0708 0.10951,0.11918 0.187981,0.25784 0.304424,0.37267 0.02983,0.029 0.0696,0.0476 0.0997,0.0761 0.107763,0.11663 0.184971,0.25209 0.299183,0.36478 0.02755,0.0267 0.06396,0.0445 0.09191,0.0708 0.110316,0.11932 0.190251,0.25735 0.307057,0.37266 0.02983,0.0289 0.06947,0.0476 0.0997,0.076 0.108838,0.11717 0.186852,0.25402 0.301804,0.36742 0.02889,0.0282 0.06772,0.0458 0.09715,0.0735 0.109241,0.11717 0.186744,0.25391 0.301803,0.3674 0.02983,0.029 0.06947,0.0477 0.0997,0.0761 0.109376,0.1169 0.186812,0.25401 0.301804,0.36742 0.02755,0.0269 0.06382,0.0445 0.09191,0.0708 0.111122,0.11878 0.190265,0.25742 0.307058,0.37265 0.02889,0.0282 0.06759,0.0458 0.09715,0.0735 0.109778,0.1169 0.186704,0.25386 0.301803,0.36742 0.02755,0.0269 0.06382,0.0445 0.09191,0.0708 0.111525,0.11851 0.190224,0.25742 0.307057,0.37266 0.02889,0.0281 0.06759,0.046 0.09715,0.0735 0.110047,0.11663 0.186731,0.25386 0.301804,0.36741 0.02983,0.0289 0.06933,0.0478 0.0997,0.0761 0.110182,0.1165 0.186731,0.25393 0.301804,0.36742 0.02889,0.0281 0.06759,0.046 0.09715,0.0735 0.110316,0.11649 0.186691,0.25386 0.301804,0.36741 0.02983,0.029 0.0692,0.0478 0.0997,0.0761 0.110316,0.11623 0.186839,0.25401 0.301804,0.36742 0.02755,0.0269 0.06369,0.0447 0.09191,0.0708 0.112197,0.11825 0.190211,0.25737 0.307057,0.37267 0.02983,0.029 0.06906,0.048 0.0997,0.0761 0.109913,0.11529 0.185011,0.25214 0.29917,0.36479 0.01841,0.0179 0.04958,0.0219 0.06826,0.0394 0.121199,0.12779 0.204373,0.27954 0.330679,0.40416 0.01841,0.0179 0.04945,0.0219 0.06826,0.0394 0.121199,0.12778 0.204413,0.27953 0.330665,0.40415 0.02056,0.02 0.05509,0.0251 0.07605,0.0446 0.119318,0.12536 0.201363,0.27391 0.325425,0.39628 0.01841,0.0179 0.04945,0.022 0.06826,0.0394 0.121603,0.12751 0.204373,0.27953 0.330679,0.40415 0.02056,0.02 0.05496,0.0253 0.07605,0.0446 0.119588,0.12509 0.201391,0.27396 0.325412,0.39629 0.01787,0.0175 0.04716,0.0226 0.06557,0.0394 0.12214,0.12792 0.206631,0.27915 0.333299,0.40415 0.01922,0.0187 0.05093,0.024 0.07081,0.0421 0.120528,0.12603 0.203097,0.27557 0.328046,0.39889 0.01841,0.0179 0.04918,0.0224 0.06826,0.0394 0.122006,0.12738 0.20432,0.27952 0.330666,0.40416 0.01841,0.0179 0.04891,0.0226 0.06826,0.0394 0.12214,0.12738 0.20432,0.27948 0.330666,0.40416 0.01209,0.0121 0.03991,0.007 0.05254,0.0184 0.128052,0.13369 0.216399,0.29166 0.349034,0.42252 0.01075,0.0108 0.03574,0.005 0.0473,0.0157 0.129396,0.13503 0.217689,0.29561 0.351667,0.42777 0.01209,0.0121 0.0387,0.008 0.05254,0.0184 0.128053,0.13356 0.216507,0.29178 0.349048,0.42252 v 0.003 c 3.967881,3.86039 9.757436,5.78936 17.370716,5.78936 h 0.003 c 5.36127,0 9.78332,-0.91122 13.26882,-2.7346 h 0.003 c 3.53924,-1.87711 6.1651,-4.3978 7.88098,-7.56081 1.09782,-1.99643 1.81415,-4.153 2.23071,-6.43758 h 0.11019 v 0.44351 h 0.3989 v 0.44352 h 0.39891 v 0.4409 h 0.40153 v 0.44352 h 0.3989 v 0.44089 h 0.39891 v 0.44352 h 0.3989 v 0.44352 h 0.40153 v 0.44089 h 0.3989 v 0.44352 h 0.39891 v 0.44089 h 0.40153 v 0.44352 h 0.3989 v 0.4409 h 0.39891 v 0.44352 h 0.3989 v 0.44351 h 0.40153 v 0.4409 h 0.39891 v 0.44352 h 0.3989 v 0.44352 h 0.40153 v 0.44089 h 0.39889 v 0.44352 h 0.39892 v 0.44089 h 0.39889 v 0.44352 h 0.40153 v 0.4409 h 0.39892 v 0.44352 h 0.39889 v 0.44351 h 0.39891 v 0.4409 h 0.40154 v 0.44353 h 0.39889 v 0.4435 h 0.3989 v 0.4409 h 0.40153 v 0.44353 h 0.39891 v 0.44088 h 0.3989 v 0.44352 h 0.39891 v 0.44091 h 0.40153 v 0.4435 h 0.39892 v 0.4409 h 0.39889 v 0.44353 h 0.2467 0.15221 v 0.4435 h 0.008 12.30043 v -0.005 -20.34676 h 0.003 l 5.22512,0.003 h 0.005 c 5.16585,-10e-4 9.28059,-0.83137 12.42903,-2.42754 v 0.20995 0.003 h 0.39889 v 0.44088 h 0.40154 v 0.44352 h 0.39891 v 0.44353 h 0.39889 v 0.44088 h 0.39892 v 0.4409 h 0.40153 v 0.44353 h 0.3989 v 0.4435 h 0.39889 v 0.44091 h 0.40153 v 0.44352 h 0.39892 v 0.4435 h 0.39889 v 0.44091 h 0.39891 v 0.44352 h 0.40154 v 0.44352 h 0.39889 v 0.44089 h 0.39891 v 0.4409 h 0.40152 v 0.4435 h 0.39891 v 0.44353 h 0.3989 v 0.4409 h 0.39891 v 0.44352 h 0.40153 v 0.44089 h 0.3989 v 0.44352 h 0.39891 v 0.44352 h 0.3989 v 0.44089 h 0.40153 v 0.44352 c 0,0 0.38134,0 0.39891,0 v 0.44089 c 0,0 0.38067,10e-6 0.3989,0 v 0.44352 h 0.40153 v 0.4409 h 0.3989 v 0.44352 c 0,0 0.37838,0 0.39891,0 v 0.44351 h 0.3989 v 0.4409 h 0.40153 v 0.44352 c 0,0 0.37538,0 0.39891,0 v 0.44352 h 0.3989 v 0.44089 h 0.39891 v 0.44352 h 0.40153 v 0.44089 c 0,0 0.36973,10e-6 0.3989,0 v 0.44352 h 0.3989 v 0.4409 h 0.40153 v 0.44352 h 0.39891 v 0.44351 h 0.3989 v 0.4409 h 0.39891 v 0.44352 h 0.40153 v 0.44351 c 0,0 0.34864,10e-6 0.3989,0 v 0.4409 h 0.39891 v 0.44352 h 0.40152 v 0.44089 h 0.39891 v 0.44352 h 0.3989 v 0.4409 h 0.39891 v 0.44351 h 0.40153 v 0.4409 h 0.3989 v 0.44352 h 0.39891 v 0.44351 h 0.005 33.05396 v -0.008 -10.04873 h -0.005 -0.39366 v -0.4409 h -0.40153 v -0.44351 h -0.39891 v -0.4409 h -0.3989 v -0.44352 h -0.3989 v -0.44089 h -0.40153 v -0.44352 h -0.39891 v -0.44352 h -0.3989 v -0.44089 h -0.40153 v -0.44352 h -0.39891 v -0.44352 h -0.3989 v -0.44089 h -0.39891 v -0.44352 h -0.40152 v -0.4409 h -0.39891 v -0.44351 h -0.3989 v -0.4409 h -0.40153 v -0.44352 h -0.39891 v -0.44352 h -0.3989 v -0.44089 h -0.39891 v -0.44352 h -0.40153 v -0.44089 h -0.3989 v -0.44352 h -0.39891 v -0.44352 h -0.40152 v -0.4409 h -0.39891 v -0.44351 h -0.3989 v -0.4409 h -0.39891 v -0.44352 h -0.40153 v -0.44089 h -0.3989 v -0.44352 h -0.40153 v -0.44352 h -0.39889 v -0.44089 h -0.39892 v -0.44352 h -0.39891 v -0.44352 h -0.3989 v -0.44089 h -0.40153 v -0.19945 h 4.78949 v 2.2832 0.008 h 0.3989 v 0.44089 h 0.3989 v 0.44352 h 0.40153 v 0.44352 h 0.39891 v 0.44089 h 0.3989 v 0.4409 h 0.39891 v 0.44352 h 0.40153 v 0.44351 h 0.3989 v 0.4409 h 0.39891 v 0.44352 h 0.3989 v 0.44351 h 0.40153 v 0.4409 h 0.39889 v 0.44352 h 0.39892 v 0.44352 h 0.40153 v 0.44089 h 0.3989 v 0.4409 h 0.39891 v 0.44351 h 0.39889 v 0.44352 h 0.40154 v 0.4409 h 0.39891 v 0.44353 h 0.39889 v 0.44088 h 0.40154 v 0.44352 h 0.39889 v 0.44353 h 0.39891 v 0.44088 h 0.3989 v 0.44352 h 0.40153 v 0.44089 h 0.39892 v 0.44352 h 0.39889 v 0.4409 h 0.40153 v 0.44353 h 0.39892 v 0.4435 h 0.39889 v 0.4409 h 0.3989 v 0.44353 h 0.40153 v 0.44352 h 0.39891 v 0.44089 h 0.3989 v 0.44352 h 0.39891 v 0.44088 h 0.40153 v 0.44353 h 0.3989 v 0.4409 h 0.39891 v 0.44352 h 0.3989 v 0.44351 h 0.40153 v 0.4409 h 0.3989 v 0.44352 h 0.39891 v 0.44351 h 0.40153 v 0.4409 h 0.3989 v 0.44352 h 0.39891 v 0.44089 h 0.3989 v 0.44352 h 0.40153 v 0.4409 h 0.39891 v 0.44351 h 0.3989 v 0.4409 h 0.40153 v 0.44352 h 0.24669 0.15221 v 0.44351 h 0.005 12.30044 v -0.008 -21.74817 l 0.0446,0.0761 h 0.14171 l 0.25718,0.44352 h 0.14436 l 0.25456,0.44089 h 0.14433 l 0.25458,0.4409 h 0.14433 l 0.25718,0.44352 h 0.14172 l 0.2572,0.44351 h 0.14433 l 0.25456,0.4409 h 0.14435 l 0.25718,0.44352 h 0.14172 l 0.2572,0.44351 h 0.1417 l 0.25719,0.4409 h 0.14172 l 0.25719,0.44352 h 0.14434 l 0.25718,0.44352 h 0.14435 l 0.25456,0.44089 h 0.14172 l 0.25718,0.4409 h 0.14435 l 0.25718,0.44351 h 0.14172 l 0.25719,0.44352 h 0.14172 l 0.25718,0.4409 h 0.14172 l 0.25719,0.44352 h 0.14696 l 0.25457,0.44089 h 0.14171 l 0.25719,0.44352 h 0.14172 l 0.25719,0.44352 h 0.14434 l 0.25718,0.44089 h 0.14172 l 0.25719,0.44352 h 0.14172 l 0.25718,0.44089 h 0.14172 l 0.25719,0.44352 h 0.14696 l 0.25457,0.4409 h 0.14172 l 0.25718,0.44352 h 0.14172 l 0.25719,0.44351 h 0.14434 l 0.25719,0.4409 h 0.14171 l 0.25719,0.44352 c 0,0 0.13479,0 0.14172,0 l 0.25718,0.44352 c 0,0 0.1368,0 0.14435,0 l 0.25456,0.44089 h 0.14434 l 0.25719,0.44352 h 0.14434 l 0.25456,0.44089 c 0,0 0.13316,1e-5 0.14172,0 l 0.25719,0.44352 h 0.14434 l 0.25719,0.4409 h 0.14172 l 0.25718,0.44352 h 0.14172 l 0.25719,0.44351 h 0.14434 l 0.25456,0.4409 h 0.14434 l 0.25719,0.44352 h 0.14172 l 0.25718,0.44351 c 0,0 0.12684,10e-6 0.14171,0 l 0.2572,0.4409 h 0.14434 l 0.25719,0.44352 h 0.14434 l 0.25456,0.44089 h 0.14172 l 0.25719,0.44352 h 0.14434 l 0.25456,0.4409 h 0.14433 l 0.2572,0.44351 h 0.14172 l 0.25719,0.4409 h 0.1417 l 0.2572,0.44352 h 0.14433 l 0.2572,0.44351 h 0.005 14.06925 l -0.003,-0.005 -16.32622,-25.33307 0.008,-0.003 c 2.52809,-1.19546 4.67738,-2.81004 6.49533,-4.79473 0.18367,0.22391 0.37504,0.44013 0.56686,0.65609 0.6483,0.72982 1.32124,1.43415 2.06276,2.07325 0.097,0.0868 0.1768,0.19039 0.27556,0.27557 0.0989,0.0885 0.18019,0.19404 0.2808,0.2808 0.10145,0.091 0.18527,0.19956 0.28869,0.28869 0.0959,0.086 0.17518,0.18858 0.27293,0.27292 0.0996,0.0894 0.18193,0.19594 0.28344,0.28344 0.10144,0.0911 0.1878,0.1969 0.29131,0.28606 0.0967,0.0869 0.17682,0.19046 0.27554,0.27556 0.10091,0.0908 0.18563,0.1973 0.28869,0.28605 0.0973,0.0876 0.17882,0.18995 0.27818,0.27556 0.0971,0.0876 0.17636,0.19266 0.27557,0.27819 0.10064,0.091 0.18571,0.19736 0.28867,0.28605 0.097,0.0876 0.17899,0.19005 0.27818,0.27556 0.0984,0.0891 0.18011,0.194 0.28082,0.28081 0.1001,0.0908 0.18346,0.19768 0.28605,0.28605 0.0961,0.0871 0.17721,0.18816 0.27555,0.27294 0.10132,0.0922 0.18728,0.19916 0.29131,0.28868 0.0957,0.0871 0.17477,0.19089 0.27294,0.27556 0.0976,0.089 0.18065,0.19181 0.28081,0.27818 0.10117,0.0924 0.18724,0.19915 0.2913,0.28868 0.0982,0.0897 0.18237,0.19384 0.28344,0.28081 0.0937,0.0857 0.17133,0.18723 0.26767,0.27031 0.10078,0.0926 0.18734,0.19916 0.29131,0.28868 0.0954,0.0877 0.17718,0.1881 0.27557,0.27294 0.0263,0.0243 0.0494,0.052 0.0761,0.076 0.0763,0.0943 0.1621,0.17887 0.24406,0.26769 0.0962,0.12254 0.19438,0.24273 0.29919,0.35691 0.0973,0.12308 0.19646,0.2443 0.3018,0.35954 0.0953,0.11985 0.19146,0.23886 0.29393,0.35166 0.0979,0.12295 0.19923,0.24353 0.30442,0.35955 0.0961,0.11985 0.194,0.23804 0.29655,0.35166 0.0981,0.12228 0.19726,0.24344 0.30181,0.35953 0.0963,0.11959 0.19432,0.23772 0.29655,0.35167 0.0977,0.12106 0.19577,0.24144 0.29918,0.35692 0.0986,0.12187 0.19766,0.24303 0.3018,0.35954 0.0793,0.0976 0.15095,0.20229 0.23358,0.29655 0.1138,0.14246 0.22569,0.28676 0.34641,0.42252 0.0957,0.11771 0.19365,0.2332 0.29393,0.34643 0.1001,0.12294 0.19956,0.24645 0.30442,0.36478 0.0958,0.11744 0.19384,0.2331 0.29393,0.34641 0.0986,0.12093 0.19619,0.24285 0.29919,0.35954 0.0998,0.12214 0.20027,0.24412 0.30442,0.36217 0.0961,0.11716 0.194,0.23288 0.29393,0.34641 0.10051,0.12254 0.19996,0.24615 0.30442,0.36479 0.0962,0.11704 0.19415,0.23281 0.29393,0.34642 0.0986,0.12012 0.19694,0.24038 0.29919,0.35692 0.10064,0.12241 0.20011,0.24595 0.30442,0.36478 0.0963,0.1169 0.19431,0.2327 0.29393,0.34642 0.10118,0.12281 0.2024,0.2454 0.30706,0.36479 0.0966,0.1169 0.19163,0.23513 0.29131,0.34903 0.10037,0.12161 0.20073,0.24367 0.30442,0.36217 0.0966,0.11676 0.19443,0.23252 0.29393,0.34642 0.0989,0.11972 0.19721,0.24012 0.29917,0.35691 0.10145,0.12254 0.2026,0.2452 0.30706,0.3648 0.0967,0.11676 0.19182,0.23495 0.29131,0.34903 0.10104,0.12201 0.20313,0.24304 0.30704,0.36216 0.0965,0.1161 0.19233,0.23278 0.29131,0.34643 0.0996,0.11999 0.19693,0.24212 0.29917,0.35953 0.10104,0.12187 0.20324,0.24297 0.30706,0.36217 0.0965,0.1161 0.19241,0.23269 0.29131,0.34642 0.10117,0.12187 0.20059,0.24547 0.30442,0.36478 0.0969,0.11649 0.19473,0.23224 0.29393,0.34641 0.10172,0.12228 0.20281,0.24493 0.30706,0.3648 1.49497,1.79473 3.24261,3.34413 5.26973,4.62151 l 0.008,0.005 c 3.96654,2.40922 9.0054,3.61376 15.11376,3.61376 h 0.0107 c 5.89472,-0.001 11.12031,-0.96516 15.67538,-2.89469 v -0.008 -10.44762 l -0.008,0.003 c -0.13127,0.0508 -0.26236,0.0762 -0.39365,0.1259 v -0.57211 c -0.0484,0.0188 -0.0959,0.0337 -0.14436,0.0472 -0.0849,0.0328 -0.16966,0.049 -0.25456,0.0813 v -0.57211 c -0.094,0.0376 -0.18803,0.0677 -0.28343,0.0919 -0.0384,0.0149 -0.077,0.0219 -0.11542,0.0367 v -0.56949 c -0.13397,0.0523 -0.26872,0.0907 -0.40153,0.1259 v -0.56947 c -0.13343,0.0519 -0.2655,0.09 -0.39892,0.12859 v -0.56949 c -0.13288,0.0515 -0.26557,0.0873 -0.39889,0.12859 v -0.57212 c -0.1333,0.0519 -0.26563,0.0857 -0.39891,0.12859 v -0.57212 c -0.13303,0.0516 -0.26594,0.0845 -0.3989,0.12859 v -0.56949 c -0.1341,0.0517 -0.26766,0.0834 -0.40153,0.12859 v -0.57211 c -0.1333,0.0519 -0.26586,0.0828 -0.3989,0.12859 v -0.56948 c -0.1337,0.0519 -0.26773,0.0821 -0.40153,0.12859 v -0.57211 c -0.13316,0.0516 -0.26566,0.0818 -0.39891,0.12859 v -0.56949 c -0.13289,0.0511 -0.26602,0.0791 -0.3989,0.1259 v -0.56949 c -0.13316,0.0513 -0.26583,0.0786 -0.39891,0.1259 v -0.56948 c -0.13262,0.0512 -0.26621,0.0785 -0.3989,0.12591 v -0.56688 c -0.13383,0.0515 -0.26775,0.0805 -0.40153,0.12859 v -0.57211 c -0.13276,0.0513 -0.26614,0.0779 -0.39891,0.12591 v -0.56949 c -0.13397,0.0516 -0.26762,0.0799 -0.40152,0.12859 v -0.56763 c -0.13289,0.0512 -0.266,0.0775 -0.39891,0.1259 v -0.56949 c -0.13303,0.0515 -0.26584,0.0798 -0.3989,0.12859 v -0.56947 c -0.13289,0.0513 -0.26597,0.0773 -0.39891,0.1259 v -0.56949 c -0.13276,0.0512 -0.2661,0.0771 -0.3989,0.1259 v -0.56687 c -0.13396,0.0516 -0.26761,0.0794 -0.40153,0.12859 V 323.697 c -0.13289,0.0513 -0.26601,0.0769 -0.39891,0.1259 v -0.56949 c -0.13383,0.0517 -0.26761,0.0791 -0.40152,0.12859 v -0.56949 c -0.13289,0.0513 -0.26602,0.0767 -0.39891,0.1259 v -0.56949 c -0.13289,0.0515 -0.26598,0.0766 -0.39891,0.1259 v -0.56948 c -0.13303,0.0513 -0.26594,0.0766 -0.3989,0.12591 v -0.56687 c -0.13275,0.0513 -0.26615,0.0766 -0.3989,0.1259 v -0.56686 c -0.13396,0.0516 -0.26759,0.0787 -0.40153,0.12859 v -0.57211 c -0.13275,0.0513 -0.26609,0.0763 -0.39891,0.1259 v -0.56949 c -0.13396,0.0517 -0.26755,0.0786 -0.40153,0.12859 v -0.56949 c -0.13289,0.0513 -0.26601,0.0763 -0.3989,0.12604 v -0.56949 c -0.13289,0.0513 -0.26606,0.0762 -0.39891,0.1259 v -0.56949 c -0.13289,0.0513 -0.26602,0.0762 -0.3989,0.1259 v -0.56687 c -0.13289,0.0513 -0.26609,0.0762 -0.39891,0.1259 v -0.56948 c -0.13396,0.0517 -0.26762,0.0783 -0.40152,0.12859 v -0.57211 c -0.13289,0.0513 -0.26604,0.0761 -0.39891,0.12591 v -0.56688 c -0.13383,0.0517 -0.26763,0.0782 -0.40153,0.12859 v -0.56949 c -0.13289,0.0513 -0.26602,0.0759 -0.3989,0.12591 v -0.56949 c -0.13289,0.0513 -0.26599,0.0759 -0.39891,0.1259 v -0.56949 c -0.13289,0.0513 -0.26597,0.0759 -0.3989,0.1259 v -0.56686 c -0.13275,0.0513 -0.26607,0.0759 -0.39891,0.1259 v -0.56949 c -0.13383,0.0517 -0.26762,0.0781 -0.40153,0.12859 v -0.57211 c -0.13289,0.0513 -0.26603,0.0758 -0.3989,0.1259 v -0.56685 c -0.13396,0.0517 -0.26758,0.0781 -0.40153,0.12859 v -0.57211 c -0.13289,0.0513 -0.26602,0.0758 -0.3989,0.1259 v -0.56949 c -0.13288,0.0513 -0.26603,0.0756 -0.39891,0.1259 v -0.56687 c -0.13289,0.0513 -0.26603,0.0758 -0.39889,0.1259 v -0.15221 -0.41465 c -0.13289,0.0513 -0.26603,0.0756 -0.39892,0.12591 v -0.35954 -0.20995 c -0.13396,0.0517 -0.2676,0.0779 -0.40153,0.12859 v -0.56424 -0.008 c -2.35681,0.91101 -4.71324,1.66183 -7.07006,2.25171 h -0.008 c -0.64932,0.16621 -1.32574,0.25595 -1.99191,0.37528 0.46377,-4.20866 1.68777,-7.65656 3.71349,-10.30328 l 0.005,-0.008 c 2.68064,-3.48013 6.32566,-5.21987 10.93314,-5.21987 h 0.005 0.003 c 0.75897,4e-4 1.47342,0.0939 2.20184,0.16009 0.31675,4.46884 1.21298,8.48674 2.74248,12.01436 l 0.003,0.005 c 1.0571,2.37131 2.42466,4.44056 4.0599,6.24862 0.0978,0.11287 0.21749,0.20424 0.31755,0.31493 0.0989,0.11422 0.21894,0.20818 0.32017,0.32018 0.10589,0.12227 0.23263,0.22408 0.34118,0.34379 0.0982,0.11327 0.21691,0.20652 0.31755,0.31754 0.0985,0.11381 0.21922,0.2062 0.32017,0.31755 0.10588,0.12241 0.23244,0.22423 0.34117,0.34379 0.0982,0.11341 0.21673,0.20665 0.31754,0.31755 0.10091,0.1165 0.22442,0.21158 0.32805,0.32543 0.10064,0.11623 0.22201,0.2119 0.32542,0.32543 0.10064,0.11622 0.22196,0.21196 0.32543,0.32541 0.10171,0.11757 0.2233,0.21605 0.32804,0.33068 0.10065,0.11622 0.22182,0.21214 0.32543,0.32541 0.10346,0.11945 0.22923,0.21698 0.33592,0.3333 0.0986,0.11381 0.21848,0.20667 0.32017,0.31755 0.0981,0.11327 0.21632,0.20721 0.31755,0.31755 0.10279,0.11905 0.2243,0.22028 0.33067,0.33592 0.10319,0.11932 0.22903,0.21749 0.33592,0.33329 0.0962,0.11098 0.2129,0.20187 0.31229,0.30967 0.10575,0.12241 0.2314,0.22537 0.34118,0.3438 0.0966,0.11152 0.21221,0.2042 0.3123,0.31229 0.10212,0.11825 0.22448,0.21636 0.33066,0.33068 0.10373,0.11986 0.22798,0.22022 0.33592,0.33592 0.0982,0.11328 0.21542,0.20811 0.31755,0.31756 0.098,0.11327 0.21546,0.20822 0.31755,0.31753 0.10589,0.12282 0.23286,0.22586 0.3438,0.3438 0.0986,0.11381 0.2171,0.20811 0.32017,0.31755 0.10212,0.11811 0.22349,0.21742 0.33068,0.33068 0.0836,0.0966 0.18321,0.17711 0.27031,0.27031 0.0195,0.0226 0.0406,0.0434 0.0603,0.0656 l 0.003,0.003 c 0.008,0.009 0.0186,0.0148 0.0262,0.0236 0.0329,0.0344 0.0689,0.0658 0.10238,0.0997 0.0902,0.11099 0.1814,0.22092 0.2782,0.32543 0.0961,0.11905 0.19069,0.2396 0.29393,0.35167 0.0966,0.11945 0.19309,0.23892 0.29655,0.35166 0.0979,0.1208 0.19194,0.24523 0.29655,0.35955 0.0966,0.11851 0.1913,0.23909 0.29393,0.35166 0.0986,0.1208 0.19452,0.24461 0.29918,0.35953 0.0969,0.11811 0.19153,0.23887 0.29393,0.35167 0.099,0.12053 0.19474,0.24435 0.29917,0.35954 0.092,0.11166 0.1685,0.23911 0.26507,0.34641 0.0954,0.11623 0.1886,0.2348 0.28867,0.34643 0.0986,0.11999 0.19587,0.24157 0.29919,0.35691 0.0977,0.11851 0.19182,0.24015 0.29393,0.35429 0.10091,0.12227 0.19898,0.24704 0.30442,0.36479 0.0963,0.11623 0.18836,0.23666 0.28869,0.34903 0.10064,0.12147 0.19951,0.24477 0.30442,0.36217 0.0965,0.11609 0.18847,0.23665 0.28868,0.34904 0.10037,0.1208 0.19747,0.24516 0.3018,0.36217 0.0989,0.11878 0.19654,0.23912 0.29919,0.35428 0.0971,0.11637 0.19075,0.23602 0.29131,0.34905 0.10037,0.12026 0.19529,0.24541 0.29917,0.36216 0.0971,0.11623 0.19089,0.23598 0.29131,0.34905 0.10117,0.12093 0.19985,0.24451 0.30442,0.36216 0.0989,0.11811 0.19444,0.2393 0.29655,0.35429 0.097,0.11569 0.18871,0.23624 0.28869,0.34903 0.10131,0.1208 0.20001,0.24446 0.30442,0.36218 0.097,0.11555 0.18879,0.23623 0.28868,0.34903 0.10145,0.1208 0.19999,0.24432 0.30444,0.36216 0.0971,0.11542 0.18884,0.23621 0.28867,0.34905 0.10105,0.12012 0.1979,0.24476 0.3018,0.36216 0.0976,0.11583 0.19116,0.23576 0.29131,0.34905 0.10159,0.12053 0.20017,0.24429 0.30443,0.36216 0.0993,0.11771 0.1947,0.23909 0.29655,0.35429 0.0974,0.11529 0.18892,0.23604 0.28869,0.34903 0.10158,0.1204 0.20022,0.24423 0.30442,0.36218 0.097,0.11475 0.18941,0.23388 0.28868,0.34641 0.10225,0.12093 0.19977,0.24626 0.30443,0.36478 1.54119,1.82126 3.34222,3.3874 5.43507,4.67139 l 0.008,0.005 c 4.07403,2.4643 9.21935,3.69511 15.43655,3.69511 h 0.005 c 6.27095,-0.001 11.41627,-1.23472 15.43655,-3.70035 l 0.005,-0.003 c 4.0176,-2.46699 6.99335,-5.8976 8.92287,-10.29278 l 0.003,-0.005 c 0.32603,-0.73186 0.58311,-1.51601 0.85554,-2.28846 h 0.27293 v 0.44352 h 0.39891 v 0.4409 h 0.3989 v 0.44352 h 0.40153 v 0.44089 h 0.39891 v 0.44352 h 0.3989 v 0.44352 h 0.40153 v 0.44089 h 0.3989 v 0.44352 h 0.39891 v 0.44089 h 0.3989 v 0.44352 h 0.40153 v 0.4409 h 0.39891 v 0.44353 h 0.40153 v 0.4435 h 0.3989 v 0.4409 h 0.39891 v 0.44353 h 0.3989 v 0.44352 h 0.39891 v 0.44088 h 0.40152 v 0.44353 h 0.39891 v 0.44088 h 0.40153 v 0.44352 h 0.3989 v 0.44091 h 0.39891 v 0.44352 h 0.3989 v 0.44351 h 0.39891 v 0.4409 h 0.40152 v 0.44352 h 0.39891 v 0.44351 h 0.40153 v 0.4409 h 0.3989 v 0.44352 h 0.39891 v 0.44089 h 0.3989 v 0.44352 h 0.39891 v 0.4409 h 0.40153 v 0.44351 h 0.3989 v 0.4409 h 0.40153 v 0.44352 h 0.21257 0.18632 v 0.44351 h 10.85703 v -0.003 -27.02316 -0.005 c -0.0414,-1.05345 -0.11327,-2.10631 -0.1627,-3.15974 l 4.39057,7.62117 0.003,0.005 h 0.14696 l 0.25194,0.44089 h 0.14697 l 0.25456,0.44352 h 0.14435 l 0.25456,0.44352 h 0.14434 l 0.25456,0.44089 h 0.14434 l 0.25457,0.4409 h 0.14696 l 0.25457,0.44352 h 0.14434 l 0.25456,0.44351 h 0.14434 l 0.25457,0.4409 h 0.14434 l 0.25456,0.44352 h 0.14697 l 0.25456,0.44351 h 0.14434 l 0.25456,0.4409 h 0.14435 l 0.25456,0.44352 h 0.14696 l 0.25457,0.44352 h 0.14434 l 0.25456,0.44089 h 0.14433 l 0.25458,0.4409 h 0.14434 l 0.25456,0.44351 h 0.14697 l 0.25456,0.44352 h 0.14433 l 0.25458,0.4409 h 0.14434 l 0.25456,0.44352 h 0.14697 l 0.25456,0.44089 h 0.14433 l 0.25456,0.44352 h 0.14436 l 0.25456,0.44352 h 0.14433 l 0.25456,0.44089 h 0.14698 l 0.25455,0.44352 h 0.14434 l 0.25458,0.44089 h 0.14433 l 0.25456,0.44352 h 0.14698 l 0.25456,0.4409 h 0.14433 l 0.25458,0.44352 h 0.14433 l 0.25456,0.44351 h 0.14434 l 0.25456,0.4409 h 0.14697 l 0.25456,0.44352 c 0,0 0.1378,0 0.14435,0 l 0.25456,0.44353 h 0.14434 l 0.25456,0.44088 h 0.14697 l 0.25456,0.44353 h 0.14434 l 0.25457,0.44088 c 0,0 0.13621,2e-5 0.14434,0 l 0.25456,0.44352 h 0.14434 l 0.25457,0.44091 h 0.14434 l 0.25456,0.44352 h 0.14697 l 0.25456,0.4435 h 0.14434 l 0.25456,0.44091 h 0.14697 l 0.25456,0.44352 h 0.14434 l 0.25457,0.4435 c 0,0 0.13021,2e-5 0.14434,0 l 0.25456,0.44091 h 0.14434 l 0.25457,0.44352 h 0.14434 l 0.25456,0.44088 h 0.14697 l 0.25456,0.44353 h 0.14434 l 0.25457,0.4409 h 0.14696 l 0.25456,0.44351 h 0.14435 l 0.25456,0.4409 h 0.14434 l 0.25456,0.44352 h 0.14435 l 0.25456,0.44351 h 0.008 15.43655 v -0.003 -16.36821 h 0.0892 v 0.44091 h 0.40152 v 0.4435 h 0.39891 v 0.44352 c 0,0 0.36163,2e-5 0.3989,0 v 0.44091 c 0,0 0.36058,0 0.39891,0 v 0.44352 h 0.40153 v 0.44088 h 0.3989 v 0.44353 c 0,0 0.35695,0 0.39891,0 v 0.44352 h 0.40152 v 0.44088 h 0.39891 v 0.44353 c 0,0 0.35258,10e-6 0.39891,0 v 0.44088 c 0,0 0.35094,2e-5 0.3989,0 v 0.44353 h 0.40153 v 0.4409 h 0.3989 v 0.44352 c 0,0 0.34715,10e-6 0.40153,0 v 0.44351 h 0.39891 v 0.4409 h 0.3989 v 0.44352 c 0,0 0.33785,1e-5 0.39891,0 v 0.44352 h 0.3989 v 0.44089 h 0.40153 v 0.44352 h 0.3989 v 0.44089 c 0,0 0.32607,2e-5 0.40153,0 v 0.44352 h 0.39891 v 0.4409 h 0.3989 v 0.44352 h 0.39891 v 0.44351 h 0.3989 v 0.4409 h 0.40153 v 0.44352 h 0.39891 v 0.44351 c 0,0 0.27969,8e-5 0.40152,0 v 0.4409 h 0.39891 v 0.44352 h 0.3989 v 0.44089 h 0.39891 v 0.44352 h 0.3989 v 0.4409 h 0.40153 v 0.44351 h 0.39891 v 0.4409 h 0.40153 v 0.44352 h 0.23619 0.16271 v 0.44351 h 0.003 11.98027 v -22.68243 h 19.46233 0.003 v -9.97262 h -0.39892 v -0.44089 l -0.38053,-0.003 h -0.021 v -0.44088 l -0.39889,-0.003 v -0.44089 h -0.39892 v -0.4409 h -0.39889 v -0.44351 h -0.40153 v -0.4409 h -0.3989 v -0.44352 h -0.39891 v -0.44352 h -0.40153 v -0.43893 h -0.3989 v -0.44352 H 503.387 v -0.44089 h -0.3989 v -0.44352 h -0.40153 v -0.44352 h -0.39891 v -0.44089 h -0.3989 v -0.44352 h -0.40153 v -0.4409 h -0.3989 v -0.44352 h -0.39891 v -0.44351 h -0.3989 v -0.4409 h -0.40153 v -0.44352 h -0.39891 v -0.44089 h -0.3989 v -0.44352 h -0.40153 v -0.44352 h -0.3989 v -0.44089 h -0.39891 v -0.44352 h -0.39891 v -0.4409 h -0.40152 v -0.44351 h -0.39891 v -0.44352 h -0.40153 v -0.4409 h -0.3989 v -0.44352 h -0.39891 v -0.44089 h -0.3989 v -0.44352 h -0.39891 v -0.44352 h -0.40152 v -0.19944 h 15.03502 V 288.991 h -0.39891 v -0.44352 h -0.3989 v -0.44353 h -0.39891 v -0.44088 h -0.40152 v -0.44352 h -0.39891 v -0.44089 h -0.39889 v -0.44352 h -0.40154 v -0.4409 h -0.39891 v -0.44353 h -0.39889 v -0.44088 h -0.39892 v -0.44352 h -0.40153 v -0.44353 h -0.3989 v -0.44088 h -0.39891 v -0.44353 h -0.40151 v -0.44352 h -0.39892 v -0.44088 h -0.39889 v -0.44091 h -0.39891 v -0.44352 h -0.3989 v -0.4435 h -0.40153 v -0.44091 h -0.39891 v -0.44352 h -0.40154 v -0.4435 h -0.39889 v -0.44091 h -0.3989 v -0.44352 h -0.39891 v -0.44352 h -0.39891 v -0.44089 h -0.40152 v -0.4409 h -0.39891 v -0.44351 h -0.40153 v -0.44352 h -0.3989 v -0.4409 h -0.39891 v -0.44352 h -0.3989 v -0.44351 h -0.39891 v -0.4409 h -0.40152 v -0.44352 h -0.39899 v -0.44089 h -0.3989 v -0.44352 h -0.40153 v -0.44089 h -0.39891 v -0.44352 h -0.3989 v -0.4409 h -0.39891 v -0.44352 h -0.3989 v -0.44351 h -0.40153 v -0.4409 h -0.39891 v -0.44352 h -0.40152 v -0.44352 h -0.39891 v -0.44089 h -0.3989 v -0.44352 h -0.39891 V 268.639 h -0.3989 v -0.44352 h -0.40153 v -0.4409 h -0.39891 v -0.0499 -0.39366 h -0.40153 v -0.24668 -0.19683 h -0.3989 v -0.4409 h -32.89387 -0.003 v 16.36411 h -0.0892 v -0.44089 h -0.40153 v -0.4409 h -0.3989 v -0.44352 h -0.39891 v -0.44351 h -0.3989 v -0.4409 h -0.40153 v -0.44352 h -0.3989 v -0.44351 h -0.39891 v -0.4409 h -0.40153 v -0.44352 h -0.3989 v -0.44353 h -0.39891 v -0.44088 h -0.3989 v -0.4409 h -0.40153 v -0.44351 h -0.39891 v -0.44352 h -0.40152 v -0.4409 h -0.39891 v -0.44353 h -0.3989 v -0.4435 h -0.39891 v -0.4409 h -0.39889 v -0.44353 h -0.40154 v -0.44088 h -0.40231 v -0.44354 h -0.40151 v -0.44089 h -0.39892 v -0.44352 h -0.39891 v -0.4409 h -0.39889 v -0.44352 h -0.3989 v -0.44351 h -0.40153 v -0.4409 h -0.39892 v -0.44352 h -0.40153 v -0.44352 h -0.39889 v -0.44089 h -0.39892 v -0.44352 h -0.39889 v -0.44089 h -0.39891 v -0.44352 h -0.40152 v -0.4409 h -0.39891 v -0.44352 h -0.40153 v -0.44351 h -0.3989 v -0.43827 -0.003 h -10.93576 -0.003 v 27.18586 c 0.0392,0.95995 0.0789,1.91907 0.11811,2.87894 l -4.34858,-7.50046 h -0.003 -0.13909 l -0.25719,-0.44352 h -0.14173 l -0.2572,-0.44352 h -0.14433 l -0.25456,-0.44089 h -0.14434 l -0.2572,-0.44352 h -0.14433 l -0.25456,-0.44089 h -0.14435 l -0.25718,-0.44352 h -0.14434 l -0.25458,-0.4409 h -0.1417 l -0.25719,-0.44352 h -0.14434 L 422.704,285.0053 h -0.14172 l -0.25718,-0.44352 h -0.14434 l -0.25719,-0.44352 h -0.14434 l -0.25456,-0.44089 h -0.14435 l -0.25718,-0.44352 h -0.14172 l -0.25719,-0.44352 h -0.14434 l -0.25456,-0.44089 h -0.14434 l -0.25457,-0.4409 h -0.14172 l -0.25718,-0.44352 h -0.14434 l -0.25719,-0.44351 h -0.14434 l -0.25457,-0.4409 h -0.14434 l -0.25718,-0.44352 h -0.14172 l -0.25719,-0.44351 h -0.14434 l -0.25456,-0.4409 h -0.14172 l -0.25719,-0.44352 h -0.14172 l -0.25718,-0.44352 h -0.14697 l -0.25456,-0.44089 h -0.14434 l -0.25457,-0.4409 h -0.14434 l -0.25719,-0.44351 h -0.14171 l -0.25719,-0.44352 h -0.14434 l -0.25456,-0.4409 h -0.14172 l -0.25719,-0.44352 h -0.14172 l -0.25719,-0.44351 h -0.14696 l -0.25456,-0.4409 h -0.14172 l -0.25719,-0.44352 h -0.14696 l -0.25457,-0.44089 h -0.14172 l -0.25718,-0.44352 h -0.14434 l -0.25457,-0.44089 h -0.1417 l -0.2572,-0.44352 h -0.14434 l -0.25457,-0.4409 h -0.14434 l -0.25718,-0.44352 h -0.14171 l -0.2572,-0.44351 h -0.14696 l -0.25457,-0.4409 h -0.14172 l -0.25718,-0.44352 h -0.14172 l -0.25719,-0.44352 h -0.14434 l -0.25456,-0.44089 h -0.14171 l -0.2572,-0.44352 h -0.14696 l -0.25457,-0.44089 h -0.1417 l -0.2572,-0.44352 h -0.14697 l -0.25456,-0.4409 h -0.14172 l -0.25718,-0.44353 h -0.14171 l -0.2572,-0.4435 h -0.14433 l -0.25456,-0.4409 h -15.36045 -0.003 v 27.6215 c -0.11354,-0.12912 -0.25324,-0.23351 -0.37003,-0.35954 -0.15833,-0.18431 -0.33618,-0.34958 -0.50125,-0.52748 -0.16022,-0.18663 -0.34184,-0.35284 -0.50913,-0.53276 -0.1586,-0.18467 -0.33822,-0.34954 -0.50388,-0.5275 -0.15733,-0.18329 -0.33416,-0.34835 -0.49863,-0.52487 -0.16011,-0.18673 -0.34145,-0.35321 -0.50913,-0.53275 -0.15733,-0.18346 -0.33382,-0.34853 -0.49863,-0.52487 -0.16008,-0.18687 -0.3411,-0.35343 -0.50913,-0.53276 -0.15881,-0.18534 -0.33705,-0.35238 -0.50388,-0.53012 -0.15842,-0.18497 -0.33726,-0.35031 -0.50388,-0.52748 -0.15666,-0.18301 -0.33373,-0.34708 -0.49862,-0.52227 -0.1603,-0.18763 -0.33995,-0.35618 -0.50914,-0.53536 -0.1566,-0.18314 -0.33331,-0.34739 -0.49862,-0.52226 -0.15724,-0.18428 -0.33497,-0.34918 -0.50126,-0.52487 -0.16045,-0.18819 -0.33896,-0.35903 -0.50913,-0.53799 -0.1579,-0.18509 -0.33626,-0.35164 -0.50388,-0.5275 -0.1563,-0.1834 -0.3325,-0.3482 -0.49863,-0.52225 -0.15971,-0.18785 -0.33877,-0.35765 -0.50913,-0.53537 -0.12483,-0.14673 -0.26471,-0.27956 -0.39628,-0.4199 -0.046,-0.053 -0.0977,-0.10011 -0.14434,-0.15222 -0.0546,-0.0636 -0.10937,-0.12657 -0.16534,-0.18896 -0.13316,-0.1598 -0.26939,-0.31649 -0.4094,-0.46975 -0.1511,-0.18391 -0.29944,-0.37026 -0.45926,-0.54587 -0.15689,-0.19108 -0.3116,-0.38448 -0.47763,-0.56687 -0.15677,-0.19028 -0.31203,-0.38237 -0.47764,-0.56424 -0.15348,-0.18576 -0.30543,-0.37317 -0.46715,-0.55112 -0.15586,-0.18862 -0.31087,-0.37822 -0.475,-0.55898 -0.15529,-0.18759 -0.30652,-0.37899 -0.46976,-0.559 -0.15724,-0.18974 -0.31245,-0.38206 -0.47764,-0.56424 -0.154,-0.18537 -0.30571,-0.3728 -0.46714,-0.55112 -0.15602,-0.18774 -0.30891,-0.37831 -0.47239,-0.55898 -0.15371,-0.18481 -0.30375,-0.37302 -0.46451,-0.55113 -0.16246,-0.1953 -0.32322,-0.39199 -0.49338,-0.57998 -0.14973,-0.17918 -0.2953,-0.36223 -0.4514,-0.53538 -0.15987,-0.19173 -0.3159,-0.38712 -0.48287,-0.57211 -0.15293,-0.18289 -0.30263,-0.369 -0.46189,-0.54587 -0.16044,-0.19201 -0.31824,-0.38659 -0.48551,-0.57211 -0.15437,-0.1842 -0.30397,-0.37279 -0.46451,-0.55112 -0.15665,-0.18697 -0.30951,-0.37794 -0.4724,-0.55898 -1.56046,-1.86101 -3.40172,-3.45504 -5.56892,-4.73963 l -0.008,-0.003 c -4.02028,-2.46564 -9.13799,-3.69901 -15.35519,-3.70035 z M 67.942504,281.3683 v 0.021 c -0.0027,-10e-4 -0.0054,-10e-4 -0.0081,-0.003 z m 151.560066,17.59117 h 4.23836 v 4.66612 h -0.24144 v -0.44352 h -0.3989 v -0.44351 h -0.40155 v -0.4409 h -0.39889 v -0.44352 h -0.39892 v -0.44352 h -0.40151 v -0.44089 h -0.3989 v -0.44352 h -0.39891 v -0.44352 h -0.3989 v -0.44089 h -0.40155 v -0.4409 h -0.39889 z m 146.11975,0.55374 c -0.43605,3.92569 -1.47476,7.16261 -3.13349,9.6918 l -0.003,0.005 c -1.16907,1.79576 -2.78458,3.07968 -4.78686,3.92081 0.43883,-3.91311 1.47606,-7.14236 3.13088,-9.66556 l 0.003,-0.005 c 1.20709,-1.79448 2.81879,-3.09185 4.78946,-3.94705 z"
       inkscape:label="Extruded blue" /><path
       id="path270-4"
       style="font-weight:600;font-size:35px;line-height:70px;font-family:Manrope;-inkscape-font-specification:'Manrope Semi-Bold';text-align:center;white-space:pre;display:inline;fill:none;fill-opacity:1;fill-rule:evenodd;stroke:#000000;stroke-width:1.20931;stroke-miterlimit:7.2;stroke-dasharray:none;stroke-dashoffset:5.75998;stroke-opacity:1"
       d="m 351.06756,263.03189 c -6.68466,0.11918 -13.58864,1.86309 -18.78788,6.24601 -1.58425,1.31933 -3.00321,2.83802 -4.20425,4.51391 -0.45795,-0.41356 -0.92343,-0.81967 -1.18191,-1.316 -0.49389,-0.40116 -0.91021,-0.83895 -1.19934,-1.32793 -0.49197,-0.39854 -0.90622,-0.83342 -1.18867,-1.32046 -0.51643,-0.34694 -0.78693,-0.78902 -1.10933,-1.21349 -0.122,-0.52561 -1.40336,-0.72313 -1.96772,-1.12354 -5.73554,-2.88389 -12.1667,-4.28562 -18.56845,-4.38704 -7.00383,-0.11341 -14.25398,1.6946 -19.73738,6.21617 -5.00496,3.95646 -8.31525,9.7667 -9.79159,15.92243 -3.3645,-4.62154 -6.63716,-9.31149 -10.04339,-13.90175 -3.71434,-4.53968 -9.64864,-6.47326 -15.29626,-7.1069 -5.26689,-0.58173 -10.57802,-0.23513 -15.86507,-0.33012 h -10.35893 v 7.08056 c -0.30542,-0.46055 -0.83823,-0.6937 -1.01038,-1.28752 -0.60177,-0.15194 -0.64612,-0.86132 -1.20196,-1.05919 -0.26313,-0.49026 -0.63069,-0.87604 -1.06653,-1.19358 -0.16249,-0.59036 -0.85602,-0.64967 -0.9306,-1.32793 -0.59652,-0.18764 -0.79346,-0.77486 -1.19936,-1.15314 -0.48977,-0.26358 -0.53512,-0.97162 -1.20091,-1.0592 h -38.03081 v 17.98219 c -3.00082,-3.38336 -6.11929,-6.67358 -9.06761,-10.08251 -3.35542,-4.53645 -8.92022,-6.7974 -14.37298,-7.49262 -5.12802,-0.69438 -10.31861,-0.30332 -15.47569,-0.40706 h -11.43228 v 9.2929 c -0.4955,-0.25893 -0.72951,-0.77932 -1.10748,-1.15577 -0.48822,-0.26375 -0.5369,-0.96706 -1.19935,-1.05657 -0.0434,-0.70998 -0.73522,-0.7715 -0.93216,-1.32793 -0.37858,-0.40559 -0.86617,-0.70218 -1.06498,-1.28752 -0.59718,-0.15566 -0.64797,-0.85772 -1.19934,-1.0592 -0.26446,-0.48979 -0.63466,-0.87383 -1.06917,-1.19357 -0.16271,-0.58838 -0.85282,-0.64937 -0.92799,-1.32531 -0.75288,-0.0344 -0.47311,-1.1015 -1.47225,-0.88965 H 100.9597 v 19.46759 c -0.46795,-0.27773 -0.71551,-0.77584 -1.083851,-1.15316 -0.485833,-0.26525 -0.538009,-0.96418 -1.199353,-1.05394 -0.04488,-0.70853 -0.732104,-0.77464 -0.932164,-1.32793 -0.38014,-0.40578 -0.866229,-0.70559 -1.067606,-1.29015 -0.600758,-0.15034 -0.644173,-0.858 -1.19672,-1.05657 -0.262528,-0.49171 -0.632805,-0.87568 -1.069165,-1.19356 -0.160099,-0.59273 -0.858409,-0.64728 -0.930604,-1.32793 -0.598018,-0.18614 -0.789734,-0.7786 -1.199327,-1.15315 -0.485753,-0.26709 -0.537351,-0.96835 -1.199341,-1.05919 -0.0434,-0.70903 -0.733151,-0.77185 -0.932176,-1.32531 -0.376056,-0.40899 -0.867855,-0.70222 -1.064973,-1.29015 -0.600718,-0.15212 -0.647868,-0.85782 -1.19934,-1.05919 -0.265054,-0.48831 -0.632523,-0.87421 -1.066545,-1.19357 -0.165205,-0.58677 -0.856595,-0.64734 -0.930604,-1.32531 -0.595801,-0.18835 -0.792166,-0.77616 -1.199327,-1.15314 -0.483791,-0.26906 -0.54075,-0.96495 -1.19934,-1.0592 0.09634,-0.91603 -1.406039,-0.2333 -2.015518,-0.44352 h -15.50215 v 9.15381 c -0.10091,-0.48687 -0.941905,-0.65417 -0.87816,-1.20858 -0.779992,-0.21404 -0.531976,-0.86373 -1.302696,-1.0825 -0.07646,-0.51424 -1.139399,-0.61122 -0.961563,-1.23402 -0.282039,-0.40093 -0.758668,-0.71913 -0.967355,-1.15153 -3.061342,-1.32386 -6.130814,-2.65237 -9.337502,-3.59015 -1.288318,-0.4637 -2.857318,-0.75545 -4.275113,-1.06548 -6.201657,-1.06558 -12.85418,-0.95538 -18.669778,1.67696 -4.560923,2.07548 -8.356829,6.03836 -9.662927,10.95617 -1.174946,4.45863 -1.085087,9.41791 0.853531,13.64036 1.111965,2.41978 2.837282,4.46741 4.681261,6.35532 0.512334,0.46121 0.6114,1.07663 1.255077,1.42069 0.511307,0.45489 0.639207,1.06993 1.302903,1.41354 0.637643,0.58869 0.848439,1.33459 1.617394,1.78466 0.376797,0.51001 0.63602,0.98701 1.222958,1.35417 0.692189,0.86739 1.620134,1.63343 2.133418,2.54103 1.468783,1.2683 2.635454,2.82275 3.978189,4.22583 0.686108,0.79265 1.527578,1.5818 2.01777,2.42726 1.269225,0.69619 -0.144162,0.55143 -0.837238,0.55494 -5.242721,0.0314 -10.102112,-2.16747 -14.864705,-4.09356 -1.200216,-0.52915 -1.920543,-1.77191 -2.917301,-2.6036 -0.614893,-0.6149 -1.229787,-1.22979 -1.84468,-1.84468 v 19.63554 c 0.564111,0.28164 0.763527,0.81117 1.199338,1.17886 0.408391,0.38087 0.626764,0.88783 1.17055,1.1791 0.13558,0.53068 0.734493,0.74883 0.950844,1.22561 0.390454,0.40382 0.858119,0.75322 1.07509,1.27257 0.601538,0.21562 0.587453,0.84791 1.199339,1.05657 0.179549,0.5356 0.693651,0.84891 1.049265,1.26673 0.222787,0.46968 0.817929,0.6891 0.947881,1.22117 0.566347,0.28516 0.757209,0.81959 1.199338,1.18675 0.40337,0.38552 0.63815,0.8855 1.17368,1.1831 0.132702,0.53164 0.746944,0.74167 0.950507,1.22643 0.39265,0.40076 0.857994,0.75228 1.074921,1.27036 0.605184,0.21268 0.581148,0.84825 1.196714,1.05394 0.191004,0.52857 0.684883,0.85317 1.049265,1.2641 0.220302,0.47477 0.822266,0.69195 0.950506,1.22906 0.564293,0.28302 0.756785,0.81533 1.199338,1.18149 0.408391,0.38087 0.626763,0.88783 1.17055,1.1791 0.13383,0.53338 0.742922,0.74707 0.951012,1.23044 0.383659,0.40507 0.859051,0.74695 1.074923,1.26511 0.585701,0.28243 0.664936,0.88896 1.410104,1.09213 7.440537,3.76516 16.065124,4.85145 24.280171,3.72137 5.616051,-0.77342 11.213505,-3.37765 14.560084,-8.09536 2.258454,-3.07623 3.315794,-6.91653 3.322083,-10.70709 3.794104,4.20324 7.611466,8.44093 11.384528,12.61273 4.630436,4.57247 11.26033,6.38305 17.61537,6.57932 6.58471,0.23667 13.56088,-0.75729 19.01036,-4.72914 2.87603,-2.03409 5.23655,-4.79693 6.73676,-7.98858 0.5455,0.2229 0.76042,0.7764 1.15209,1.15314 0.48968,0.2623 0.53749,0.96647 1.19934,1.05658 0.0449,0.70852 0.73211,0.77463 0.93218,1.32793 0.37857,0.40559 0.86615,0.70216 1.06496,1.28751 0.60081,0.15204 0.6467,0.859 1.19935,1.05919 0.26445,0.4898 0.63466,0.87384 1.06917,1.19357 0.16247,0.59035 0.85601,0.64968 0.9306,1.32794 0.59723,0.18606 0.79006,0.7765 1.19671,1.15314 0.48335,0.26863 0.5395,0.96444 1.19934,1.05658 0.0451,0.70913 0.73539,0.77308 0.93481,1.32793 h 17.54602 v -20.34676 c 4.39494,0.0602 8.87416,-0.0716 13.08773,-1.4539 0.51154,0.26896 0.66901,0.89198 1.19934,1.14213 0.26496,0.48754 0.6307,0.87429 1.06655,1.19094 0.16011,0.59273 0.85841,0.64728 0.9306,1.32793 0.5993,0.18487 0.79065,0.77767 1.19934,1.15315 0.4862,0.26665 0.53481,0.97087 1.19934,1.05919 0.0434,0.70998 0.73524,0.77152 0.93218,1.32793 0.3801,0.40407 0.86681,0.70152 1.06496,1.28753 0.59746,0.15538 0.64969,0.85599 1.19934,1.05919 0.26144,0.49281 0.63593,0.87256 1.06918,1.19357 0.1627,0.58838 0.8528,0.64937 0.92797,1.32531 0.59689,0.18814 0.79223,0.77784 1.19934,1.15576 0.48967,0.2623 0.53747,0.96647 1.19934,1.05658 0.0449,0.70853 0.7321,0.77464 0.93217,1.32793 0.3801,0.40407 0.86681,0.70152 1.06496,1.28752 0.6011,0.15176 0.64842,0.85727 1.19934,1.0592 0.26144,0.4928 0.63594,0.87255 1.06918,1.19356 0.16052,0.59145 0.85357,0.65037 0.93059,1.32531 0.5976,0.18656 0.78885,0.77948 1.19672,1.15576 0.41081,0.408 1.58463,0.0529 2.28426,0.17217 h 36.14966 v -7.07531 c 0.30202,0.46396 0.83748,0.69445 1.01039,1.28752 0.60163,0.15033 0.64463,0.8593 1.19671,1.0592 0.26446,0.48978 0.63466,0.87383 1.06917,1.19356 0.16235,0.59049 0.85851,0.64718 0.9306,1.32793 0.59613,0.18629 0.79001,0.77482 1.19672,1.15052 0.48897,0.26527 0.53673,0.97177 1.20353,1.0592 h 17.27991 V 332.1106 c 0.36939,0.5099 0.79573,0.9211 1.21163,1.34968 0.3954,0.53185 0.86367,0.93374 1.27259,1.44383 0.41896,0.48316 0.87982,0.89251 1.25762,1.44489 0.45602,0.41043 0.88914,0.85956 1.26021,1.41973 0.52038,0.309 0.82186,0.99507 1.32847,1.32795 0.38,0.48606 0.75607,0.97546 1.21193,1.32793 0.37335,0.56348 0.83153,0.97677 1.2615,1.44154 0.39852,0.52684 0.86139,0.93868 1.27258,1.44382 0.42052,0.48579 0.88254,0.89506 1.26705,1.444 0.44611,0.42041 0.8841,0.85513 1.24553,1.42063 0.52568,0.30211 0.82573,0.99639 1.33371,1.32794 0.37008,0.49863 0.76224,0.96152 1.20931,1.32793 0.30125,0.82583 1.38515,0.29604 2.07955,0.44089 h 20.28796 c -1.51139,-1.59183 -3.20089,-3.03997 -4.60103,-4.72155 -4.80068,-7.4505 -9.60136,-14.90098 -14.40204,-22.35147 0.90232,-0.57125 1.76203,-1.21182 2.57188,-1.90792 2.60194,2.50737 5.16502,5.05519 7.6789,7.64032 3.55888,4.25993 7.12437,8.50762 10.66073,12.70901 3.33597,4.14239 8.03723,7.11649 13.21419,8.34254 6.10965,1.49943 12.54707,1.36455 18.70717,0.23908 3.14672,-0.57614 6.16875,-1.66038 9.1023,-2.91555 v -15.99817 c -0.69771,0.23148 -0.5509,-0.72415 -1.0562,-0.76784 -0.32555,-0.25385 -0.35452,-0.9129 -0.92596,-0.8308 -0.0997,-0.52524 -0.31028,-0.89185 -0.81544,-0.86564 -0.0265,-0.67372 -0.44969,-0.80184 -0.80043,-1.0319 -0.0946,-0.56987 -0.59518,-0.5858 -0.7978,-1.00828 -0.19352,-0.44584 -0.69165,-0.47272 -0.80043,-1.03191 -0.29549,-0.29123 -0.76699,-0.34864 -0.79781,-1.00566 -0.44342,-0.0688 -0.75683,-0.32215 -0.80045,-0.94005 -0.70129,0.22144 -0.56445,-0.72631 -1.05373,-0.79721 -0.33114,-0.24536 -0.35991,-0.90699 -0.9289,-0.82923 -0.10118,-0.53477 -0.3211,-0.90853 -0.81494,-0.90345 -0.0411,-0.63932 -0.45989,-0.76341 -0.79781,-0.99779 -0.12268,-0.89832 0.64355,0.36813 0.97364,0.55165 2.85825,2.90825 5.81513,5.72267 8.6148,8.68303 3.61527,4.34234 7.17886,8.69657 10.85804,12.99689 4.11815,4.60488 10.01923,7.30021 16.08615,8.11812 6.52889,0.85151 13.38116,0.55398 19.54791,-1.91933 5.13167,-2.1017 9.527,-5.97129 12.22398,-10.82292 0.0558,0.69061 0.74175,0.75098 0.9348,1.30431 0.37701,0.40714 0.86577,0.70254 1.06497,1.28751 0.6026,0.15025 0.64405,0.86165 1.19934,1.05919 0.26495,0.48754 0.6307,0.87429 1.06653,1.19095 0.16173,0.59112 0.85554,0.65016 0.93061,1.32793 0.59652,0.18764 0.79347,0.77487 1.19934,1.15315 0.48575,0.2671 0.53735,0.96834 1.19934,1.0592 0.0434,0.70996 0.73525,0.7715 0.93217,1.32793 0.37859,0.40559 0.86615,0.70216 1.06498,1.28751 0.60072,0.15213 0.64788,0.85783 1.19934,1.0592 0.12859,0.69026 1.51651,0.12106 2.1499,0.30653 h 14.08184 v -22.79267 c 0.35979,0.6605 0.84158,1.10909 1.32583,1.55625 0.367,0.50381 0.75946,0.96742 1.2093,1.32793 0.37077,0.56734 0.83024,0.97858 1.26097,1.44185 0.39135,0.53347 0.8654,0.92628 1.26623,1.44447 0.41936,0.48485 0.88954,0.88513 1.26624,1.44446 0.45665,0.40805 0.88593,0.86091 1.25586,1.41922 0.52147,0.30947 0.82452,0.99547 1.33369,1.32793 0.36421,0.5064 0.75938,0.95887 1.20407,1.32793 0.3795,0.55879 0.83384,0.99081 1.2744,1.4443 0.39447,0.52957 0.85556,0.93909 1.26389,1.4443 0.41618,0.48744 0.88686,0.88138 1.2604,1.44219 0.4522,0.41518 0.89321,0.85153 1.25849,1.41922 0.51867,0.31428 0.8247,0.99517 1.33369,1.32793 0.36194,0.51026 0.76073,0.95652 1.20407,1.32793 0.37427,0.56651 0.83248,0.988 1.27177,1.44429 0.39425,0.53148 0.8581,0.93769 1.26654,1.44431 0.51198,0.46081 1.50144,0.0946 2.21391,0.20816 h 17.58643 v -10.17469 c 0.50198,0.25246 0.73064,0.7782 1.1101,1.15315 0.48673,0.26611 0.54049,0.96521 1.19935,1.0592 0.0457,0.70852 0.73622,0.77226 0.93478,1.32793 0.37578,0.40752 0.8661,0.70047 1.06498,1.28489 0.59809,0.15388 0.64476,0.85919 1.19672,1.0592 0.26423,0.49001 0.63364,0.87484 1.06916,1.19356 0.16173,0.59112 0.85552,0.65016 0.93062,1.32793 0.59802,0.18614 0.78972,0.77859 1.19934,1.15316 0.28164,0.50444 0.80603,0.76611 1.74258,0.61567 h 16.01391 V 326.5863 h 19.46497 v -15.34734 c -0.58855,-0.18772 -0.78947,-0.76224 -1.19672,-1.13477 -0.47361,-0.28536 -0.5398,-0.97813 -1.20196,-1.07494 -0.0434,-0.70996 -0.73524,-0.7715 -0.93218,-1.32794 -0.37701,-0.40714 -0.86577,-0.70254 -1.06497,-1.28751 -0.59745,-0.15538 -0.6497,-0.85599 -1.19933,-1.05919 -0.26204,-0.49134 -0.63381,-0.87294 -1.06654,-1.19356 -0.16261,-0.58938 -0.85619,-0.64777 -0.93061,-1.32531 -0.51534,-0.0993 -0.96264,-0.95184 -1.06497,-1.02089 h 10.10592 V 286.4649 c -0.59651,-0.18763 -0.79345,-0.77486 -1.19934,-1.15315 -0.48966,-0.2623 -0.53747,-0.96645 -1.19932,-1.05657 -0.0449,-0.70852 -0.73211,-0.77463 -0.93218,-1.32793 -0.38014,-0.40578 -0.86624,-0.70559 -1.06759,-1.29013 -0.60045,-0.14978 -0.64714,-0.85331 -1.19672,-1.05396 -0.26143,-0.49281 -0.63594,-0.87256 -1.06917,-1.19356 -0.16026,-0.59259 -0.85592,-0.64978 -0.9306,-1.32793 -0.59723,-0.18607 -0.79007,-0.77651 -1.19672,-1.15316 -0.48378,-0.26904 -0.54074,-0.96495 -1.19933,-1.05919 -0.0465,-0.70693 -0.73577,-0.77098 -0.93481,-1.3253 -0.3764,-0.40777 -0.86441,-0.70391 -1.06234,-1.29015 -0.60532,-0.14839 -0.646,-0.86144 -1.20196,-1.05919 -0.26387,-0.48863 -0.63381,-0.87119 -1.06654,-1.19094 -0.16026,-0.59259 -0.85593,-0.64978 -0.93061,-1.32793 -0.5973,-0.18686 -0.78844,-0.77989 -1.19934,-1.15315 -0.48508,-0.26689 -0.53556,-0.96837 -1.1967,-1.05921 -0.0464,-0.70786 -0.73786,-0.77064 -0.93481,-1.32793 -0.37634,-0.40782 -0.86881,-0.6995 -1.06498,-1.28751 -0.68984,-0.0636 -0.46925,-1.03748 -1.33528,-0.92483 h -37.73635 v 10.17732 c -0.49874,-0.25569 -0.72755,-0.7813 -1.11011,-1.15316 -0.4862,-0.26664 -0.53481,-0.97088 -1.19934,-1.0592 -0.0461,-0.70727 -0.73456,-0.77218 -0.93218,-1.32793 -0.37635,-0.40782 -0.86882,-0.6995 -1.06497,-1.28751 -0.59745,-0.15538 -0.64969,-0.85599 -1.19934,-1.05919 -0.26192,-0.49057 -0.63197,-0.87303 -1.06654,-1.19094 -0.16595,-0.58691 -0.85304,-0.65266 -0.9306,-1.32794 -0.5993,-0.18486 -0.79066,-0.77766 -1.19934,-1.15315 -0.28308,-0.50387 -0.80353,-0.77039 -1.74258,-0.6183 H 428.56 v 22.56435 c -0.51115,-0.32666 -0.8266,-0.99523 -1.3358,-1.32531 -0.37481,-0.56296 -0.83034,-0.98328 -1.26412,-1.44417 -0.39342,-0.53182 -0.86384,-0.92821 -1.26674,-1.44417 -0.42271,-0.48066 -0.88527,-0.88902 -1.26674,-1.44154 -0.45103,-0.41813 -0.88681,-0.85993 -1.25431,-1.42274 -0.52352,-0.30656 -0.82625,-0.9935 -1.33371,-1.32793 -0.3685,-0.49984 -0.75861,-0.96479 -1.20669,-1.32793 -0.37518,-0.56139 -0.83171,-0.9837 -1.26674,-1.44155 -0.39445,-0.53003 -0.86158,-0.93215 -1.26674,-1.44418 -0.42112,-0.48329 -0.88537,-0.891 -1.26673,-1.44417 -0.44956,-0.41777 -0.88658,-0.85498 -1.25169,-1.4201 -0.52585,-0.30255 -0.82496,-0.99578 -1.33371,-1.32793 -0.37063,-0.49839 -0.75886,-0.96345 -1.20669,-1.32793 -0.37631,-0.56159 -0.83108,-0.98378 -1.26674,-1.44156 -0.39656,-0.5268 -0.86158,-0.93314 -1.26674,-1.44417 -0.48145,-0.47321 -0.81889,-1.07815 -1.50387,-1.28547 -0.57942,-0.54204 -1.55879,-0.11851 -2.3068,-0.2535 h -17.10986 v 23.62459 c -2.61987,-2.75317 -5.29857,-5.45721 -7.67629,-8.42948 -2.52902,-2.88305 -4.84533,-5.95947 -7.54137,-8.69036 -4.65923,-4.5073 -11.06941,-6.80023 -17.46101,-7.24745 -1.60958,-0.12752 -3.22518,-0.16241 -4.83935,-0.12859 z M 61.974664,301.18238 c 1.343679,0.0474 2.684508,0.21123 3.994285,0.51701 -0.0013,1.47716 -0.01801,2.95628 0.102389,4.42993 -1.485114,-1.65121 -2.979513,-3.29516 -4.469316,-4.95219 0.124156,0.001 0.248446,0.004 0.372669,0.005 z m 260.691946,1.1416 c 0.83762,6.01444 2.99061,12.02556 7.18553,16.53091 -0.60757,0.10037 -0.54532,-0.72706 -1.03571,-0.79298 -0.32248,-0.26637 -0.35035,-0.92848 -0.92856,-0.84657 -0.10333,-0.52177 -0.31836,-0.89109 -0.81232,-0.87984 -0.0242,-0.67162 -0.45439,-0.78491 -0.80043,-1.01878 -0.0967,-0.57805 -0.59145,-0.61237 -0.80044,-1.03453 -0.1929,-0.434 -0.69596,-0.44478 -0.79781,-1.00304 -0.31641,-0.27158 -0.7566,-0.37429 -0.79781,-1.0214 -0.44685,-0.0615 -0.7505,-0.32551 -0.80043,-0.93217 -0.5838,0.10198 -0.63067,-0.53651 -0.92856,-0.82821 -0.48218,-0.0481 -0.47222,-0.7709 -0.92565,-0.85616 -0.29343,-0.29593 -0.36603,-0.89422 -0.92886,-0.82912 -0.0847,-0.55281 -0.40812,-0.81578 -0.66818,-1.1018 -2.6962,0.97031 -5.35468,2.05508 -8.11173,2.84634 1.03056,-4.02011 3.86069,-7.91402 8.06673,-8.92284 0.96346,-0.24345 1.95751,-0.35915 2.95038,-0.3753 0.0446,0.35516 0.0892,0.71033 0.13383,1.06549 z"
       inkscape:label="Outlet"
       sodipodi:nodetypes="cccccccccccccccccccccccccccccccccccccccccccccccccccccccccccccccccccccccccccccccccccccccccccccccccccccccccccccccccccccccccccccccccccccccccccccccccccccccccccccccccccccccccccccccccccccccccccccccccccccccccccccccccccccccccccccccccccccccccccccccccccccccccccccccccccccccccccccccccccccccccccccccccccccccccccccccccsccccccccccccccccss" /><path
       d="m 179.71167,405.96641 q 0,3.325 -2.415,5.32 -2.38,1.96 -6.79,1.96 -3.955,0 -7.07,-1.505 v -4.935 q 1.785,0.77 3.675,1.435 1.925,0.63 3.815,0.63 1.96,0 2.765,-0.735 0.84,-0.77 0.84,-1.925 0,-0.945 -0.665,-1.61 -0.63,-0.665 -1.715,-1.225 -1.085,-0.595 -2.485,-1.26 -0.875,-0.42 -1.89,-0.98 -1.015,-0.595 -1.96,-1.435 -0.91,-0.875 -1.505,-2.1 -0.595,-1.225 -0.595,-2.94 0,-3.36 2.275,-5.215 2.275,-1.89 6.195,-1.89 1.96,0 3.71,0.455 1.785,0.455 3.71,1.295 l -1.715,4.13 q -1.715,-0.7 -3.08,-1.085 -1.365,-0.385 -2.8,-0.385 -1.505,0 -2.31,0.7 -0.805,0.7 -0.805,1.82 0,1.33 1.19,2.1 1.19,0.77 3.535,1.89 1.925,0.91 3.255,1.89 1.365,0.98 2.1,2.31 0.735,1.33 0.735,3.29 z m 24.88502,-1.89 q 0,2.59 -1.155,4.69 -1.12,2.065 -3.43,3.29 -2.275,1.19 -5.775,1.19 -4.97,0 -7.56,-2.52 -2.59,-2.555 -2.59,-6.72 v -16.1 h 5.285 v 15.295 q 0,3.08 1.26,4.34 1.26,1.26 3.745,1.26 2.59,0 3.745,-1.365 1.19,-1.365 1.19,-4.27 v -15.26 h 5.285 z m 13.79002,-16.17 q 4.83,0 7.14,2.03 2.31,1.995 2.31,5.67 0,2.205 -0.91,4.13 -0.91,1.925 -3.045,3.115 -2.1,1.19 -5.705,1.19 h -2.275 v 8.855 h -5.355 v -24.99 z m -0.175,4.375 h -2.31 v 7.35 h 1.785 q 2.205,0 3.465,-0.875 1.295,-0.875 1.295,-2.975 0,-1.68 -1.05,-2.59 -1.015,-0.91 -3.185,-0.91 z m 28.63001,20.615 h -14.385 v -24.99 h 14.385 v 4.34 h -9.1 v 5.495 h 8.47 v 4.34 h -8.47 v 6.44 h 9.1 z m 12.70498,-24.99 q 9.765,0 9.765,7.28 0,2.555 -1.295,4.165 -1.295,1.61 -3.22,2.52 l 7.105,11.025 h -6.125 l -5.565,-9.59 h -2.975 v 9.59 h -5.355 v -24.99 z m -0.105,4.165 h -2.205 v 7.105 h 2.205 q 2.135,0 3.29,-0.875 1.155,-0.875 1.155,-2.87 0,-1.68 -1.085,-2.52 -1.05,-0.84 -3.36,-0.84 z m 26.35501,-0.07 q -3.01,0 -4.76,2.275 -1.715,2.24 -1.715,6.195 0,3.955 1.645,6.16 1.68,2.17 5.04,2.17 1.645,0 3.15,-0.385 1.54,-0.385 3.08,-0.98 v 4.55 q -2.975,1.26 -6.825,1.26 -3.99,0 -6.58,-1.575 -2.555,-1.61 -3.815,-4.48 -1.225,-2.905 -1.225,-6.755 0,-3.78 1.4,-6.685 1.4,-2.905 4.095,-4.55 2.695,-1.645 6.58,-1.645 1.855,0 3.745,0.42 1.925,0.385 3.64,1.225 l -1.75,4.27 q -1.26,-0.595 -2.695,-1.015 -1.4,-0.455 -3.01,-0.455 z m 33.56499,8.365 q 0,3.885 -1.295,6.79 -1.26,2.87 -3.885,4.48 -2.625,1.61 -6.72,1.61 -4.06,0 -6.72,-1.61 -2.625,-1.61 -3.92,-4.515 -1.26,-2.905 -1.26,-6.79 0,-3.85 1.26,-6.72 1.295,-2.905 3.92,-4.48 2.66,-1.61 6.755,-1.61 4.06,0 6.685,1.61 2.66,1.575 3.92,4.48 1.26,2.87 1.26,6.755 z m -18.165,0 q 0,3.92 1.47,6.16 1.505,2.205 4.795,2.205 3.36,0 4.795,-2.205 1.47,-2.24 1.47,-6.16 0,-3.92 -1.47,-6.16 -1.435,-2.24 -4.76,-2.24 -3.325,0 -4.83,2.24 -1.47,2.24 -1.47,6.16 z m 45.43001,12.53 h -6.72 l -10.885,-18.9 h -0.14 q 0.07,1.785 0.14,3.57 0.105,1.785 0.175,3.57 v 11.76 h -4.725 v -24.99 h 6.685 l 10.85,18.725 h 0.105 q -0.035,-1.75 -0.105,-3.465 -0.07,-1.715 -0.14,-3.43 v -11.83 h 4.76 z m 11.51499,0 h -5.215 v -24.99 h 14.315 v 4.34 h -9.1 v 6.44 h 8.47 v 4.34 h -8.47 z"
       id="text23-9"
       style="font-weight:600;font-size:35px;line-height:70px;font-family:Manrope;-inkscape-font-specification:'Manrope Semi-Bold';text-align:center;white-space:pre;fill:#e42121;fill-rule:evenodd;stroke-width:10.08;stroke-miterlimit:7.2;stroke-dashoffset:5.75998"
       inkscape:label="Red Title"
       transform="matrix(2.2980638,0,0,2.2980638,-334.71831,-602.44725)"
       aria-label="SUPERCONF" /></g></svg>
