<?xml version="1.0" encoding="UTF-8" standalone="no"?>
<!DOCTYPE svg PUBLIC "-//W3C//DTD SVG 1.1//EN"
 "http://www.w3.org/Graphics/SVG/1.1/DTD/svg11.dtd">
<!-- Generated by graphviz version 2.43.0 (0)
 -->
<!-- Title: classes_superconf Pages: 1 -->
<svg width="1927pt" height="409pt"
 viewBox="0.00 0.00 1926.50 408.80" xmlns="http://www.w3.org/2000/svg" xmlns:xlink="http://www.w3.org/1999/xlink">
<g id="graph0" class="graph" transform="scale(1 1) rotate(0) translate(4 404.8)">
<title>classes_superconf</title>
<polygon fill="white" stroke="transparent" points="-4,4 -4,-404.8 1922.5,-404.8 1922.5,4 -4,4"/>
<!-- superconf.loaders.AbstractConfigurationLoader -->
<g id="node1" class="node">
<title>superconf.loaders.AbstractConfigurationLoader</title>
<polygon fill="none" stroke="black" points="830.5,-288.5 830.5,-400.3 1186.5,-400.3 1186.5,-288.5 830.5,-288.5"/>
<text text-anchor="start" x="838.5" y="-385.1" font-family="Times,serif" font-size="14.00">superconf.loaders.AbstractConfigurationLoader</text>
<polyline fill="none" stroke="black" points="830.5,-377.3 1186.5,-377.3 "/>
<polyline fill="none" stroke="black" points="830.5,-352.5 1186.5,-352.5 "/>
<text text-anchor="start" x="931" y="-338.3" font-family="Times,serif" font-size="14.00">check()</text>
<text text-anchor="start" x="931" y="-324.3" font-family="Times,serif" font-size="14.00">contains(config, item)</text>
<text text-anchor="start" x="931" y="-310.3" font-family="Times,serif" font-size="14.00">getitem(config, item)</text>
<text text-anchor="start" x="931" y="-296.3" font-family="Times,serif" font-style="italic" font-size="14.00">reset</text>
<text text-anchor="start" x="968" y="-296.3" font-family="Times,serif" font-size="14.00">()</text>
</g>
<!-- superconf.loaders.CommandLine -->
<g id="node2" class="node">
<title>superconf.loaders.CommandLine</title>
<polygon fill="none" stroke="black" points="0,-144 0,-228 251,-228 251,-144 0,-144"/>
<text text-anchor="start" x="8" y="-212.8" font-family="Times,serif" font-size="14.00">superconf.loaders.CommandLine</text>
<polyline fill="none" stroke="black" points="0,-205 251,-205 "/>
<text text-anchor="start" x="100" y="-189.8" font-family="Times,serif" font-size="14.00">configs</text>
<text text-anchor="start" x="100" y="-174.8" font-family="Times,serif" font-size="14.00">parser</text>
<polyline fill="none" stroke="black" points="0,-167 251,-167 "/>
<text text-anchor="start" x="123" y="-151.8" font-family="Times,serif" font-size="14.00"> </text>
</g>
<!-- superconf.loaders.CommandLine&#45;&gt;superconf.loaders.AbstractConfigurationLoader -->
<g id="edge1" class="edge">
<title>superconf.loaders.CommandLine&#45;&gt;superconf.loaders.AbstractConfigurationLoader</title>
<path fill="none" stroke="black" d="M200.7,-228.12C219.45,-236.9 239.83,-245.25 259.5,-251 445.63,-305.36 666.89,-327.75 820.44,-336.97"/>
<polygon fill="none" stroke="black" points="820.27,-340.46 830.46,-337.55 820.68,-333.47 820.27,-340.46"/>
</g>
<!-- superconf.loaders.Dict -->
<g id="node3" class="node">
<title>superconf.loaders.Dict</title>
<polygon fill="none" stroke="black" points="269,-151.5 269,-220.5 446,-220.5 446,-151.5 269,-151.5"/>
<text text-anchor="start" x="277" y="-205.3" font-family="Times,serif" font-size="14.00">superconf.loaders.Dict</text>
<polyline fill="none" stroke="black" points="269,-197.5 446,-197.5 "/>
<text text-anchor="start" x="300" y="-182.3" font-family="Times,serif" font-size="14.00">values_mapping</text>
<polyline fill="none" stroke="black" points="269,-174.5 446,-174.5 "/>
<text text-anchor="start" x="355" y="-159.3" font-family="Times,serif" font-size="14.00"> </text>
</g>
<!-- superconf.loaders.Dict&#45;&gt;superconf.loaders.AbstractConfigurationLoader -->
<g id="edge2" class="edge">
<title>superconf.loaders.Dict&#45;&gt;superconf.loaders.AbstractConfigurationLoader</title>
<path fill="none" stroke="black" d="M400.26,-220.78C416.43,-232.02 435.53,-243.55 454.5,-251 571.23,-296.85 710.49,-319.95 820.19,-331.59"/>
<polygon fill="none" stroke="black" points="820.07,-335.09 830.38,-332.64 820.79,-328.13 820.07,-335.09"/>
</g>
<!-- superconf.loaders.EnvFile -->
<g id="node4" class="node">
<title>superconf.loaders.EnvFile</title>
<polygon fill="none" stroke="black" points="464,-129 464,-243 667,-243 667,-129 464,-129"/>
<text text-anchor="start" x="472" y="-227.8" font-family="Times,serif" font-size="14.00">superconf.loaders.EnvFile</text>
<polyline fill="none" stroke="black" points="464,-220 667,-220 "/>
<text text-anchor="start" x="479.5" y="-204.8" font-family="Times,serif" font-size="14.00">configs : NoneType, dict</text>
<text text-anchor="start" x="479.5" y="-189.8" font-family="Times,serif" font-size="14.00">filename : str</text>
<text text-anchor="start" x="479.5" y="-174.8" font-family="Times,serif" font-size="14.00">keyfmt</text>
<polyline fill="none" stroke="black" points="464,-167 667,-167 "/>
<text text-anchor="start" x="539.5" y="-151.8" font-family="Times,serif" font-size="14.00">check()</text>
<text text-anchor="start" x="539.5" y="-136.8" font-family="Times,serif" font-size="14.00">reset()</text>
</g>
<!-- superconf.loaders.EnvFile&#45;&gt;superconf.loaders.AbstractConfigurationLoader -->
<g id="edge3" class="edge">
<title>superconf.loaders.EnvFile&#45;&gt;superconf.loaders.AbstractConfigurationLoader</title>
<path fill="none" stroke="black" d="M657.97,-243C663.82,-245.86 669.7,-248.55 675.5,-251 721.28,-270.29 772.28,-286.77 820.33,-300.23"/>
<polygon fill="none" stroke="black" points="819.65,-303.68 830.22,-302.97 821.52,-296.93 819.65,-303.68"/>
</g>
<!-- superconf.loaders.EnvPrefix -->
<g id="node5" class="node">
<title>superconf.loaders.EnvPrefix</title>
<polygon fill="none" stroke="black" points="583.5,-0.5 583.5,-69.5 801.5,-69.5 801.5,-0.5 583.5,-0.5"/>
<text text-anchor="start" x="591.5" y="-54.3" font-family="Times,serif" font-size="14.00">superconf.loaders.EnvPrefix</text>
<polyline fill="none" stroke="black" points="583.5,-46.5 801.5,-46.5 "/>
<text text-anchor="start" x="654.5" y="-31.3" font-family="Times,serif" font-size="14.00">prefix : str</text>
<polyline fill="none" stroke="black" points="583.5,-23.5 801.5,-23.5 "/>
<text text-anchor="start" x="690" y="-8.3" font-family="Times,serif" font-size="14.00"> </text>
</g>
<!-- superconf.loaders.EnvPrefix&#45;&gt;superconf.loaders.EnvFile -->
<g id="edge9" class="edge">
<title>superconf.loaders.EnvPrefix&#45;&gt;superconf.loaders.EnvFile</title>
<path fill="none" stroke="black" d="M663.68,-69.81C651.15,-84.52 636.01,-102.27 621.42,-119.4"/>
<polygon fill="none" stroke="black" points="621.17,-119.69 620.32,-126.85 613.38,-128.82 614.23,-121.66 621.17,-119.69"/>
<text text-anchor="middle" x="673.5" y="-91.8" font-family="Times,serif" font-size="14.00" fill="green">keyfmt</text>
</g>
<!-- superconf.loaders.Environment -->
<g id="node6" class="node">
<title>superconf.loaders.Environment</title>
<polygon fill="none" stroke="black" points="685,-129 685,-243 956,-243 956,-129 685,-129"/>
<text text-anchor="start" x="708" y="-227.8" font-family="Times,serif" font-size="14.00">superconf.loaders.Environment</text>
<polyline fill="none" stroke="black" points="685,-220 956,-220 "/>
<text text-anchor="start" x="747" y="-204.8" font-family="Times,serif" font-size="14.00">keyfmt</text>
<text text-anchor="start" x="747" y="-189.8" font-family="Times,serif" font-size="14.00">prefix : Optional[str]</text>
<text text-anchor="start" x="747" y="-174.8" font-family="Times,serif" font-size="14.00">sep : str</text>
<polyline fill="none" stroke="black" points="685,-167 956,-167 "/>
<text text-anchor="start" x="693" y="-151.8" font-family="Times,serif" font-size="14.00">get_env_name(config, item: str): str</text>
<text text-anchor="start" x="693" y="-136.8" font-family="Times,serif" font-size="14.00">getitem(config, item: str)</text>
</g>
<!-- superconf.loaders.EnvPrefix&#45;&gt;superconf.loaders.Environment -->
<g id="edge10" class="edge">
<title>superconf.loaders.EnvPrefix&#45;&gt;superconf.loaders.Environment</title>
<path fill="none" stroke="black" d="M721.55,-69.81C734.18,-84.52 749.43,-102.27 764.14,-119.4"/>
<polygon fill="none" stroke="black" points="764.42,-119.72 771.36,-121.66 772.24,-128.82 765.29,-126.88 764.42,-119.72"/>
<text text-anchor="middle" x="774.5" y="-91.8" font-family="Times,serif" font-size="14.00" fill="green">keyfmt</text>
</g>
<!-- superconf.loaders.Environment&#45;&gt;superconf.loaders.AbstractConfigurationLoader -->
<g id="edge4" class="edge">
<title>superconf.loaders.Environment&#45;&gt;superconf.loaders.AbstractConfigurationLoader</title>
<path fill="none" stroke="black" d="M887.84,-243.02C902.91,-255.56 918.98,-268.93 934.32,-281.69"/>
<polygon fill="none" stroke="black" points="932.33,-284.59 942.26,-288.29 936.81,-279.21 932.33,-284.59"/>
</g>
<!-- superconf.loaders.IniFile -->
<g id="node7" class="node">
<title>superconf.loaders.IniFile</title>
<polygon fill="none" stroke="black" points="974.5,-121.5 974.5,-250.5 1168.5,-250.5 1168.5,-121.5 974.5,-121.5"/>
<text text-anchor="start" x="982.5" y="-235.3" font-family="Times,serif" font-size="14.00">superconf.loaders.IniFile</text>
<polyline fill="none" stroke="black" points="974.5,-227.5 1168.5,-227.5 "/>
<text text-anchor="start" x="995" y="-212.3" font-family="Times,serif" font-size="14.00">filename</text>
<text text-anchor="start" x="995" y="-197.3" font-family="Times,serif" font-size="14.00">keyfmt</text>
<text text-anchor="start" x="995" y="-182.3" font-family="Times,serif" font-size="14.00">parser : ConfigParser</text>
<text text-anchor="start" x="995" y="-167.3" font-family="Times,serif" font-size="14.00">section : str</text>
<polyline fill="none" stroke="black" points="974.5,-159.5 1168.5,-159.5 "/>
<text text-anchor="start" x="1045.5" y="-144.3" font-family="Times,serif" font-size="14.00">check()</text>
<text text-anchor="start" x="1045.5" y="-129.3" font-family="Times,serif" font-size="14.00">reset()</text>
</g>
<!-- superconf.loaders.IniFile&#45;&gt;superconf.loaders.AbstractConfigurationLoader -->
<g id="edge5" class="edge">
<title>superconf.loaders.IniFile&#45;&gt;superconf.loaders.AbstractConfigurationLoader</title>
<path fill="none" stroke="black" d="M1045.88,-250.61C1042.09,-260 1038.2,-269.68 1034.41,-279.08"/>
<polygon fill="none" stroke="black" points="1031.16,-277.79 1030.67,-288.37 1037.65,-280.4 1031.16,-277.79"/>
</g>
<!-- superconf.loaders.RecursiveSearch -->
<g id="node8" class="node">
<title>superconf.loaders.RecursiveSearch</title>
<polygon fill="none" stroke="black" points="1186.5,-121.5 1186.5,-250.5 1454.5,-250.5 1454.5,-121.5 1186.5,-121.5"/>
<text text-anchor="start" x="1194.5" y="-235.3" font-family="Times,serif" font-size="14.00">superconf.loaders.RecursiveSearch</text>
<polyline fill="none" stroke="black" points="1186.5,-227.5 1454.5,-227.5 "/>
<text text-anchor="start" x="1245" y="-212.3" font-family="Times,serif" font-size="14.00">config_files</text>
<text text-anchor="start" x="1245" y="-197.3" font-family="Times,serif" font-size="14.00">filetypes : tuple</text>
<text text-anchor="start" x="1245" y="-182.3" font-family="Times,serif" font-size="14.00">root_path : bytes, str</text>
<text text-anchor="start" x="1245" y="-167.3" font-family="Times,serif" font-size="14.00">starting_path</text>
<polyline fill="none" stroke="black" points="1186.5,-159.5 1454.5,-159.5 "/>
<text text-anchor="start" x="1215" y="-144.3" font-family="Times,serif" font-size="14.00">get_filenames(path, patterns)</text>
<text text-anchor="start" x="1215" y="-129.3" font-family="Times,serif" font-size="14.00">reset()</text>
</g>
<!-- superconf.loaders.RecursiveSearch&#45;&gt;superconf.loaders.AbstractConfigurationLoader -->
<g id="edge6" class="edge">
<title>superconf.loaders.RecursiveSearch&#45;&gt;superconf.loaders.AbstractConfigurationLoader</title>
<path fill="none" stroke="black" d="M1193.6,-250.61C1171.75,-261.57 1149.11,-272.91 1127.48,-283.76"/>
<polygon fill="none" stroke="black" points="1125.65,-280.76 1118.28,-288.37 1128.79,-287.02 1125.65,-280.76"/>
</g>
<!-- superconf.loaders._Value -->
<g id="node9" class="node">
<title>superconf.loaders._Value</title>
<polygon fill="none" stroke="black" points="1472.5,-151.5 1472.5,-220.5 1686.5,-220.5 1686.5,-151.5 1472.5,-151.5"/>
<text text-anchor="start" x="1490.5" y="-205.3" font-family="Times,serif" font-size="14.00">superconf.loaders._Value</text>
<polyline fill="none" stroke="black" points="1472.5,-197.5 1686.5,-197.5 "/>
<text text-anchor="start" x="1490" y="-182.3" font-family="Times,serif" font-size="14.00">values_mapping : NotSet</text>
<polyline fill="none" stroke="black" points="1472.5,-174.5 1686.5,-174.5 "/>
<text text-anchor="start" x="1480.5" y="-159.3" font-family="Times,serif" font-size="14.00">getitem(config, item, value)</text>
</g>
<!-- superconf.loaders._Value&#45;&gt;superconf.loaders.AbstractConfigurationLoader -->
<g id="edge7" class="edge">
<title>superconf.loaders._Value&#45;&gt;superconf.loaders.AbstractConfigurationLoader</title>
<path fill="none" stroke="black" d="M1526.53,-220.66C1507.29,-231.68 1484.98,-243.1 1463.5,-251 1378.35,-282.3 1280.12,-303.94 1196.78,-318.36"/>
<polygon fill="none" stroke="black" points="1195.96,-314.95 1186.69,-320.08 1197.14,-321.85 1195.96,-314.95"/>
</g>
<!-- superconf.loaders._Value22 -->
<g id="node10" class="node">
<title>superconf.loaders._Value22</title>
<polygon fill="none" stroke="black" points="1704.5,-151.5 1704.5,-220.5 1918.5,-220.5 1918.5,-151.5 1704.5,-151.5"/>
<text text-anchor="start" x="1713.5" y="-205.3" font-family="Times,serif" font-size="14.00">superconf.loaders._Value22</text>
<polyline fill="none" stroke="black" points="1704.5,-197.5 1918.5,-197.5 "/>
<text text-anchor="start" x="1754" y="-182.3" font-family="Times,serif" font-size="14.00">values_mapping</text>
<polyline fill="none" stroke="black" points="1704.5,-174.5 1918.5,-174.5 "/>
<text text-anchor="start" x="1712.5" y="-159.3" font-family="Times,serif" font-size="14.00">getitem(config, item, value)</text>
</g>
<!-- superconf.loaders._Value22&#45;&gt;superconf.loaders.AbstractConfigurationLoader -->
<g id="edge8" class="edge">
<title>superconf.loaders._Value22&#45;&gt;superconf.loaders.AbstractConfigurationLoader</title>
<path fill="none" stroke="black" d="M1760.26,-220.63C1740.72,-231.99 1717.78,-243.64 1695.5,-251 1532.15,-304.94 1337.02,-327.45 1196.54,-336.81"/>
<polygon fill="none" stroke="black" points="1196.27,-333.32 1186.52,-337.47 1196.73,-340.31 1196.27,-333.32"/>
</g>
</g>
</svg>
