<?xml version="1.0" encoding="UTF-8" standalone="no"?>
<!DOCTYPE svg PUBLIC "-//W3C//DTD SVG 1.1//EN"
 "http://www.w3.org/Graphics/SVG/1.1/DTD/svg11.dtd">
<!-- Generated by graphviz version 2.43.0 (0)
 -->
<!-- Title: packages_superconf Pages: 1 -->
<svg width="721pt" height="332pt"
 viewBox="0.00 0.00 721.37 332.00" xmlns="http://www.w3.org/2000/svg" xmlns:xlink="http://www.w3.org/1999/xlink">
<g id="graph0" class="graph" transform="scale(1 1) rotate(0) translate(4 328)">
<title>packages_superconf</title>
<polygon fill="white" stroke="transparent" points="-4,4 -4,-328 717.37,-328 717.37,4 -4,4"/>
<!-- superconf -->
<g id="node1" class="node">
<title>superconf</title>
<polygon fill="none" stroke="black" points="486.87,-252 399.87,-252 399.87,-216 486.87,-216 486.87,-252"/>
<text text-anchor="middle" x="443.37" y="-230.3" font-family="Times,serif" font-size="14.00">superconf</text>
</g>
<!-- superconf.anchors -->
<g id="node2" class="node">
<title>superconf.anchors</title>
<polygon fill="none" stroke="black" points="566.87,-36 419.87,-36 419.87,0 566.87,0 566.87,-36"/>
<text text-anchor="middle" x="493.37" y="-14.3" font-family="Times,serif" font-size="14.00">superconf.anchors</text>
</g>
<!-- superconf.casts -->
<g id="node3" class="node">
<title>superconf.casts</title>
<polygon fill="none" stroke="black" points="143.37,-252 15.37,-252 15.37,-216 143.37,-216 143.37,-252"/>
<text text-anchor="middle" x="79.37" y="-230.3" font-family="Times,serif" font-size="14.00">superconf.casts</text>
</g>
<!-- superconf.common -->
<g id="node4" class="node">
<title>superconf.common</title>
<polygon fill="none" stroke="black" points="507.87,-324 356.87,-324 356.87,-288 507.87,-288 507.87,-324"/>
<text text-anchor="middle" x="432.37" y="-302.3" font-family="Times,serif" font-size="14.00">superconf.common</text>
</g>
<!-- superconf.casts&#45;&gt;superconf.common -->
<g id="edge1" class="edge">
<title>superconf.casts&#45;&gt;superconf.common</title>
<path fill="none" stroke="black" d="M143.55,-247.65C195.51,-257.9 270.9,-272.8 346.63,-287.85"/>
<polygon fill="black" stroke="black" points="356.83,-289.88 346.15,-292.35 351.93,-288.91 347.02,-287.93 347.02,-287.93 347.02,-287.93 351.93,-288.91 347.9,-283.52 356.83,-289.88 356.83,-289.88"/>
</g>
<!-- superconf.exceptions -->
<g id="node6" class="node">
<title>superconf.exceptions</title>
<polygon fill="none" stroke="black" points="171.87,-324 4.87,-324 4.87,-288 171.87,-288 171.87,-324"/>
<text text-anchor="middle" x="88.37" y="-302.3" font-family="Times,serif" font-size="14.00">superconf.exceptions</text>
</g>
<!-- superconf.casts&#45;&gt;superconf.exceptions -->
<g id="edge2" class="edge">
<title>superconf.casts&#45;&gt;superconf.exceptions</title>
<path fill="none" stroke="black" d="M81.6,-252.3C82.59,-260.02 83.78,-269.29 84.89,-277.89"/>
<polygon fill="black" stroke="black" points="86.17,-287.9 80.44,-278.55 85.54,-282.94 84.9,-277.98 84.9,-277.98 84.9,-277.98 85.54,-282.94 89.36,-277.4 86.17,-287.9 86.17,-287.9"/>
</g>
<!-- superconf.configuration -->
<g id="node5" class="node">
<title>superconf.configuration</title>
<polygon fill="none" stroke="black" points="474.87,-108 289.87,-108 289.87,-72 474.87,-72 474.87,-108"/>
<text text-anchor="middle" x="382.37" y="-86.3" font-family="Times,serif" font-size="14.00">superconf.configuration</text>
</g>
<!-- superconf.configuration&#45;&gt;superconf -->
<g id="edge3" class="edge">
<title>superconf.configuration&#45;&gt;superconf</title>
<path fill="none" stroke="black" d="M389.73,-108.13C400.22,-132.54 419.56,-177.57 431.93,-206.36"/>
<polygon fill="black" stroke="black" points="435.99,-215.81 427.91,-208.4 434.02,-211.22 432.04,-206.62 432.04,-206.62 432.04,-206.62 434.02,-211.22 436.18,-204.85 435.99,-215.81 435.99,-215.81"/>
</g>
<!-- superconf.configuration&#45;&gt;superconf.common -->
<g id="edge4" class="edge">
<title>superconf.configuration&#45;&gt;superconf.common</title>
<path fill="none" stroke="black" d="M406.22,-108.08C433.98,-129.6 478.33,-169.44 496.37,-216 502.15,-230.92 503.18,-237.52 496.37,-252 490.85,-263.74 481.31,-273.78 471.25,-281.85"/>
<polygon fill="black" stroke="black" points="463.14,-287.91 468.46,-278.32 467.15,-284.92 471.16,-281.93 471.16,-281.93 471.16,-281.93 467.15,-284.92 473.85,-285.53 463.14,-287.91 463.14,-287.91"/>
</g>
<!-- superconf.configuration&#45;&gt;superconf.exceptions -->
<g id="edge5" class="edge">
<title>superconf.configuration&#45;&gt;superconf.exceptions</title>
<path fill="none" stroke="black" d="M289.82,-92.36C200.21,-99.28 68.99,-125.48 6.37,-216 -2.73,-229.16 -1.28,-237.95 6.37,-252 13.29,-264.7 24.7,-274.82 36.84,-282.67"/>
<polygon fill="black" stroke="black" points="45.75,-287.99 34.86,-286.73 41.46,-285.43 37.17,-282.87 37.17,-282.87 37.17,-282.87 41.46,-285.43 39.47,-279 45.75,-287.99 45.75,-287.99"/>
</g>
<!-- superconf.fields -->
<g id="node9" class="node">
<title>superconf.fields</title>
<polygon fill="none" stroke="black" points="335.87,-180 206.87,-180 206.87,-144 335.87,-144 335.87,-180"/>
<text text-anchor="middle" x="271.37" y="-158.3" font-family="Times,serif" font-size="14.00">superconf.fields</text>
</g>
<!-- superconf.configuration&#45;&gt;superconf.fields -->
<g id="edge6" class="edge">
<title>superconf.configuration&#45;&gt;superconf.fields</title>
<path fill="none" stroke="black" d="M355.22,-108.12C340.84,-117.19 322.99,-128.45 307.46,-138.24"/>
<polygon fill="black" stroke="black" points="298.63,-143.81 304.69,-134.67 302.86,-141.14 307.09,-138.48 307.09,-138.48 307.09,-138.48 302.86,-141.14 309.49,-142.28 298.63,-143.81 298.63,-143.81"/>
</g>
<!-- superconf.loaders -->
<g id="node10" class="node">
<title>superconf.loaders</title>
<polygon fill="none" stroke="black" points="342.87,-252 199.87,-252 199.87,-216 342.87,-216 342.87,-252"/>
<text text-anchor="middle" x="271.37" y="-230.3" font-family="Times,serif" font-size="14.00">superconf.loaders</text>
</g>
<!-- superconf.configuration&#45;&gt;superconf.loaders -->
<g id="edge7" class="edge">
<title>superconf.configuration&#45;&gt;superconf.loaders</title>
<path fill="none" stroke="black" d="M378.03,-108.18C372.58,-127.25 361.76,-158.19 344.37,-180 335.1,-191.63 322.66,-201.92 310.69,-210.27"/>
<polygon fill="black" stroke="black" points="302.1,-216 307.92,-206.71 306.26,-213.22 310.42,-210.45 310.42,-210.45 310.42,-210.45 306.26,-213.22 312.91,-214.19 302.1,-216 302.1,-216"/>
</g>
<!-- superconf.extra -->
<g id="node7" class="node">
<title>superconf.extra</title>
<polygon fill="none" stroke="black" points="713.37,-36 585.37,-36 585.37,0 713.37,0 713.37,-36"/>
<text text-anchor="middle" x="649.37" y="-14.3" font-family="Times,serif" font-size="14.00">superconf.extra</text>
</g>
<!-- superconf.extra.xdg -->
<g id="node8" class="node">
<title>superconf.extra.xdg</title>
<polygon fill="none" stroke="black" points="401.87,-36 242.87,-36 242.87,0 401.87,0 401.87,-36"/>
<text text-anchor="middle" x="322.37" y="-14.3" font-family="Times,serif" font-size="14.00">superconf.extra.xdg</text>
</g>
<!-- superconf.extra.xdg&#45;&gt;superconf.casts -->
<g id="edge8" class="edge">
<title>superconf.extra.xdg&#45;&gt;superconf.casts</title>
<path fill="none" stroke="black" d="M302.9,-36.15C259.8,-74.11 156.25,-165.3 106.69,-208.94"/>
<polygon fill="black" stroke="black" points="98.94,-215.77 103.47,-205.78 102.69,-212.46 106.45,-209.16 106.45,-209.16 106.45,-209.16 102.69,-212.46 109.42,-212.54 98.94,-215.77 98.94,-215.77"/>
</g>
<!-- superconf.extra.xdg&#45;&gt;superconf.common -->
<g id="edge9" class="edge">
<title>superconf.extra.xdg&#45;&gt;superconf.common</title>
<path fill="none" stroke="black" d="M397.86,-36.09C433.73,-45.7 471.36,-58.46 483.37,-72 537.15,-132.61 550.71,-180.61 512.37,-252 505.59,-264.64 494.31,-274.77 482.34,-282.65"/>
<polygon fill="black" stroke="black" points="473.56,-288 479.76,-278.96 477.83,-285.4 482.1,-282.8 482.1,-282.8 482.1,-282.8 477.83,-285.4 484.44,-286.64 473.56,-288 473.56,-288"/>
</g>
<!-- superconf.extra.xdg&#45;&gt;superconf.configuration -->
<g id="edge10" class="edge">
<title>superconf.extra.xdg&#45;&gt;superconf.configuration</title>
<path fill="none" stroke="black" d="M337.2,-36.3C344.4,-44.7 353.17,-54.93 361.06,-64.14"/>
<polygon fill="black" stroke="black" points="367.71,-71.9 357.79,-67.23 364.46,-68.1 361.2,-64.3 361.2,-64.3 361.2,-64.3 364.46,-68.1 364.62,-61.37 367.71,-71.9 367.71,-71.9"/>
</g>
<!-- superconf.extra.xdg&#45;&gt;superconf.fields -->
<g id="edge11" class="edge">
<title>superconf.extra.xdg&#45;&gt;superconf.fields</title>
<path fill="none" stroke="black" d="M305.23,-36.08C296.58,-45.78 286.79,-58.63 281.37,-72 273.4,-91.66 271.09,-115.65 270.66,-133.77"/>
<polygon fill="black" stroke="black" points="270.61,-143.93 266.16,-133.91 270.63,-138.93 270.66,-133.93 270.66,-133.93 270.66,-133.93 270.63,-138.93 275.16,-133.96 270.61,-143.93 270.61,-143.93"/>
</g>
<!-- superconf.fields&#45;&gt;superconf -->
<g id="edge12" class="edge">
<title>superconf.fields&#45;&gt;superconf</title>
<path fill="none" stroke="black" d="M313.45,-180.12C337.17,-189.78 366.99,-201.91 392.07,-212.12"/>
<polygon fill="black" stroke="black" points="401.43,-215.93 390.47,-216.33 396.8,-214.05 392.17,-212.16 392.17,-212.16 392.17,-212.16 396.8,-214.05 393.87,-207.99 401.43,-215.93 401.43,-215.93"/>
</g>
<!-- superconf.fields&#45;&gt;superconf.casts -->
<g id="edge13" class="edge">
<title>superconf.fields&#45;&gt;superconf.casts</title>
<path fill="none" stroke="black" d="M224.4,-180.12C197.69,-189.86 164.05,-202.13 135.9,-212.39"/>
<polygon fill="black" stroke="black" points="126.19,-215.93 134.04,-208.28 130.89,-214.22 135.58,-212.51 135.58,-212.51 135.58,-212.51 130.89,-214.22 137.13,-216.73 126.19,-215.93 126.19,-215.93"/>
</g>
<!-- superconf.fields&#45;&gt;superconf.common -->
<g id="edge14" class="edge">
<title>superconf.fields&#45;&gt;superconf.common</title>
<path fill="none" stroke="black" d="M300.74,-180.02C316.43,-189.7 335.69,-202.55 351.37,-216 374.17,-235.55 396.9,-261.2 412.45,-279.94"/>
<polygon fill="black" stroke="black" points="418.86,-287.76 409.05,-282.88 415.7,-283.9 412.53,-280.03 412.53,-280.03 412.53,-280.03 415.7,-283.9 416.01,-277.18 418.86,-287.76 418.86,-287.76"/>
</g>
<!-- superconf.fields&#45;&gt;superconf.exceptions -->
<g id="edge15" class="edge">
<title>superconf.fields&#45;&gt;superconf.exceptions</title>
<path fill="none" stroke="black" d="M242.4,-180.2C226.55,-190.03 206.85,-202.97 190.37,-216 172.12,-230.43 169.79,-236.57 152.37,-252 141.27,-261.83 128.77,-272.32 117.78,-281.34"/>
<polygon fill="black" stroke="black" points="109.71,-287.92 114.61,-278.11 113.59,-284.76 117.46,-281.6 117.46,-281.6 117.46,-281.6 113.59,-284.76 120.31,-285.08 109.71,-287.92 109.71,-287.92"/>
</g>
<!-- superconf.fields&#45;&gt;superconf.loaders -->
<g id="edge16" class="edge">
<title>superconf.fields&#45;&gt;superconf.loaders</title>
<path fill="none" stroke="black" d="M271.37,-180.3C271.37,-188.02 271.37,-197.29 271.37,-205.89"/>
<polygon fill="black" stroke="black" points="271.37,-215.9 266.87,-205.9 271.37,-210.9 271.37,-205.9 271.37,-205.9 271.37,-205.9 271.37,-210.9 275.87,-205.9 271.37,-215.9 271.37,-215.9"/>
</g>
<!-- superconf.loaders&#45;&gt;superconf.common -->
<g id="edge17" class="edge">
<title>superconf.loaders&#45;&gt;superconf.common</title>
<path fill="none" stroke="black" d="M310.76,-252.12C332.77,-261.69 360.38,-273.7 383.73,-283.85"/>
<polygon fill="black" stroke="black" points="393.12,-287.93 382.15,-288.07 388.53,-285.94 383.94,-283.94 383.94,-283.94 383.94,-283.94 388.53,-285.94 385.74,-279.82 393.12,-287.93 393.12,-287.93"/>
</g>
<!-- superconf.loaders&#45;&gt;superconf.exceptions -->
<g id="edge18" class="edge">
<title>superconf.loaders&#45;&gt;superconf.exceptions</title>
<path fill="none" stroke="black" d="M226.61,-252.12C201.26,-261.82 169.36,-274.02 142.6,-284.26"/>
<polygon fill="black" stroke="black" points="132.99,-287.93 140.73,-280.16 137.66,-286.15 142.33,-284.36 142.33,-284.36 142.33,-284.36 137.66,-286.15 143.94,-288.56 132.99,-287.93 132.99,-287.93"/>
</g>
<!-- superconf.parsers -->
<g id="node11" class="node">
<title>superconf.parsers</title>
<polygon fill="none" stroke="black" points="338.87,-324 193.87,-324 193.87,-288 338.87,-288 338.87,-324"/>
<text text-anchor="middle" x="266.37" y="-302.3" font-family="Times,serif" font-size="14.00">superconf.parsers</text>
</g>
<!-- superconf.loaders&#45;&gt;superconf.parsers -->
<g id="edge19" class="edge">
<title>superconf.loaders&#45;&gt;superconf.parsers</title>
<path fill="none" stroke="black" d="M270.14,-252.3C269.59,-260.02 268.92,-269.29 268.31,-277.89"/>
<polygon fill="black" stroke="black" points="267.59,-287.9 263.82,-277.6 267.95,-282.91 268.31,-277.92 268.31,-277.92 268.31,-277.92 267.95,-282.91 272.8,-278.24 267.59,-287.9 267.59,-287.9"/>
</g>
</g>
</svg>
