<?xml version="1.0" encoding="UTF-8" standalone="no"?>
<!DOCTYPE svg PUBLIC "-//W3C//DTD SVG 1.1//EN"
 "http://www.w3.org/Graphics/SVG/1.1/DTD/svg11.dtd">
<!-- Generated by graphviz version 2.43.0 (0)
 -->
<!-- Title: classes_superconf Pages: 1 -->
<svg width="925pt" height="1441pt"
 viewBox="0.00 0.00 925.00 1441.00" xmlns="http://www.w3.org/2000/svg" xmlns:xlink="http://www.w3.org/1999/xlink">
<g id="graph0" class="graph" transform="scale(1 1) rotate(0) translate(4 1437)">
<title>classes_superconf</title>
<polygon fill="white" stroke="transparent" points="-4,4 -4,-1437 921,-1437 921,4 -4,4"/>
<!-- superconf.casts.AbstractCast -->
<g id="node1" class="node">
<title>superconf.casts.AbstractCast</title>
<polygon fill="none" stroke="black" points="43,-751.6 43,-822.4 268,-822.4 268,-751.6 43,-751.6"/>
<text text-anchor="start" x="51" y="-807.2" font-family="Times,serif" font-size="14.00">superconf.casts.AbstractCast</text>
<polyline fill="none" stroke="black" points="43,-799.4 268,-799.4 "/>
<polyline fill="none" stroke="black" points="43,-774.6 268,-774.6 "/>
<text text-anchor="start" x="153" y="-759.4" font-family="Times,serif" font-size="14.00"> </text>
</g>
<!-- superconf.casts.AsList -->
<g id="node2" class="node">
<title>superconf.casts.AsList</title>
<polygon fill="none" stroke="black" points="67.5,-459 67.5,-543 243.5,-543 243.5,-459 67.5,-459"/>
<text text-anchor="start" x="75.5" y="-527.8" font-family="Times,serif" font-size="14.00">superconf.casts.AsList</text>
<polyline fill="none" stroke="black" points="67.5,-520 243.5,-520 "/>
<text text-anchor="start" x="105.5" y="-504.8" font-family="Times,serif" font-size="14.00">delimiter : str</text>
<text text-anchor="start" x="105.5" y="-489.8" font-family="Times,serif" font-size="14.00">quotes : str</text>
<polyline fill="none" stroke="black" points="67.5,-482 243.5,-482 "/>
<text text-anchor="start" x="102" y="-466.8" font-family="Times,serif" font-size="14.00">cast(sequence)</text>
</g>
<!-- superconf.casts.AsList&#45;&gt;superconf.casts.AbstractCast -->
<g id="edge1" class="edge">
<title>superconf.casts.AsList&#45;&gt;superconf.casts.AbstractCast</title>
<path fill="none" stroke="black" d="M155.5,-543.3C155.5,-596.05 155.5,-687 155.5,-741.33"/>
<polygon fill="none" stroke="black" points="152,-741.35 155.5,-751.35 159,-741.35 152,-741.35"/>
</g>
<!-- superconf.configuration.ConfigurationDict -->
<g id="node3" class="node">
<title>superconf.configuration.ConfigurationDict</title>
<polygon fill="none" stroke="black" points="322,-948.5 322,-1062.5 639,-1062.5 639,-948.5 322,-948.5"/>
<text text-anchor="start" x="330" y="-1047.3" font-family="Times,serif" font-size="14.00">superconf.configuration.ConfigurationDict</text>
<polyline fill="none" stroke="black" points="322,-1039.5 639,-1039.5 "/>
<text text-anchor="start" x="392.5" y="-1024.3" font-family="Times,serif" font-size="14.00">meta__cache : bool</text>
<text text-anchor="start" x="392.5" y="-1009.3" font-family="Times,serif" font-size="14.00">meta__extra_fields : bool</text>
<text text-anchor="start" x="392.5" y="-994.3" font-family="Times,serif" font-size="14.00">meta__loaders : list</text>
<text text-anchor="start" x="392.5" y="-979.3" font-family="Times,serif" font-size="14.00">meta__strict_cast : bool</text>
<polyline fill="none" stroke="black" points="322,-971.5 639,-971.5 "/>
<text text-anchor="start" x="396" y="-956.3" font-family="Times,serif" font-size="14.00">set_dyn_children(value)</text>
</g>
<!-- superconf.configuration.Store -->
<g id="node5" class="node">
<title>superconf.configuration.Store</title>
<polygon fill="none" stroke="black" points="353.5,-1099.5 353.5,-1281.5 607.5,-1281.5 607.5,-1099.5 353.5,-1099.5"/>
<text text-anchor="start" x="374" y="-1266.3" font-family="Times,serif" font-size="14.00">superconf.configuration.Store</text>
<polyline fill="none" stroke="black" points="353.5,-1258.5 607.5,-1258.5 "/>
<text text-anchor="start" x="427" y="-1243.3" font-family="Times,serif" font-size="14.00">cast</text>
<text text-anchor="start" x="427" y="-1228.3" font-family="Times,serif" font-size="14.00">declared_fields</text>
<text text-anchor="start" x="427" y="-1213.3" font-family="Times,serif" font-size="14.00">default</text>
<polyline fill="none" stroke="black" points="353.5,-1205.5 607.5,-1205.5 "/>
<text text-anchor="start" x="361.5" y="-1191.3" font-family="Times,serif" font-size="14.00">create_child(key, field, value)</text>
<text text-anchor="start" x="361.5" y="-1177.3" font-family="Times,serif" font-size="14.00">get_field_value(key, field, default)</text>
<text text-anchor="start" x="361.5" y="-1163.3" font-family="Times,serif" font-size="14.00">get_value(key, lvl)</text>
<text text-anchor="start" x="361.5" y="-1149.3" font-family="Times,serif" font-size="14.00">get_values(lvl)</text>
<text text-anchor="start" x="361.5" y="-1135.3" font-family="Times,serif" font-size="14.00">reset()</text>
<text text-anchor="start" x="361.5" y="-1121.3" font-family="Times,serif" font-style="italic" font-size="14.00">set_dyn_children</text>
<text text-anchor="start" x="482.5" y="-1121.3" font-family="Times,serif" font-size="14.00">(value)</text>
<text text-anchor="start" x="361.5" y="-1107.3" font-family="Times,serif" font-size="14.00">set_values(value, lookup)</text>
</g>
<!-- superconf.configuration.ConfigurationDict&#45;&gt;superconf.configuration.Store -->
<g id="edge2" class="edge">
<title>superconf.configuration.ConfigurationDict&#45;&gt;superconf.configuration.Store</title>
<path fill="none" stroke="black" d="M480.5,-1062.9C480.5,-1071.29 480.5,-1080.15 480.5,-1089.12"/>
<polygon fill="none" stroke="black" points="477,-1089.28 480.5,-1099.28 484,-1089.28 477,-1089.28"/>
</g>
<!-- superconf.configuration.Node -->
<g id="node4" class="node">
<title>superconf.configuration.Node</title>
<polygon fill="none" stroke="black" points="224,-1318.5 224,-1432.5 737,-1432.5 737,-1318.5 224,-1318.5"/>
<text text-anchor="start" x="375" y="-1417.3" font-family="Times,serif" font-size="14.00">superconf.configuration.Node</text>
<polyline fill="none" stroke="black" points="224,-1409.5 737,-1409.5 "/>
<text text-anchor="start" x="425" y="-1394.3" font-family="Times,serif" font-size="14.00">key : NoneType</text>
<polyline fill="none" stroke="black" points="224,-1386.5 737,-1386.5 "/>
<text text-anchor="start" x="232" y="-1371.3" font-family="Times,serif" font-size="14.00">get_hierarchy()</text>
<text text-anchor="start" x="232" y="-1356.3" font-family="Times,serif" font-size="14.00">query_cfg(name, include_self, report)</text>
<text text-anchor="start" x="232" y="-1341.3" font-family="Times,serif" font-size="14.00">query_inst_cfg()</text>
<text text-anchor="start" x="232" y="-1326.3" font-family="Times,serif" font-size="14.00">query_parent_cfg(name, as_subkey, cast, default, include_self, report)</text>
</g>
<!-- superconf.configuration.Store&#45;&gt;superconf.configuration.Node -->
<g id="edge3" class="edge">
<title>superconf.configuration.Store&#45;&gt;superconf.configuration.Node</title>
<path fill="none" stroke="black" d="M480.5,-1281.66C480.5,-1290.67 480.5,-1299.7 480.5,-1308.4"/>
<polygon fill="none" stroke="black" points="477,-1308.44 480.5,-1318.44 484,-1308.44 477,-1308.44"/>
</g>
<!-- superconf.extra.xdg.CastEnvColonValues -->
<g id="node6" class="node">
<title>superconf.extra.xdg.CastEnvColonValues</title>
<polygon fill="none" stroke="black" points="0,-135.5 0,-204.5 311,-204.5 311,-135.5 0,-135.5"/>
<text text-anchor="start" x="8" y="-189.3" font-family="Times,serif" font-size="14.00">superconf.extra.xdg.CastEnvColonValues</text>
<polyline fill="none" stroke="black" points="0,-181.5 311,-181.5 "/>
<text text-anchor="start" x="97" y="-166.3" font-family="Times,serif" font-size="14.00">as_best : AsBest</text>
<polyline fill="none" stroke="black" points="0,-158.5 311,-158.5 "/>
<text text-anchor="start" x="153" y="-143.3" font-family="Times,serif" font-size="14.00"> </text>
</g>
<!-- superconf.extra.xdg.CastEnvColonValues&#45;&gt;superconf.casts.AsList -->
<g id="edge4" class="edge">
<title>superconf.extra.xdg.CastEnvColonValues&#45;&gt;superconf.casts.AsList</title>
<path fill="none" stroke="black" d="M155.5,-204.66C155.5,-262.46 155.5,-380.88 155.5,-448.9"/>
<polygon fill="none" stroke="black" points="152,-448.97 155.5,-458.97 159,-448.97 152,-448.97"/>
</g>
<!-- superconf.extra.xdg.ExtraConfig -->
<g id="node7" class="node">
<title>superconf.extra.xdg.ExtraConfig</title>
<polygon fill="none" stroke="black" points="329.5,-0.5 329.5,-339.5 631.5,-339.5 631.5,-0.5 329.5,-0.5"/>
<text text-anchor="start" x="364" y="-324.3" font-family="Times,serif" font-size="14.00">superconf.extra.xdg.ExtraConfig</text>
<polyline fill="none" stroke="black" points="329.5,-316.5 631.5,-316.5 "/>
<text text-anchor="start" x="337.5" y="-301.3" font-family="Times,serif" font-size="14.00">DBUS_SESSION_BUS_ADDRESS : Field</text>
<text text-anchor="start" x="337.5" y="-286.3" font-family="Times,serif" font-size="14.00">DESKTOP_SESSION : Field</text>
<text text-anchor="start" x="337.5" y="-271.3" font-family="Times,serif" font-size="14.00">GIT_AUTHOR_EMAIL : Field</text>
<text text-anchor="start" x="337.5" y="-256.3" font-family="Times,serif" font-size="14.00">GIT_AUTHOR_NAME : Field</text>
<text text-anchor="start" x="337.5" y="-241.3" font-family="Times,serif" font-size="14.00">GIT_COMMITTER_EMAIL : Field</text>
<text text-anchor="start" x="337.5" y="-226.3" font-family="Times,serif" font-size="14.00">GIT_COMMITTER_NAME : Field</text>
<text text-anchor="start" x="337.5" y="-211.3" font-family="Times,serif" font-size="14.00">GNUPGHOME : Field</text>
<text text-anchor="start" x="337.5" y="-196.3" font-family="Times,serif" font-size="14.00">LOGNAME : Field</text>
<text text-anchor="start" x="337.5" y="-181.3" font-family="Times,serif" font-size="14.00">SSH_AGENT_PID : Field</text>
<text text-anchor="start" x="337.5" y="-166.3" font-family="Times,serif" font-size="14.00">SSH_AUTH_SOCK : Field</text>
<text text-anchor="start" x="337.5" y="-151.3" font-family="Times,serif" font-size="14.00">TERM : Field</text>
<text text-anchor="start" x="337.5" y="-136.3" font-family="Times,serif" font-size="14.00">VIRTUAL_ENV : Field</text>
<text text-anchor="start" x="337.5" y="-121.3" font-family="Times,serif" font-size="14.00">XDG_SEAT : Field</text>
<text text-anchor="start" x="337.5" y="-106.3" font-family="Times,serif" font-size="14.00">XDG_SEAT_PATH : Field</text>
<text text-anchor="start" x="337.5" y="-91.3" font-family="Times,serif" font-size="14.00">XDG_SESSION_CLASS : Field</text>
<text text-anchor="start" x="337.5" y="-76.3" font-family="Times,serif" font-size="14.00">XDG_SESSION_DESKTOP : Field</text>
<text text-anchor="start" x="337.5" y="-61.3" font-family="Times,serif" font-size="14.00">XDG_SESSION_ID : Field</text>
<text text-anchor="start" x="337.5" y="-46.3" font-family="Times,serif" font-size="14.00">XDG_SESSION_PATH : Field</text>
<text text-anchor="start" x="337.5" y="-31.3" font-family="Times,serif" font-size="14.00">XDG_SESSION_TYPE : Field</text>
<polyline fill="none" stroke="black" points="329.5,-23.5 631.5,-23.5 "/>
<text text-anchor="start" x="478" y="-8.3" font-family="Times,serif" font-size="14.00"> </text>
</g>
<!-- superconf.extra.xdg.XDGConfig -->
<g id="node9" class="node">
<title>superconf.extra.xdg.XDGConfig</title>
<polygon fill="none" stroke="black" points="352.5,-376.5 352.5,-625.5 608.5,-625.5 608.5,-376.5 352.5,-376.5"/>
<text text-anchor="start" x="367.5" y="-610.3" font-family="Times,serif" font-size="14.00">superconf.extra.xdg.XDGConfig</text>
<polyline fill="none" stroke="black" points="352.5,-602.5 608.5,-602.5 "/>
<text text-anchor="start" x="378.5" y="-587.3" font-family="Times,serif" font-size="14.00">XDG_CACHE_HOME : Field</text>
<text text-anchor="start" x="378.5" y="-572.3" font-family="Times,serif" font-size="14.00">XDG_CONFIG_DIRS : Field</text>
<text text-anchor="start" x="378.5" y="-557.3" font-family="Times,serif" font-size="14.00">XDG_CONFIG_HOME : Field</text>
<text text-anchor="start" x="378.5" y="-542.3" font-family="Times,serif" font-size="14.00">XDG_DATA_DIRS : Field</text>
<text text-anchor="start" x="378.5" y="-527.3" font-family="Times,serif" font-size="14.00">XDG_DATA_HOME : Field</text>
<text text-anchor="start" x="378.5" y="-512.3" font-family="Times,serif" font-size="14.00">XDG_RUNTIME_DIR : Field</text>
<text text-anchor="start" x="378.5" y="-497.3" font-family="Times,serif" font-size="14.00">XDG_STATE_HOME : Field</text>
<text text-anchor="start" x="378.5" y="-482.3" font-family="Times,serif" font-size="14.00">meta__xdg_file_fmt : list</text>
<polyline fill="none" stroke="black" points="352.5,-474.5 608.5,-474.5 "/>
<text text-anchor="start" x="360.5" y="-459.3" font-family="Times,serif" font-size="14.00">get_config_dir(name)</text>
<text text-anchor="start" x="360.5" y="-444.3" font-family="Times,serif" font-size="14.00">get_config_file(name)</text>
<text text-anchor="start" x="360.5" y="-429.3" font-family="Times,serif" font-size="14.00">get_dir(item, name)</text>
<text text-anchor="start" x="360.5" y="-414.3" font-family="Times,serif" font-size="14.00">get_file(item, name)</text>
<text text-anchor="start" x="360.5" y="-399.3" font-family="Times,serif" font-size="14.00">read_file(item, name, missing_ok)</text>
<text text-anchor="start" x="360.5" y="-384.3" font-family="Times,serif" font-size="14.00">write_file(item, data, name)</text>
</g>
<!-- superconf.extra.xdg.ExtraConfig&#45;&gt;superconf.extra.xdg.XDGConfig -->
<g id="edge5" class="edge">
<title>superconf.extra.xdg.ExtraConfig&#45;&gt;superconf.extra.xdg.XDGConfig</title>
<path fill="none" stroke="black" d="M480.5,-339.84C480.5,-348.68 480.5,-357.51 480.5,-366.22"/>
<polygon fill="none" stroke="black" points="477,-366.38 480.5,-376.38 484,-366.38 477,-366.38"/>
</g>
<!-- superconf.extra.xdg.UserConfig -->
<g id="node8" class="node">
<title>superconf.extra.xdg.UserConfig</title>
<polygon fill="none" stroke="black" points="358.5,-662.5 358.5,-911.5 602.5,-911.5 602.5,-662.5 358.5,-662.5"/>
<text text-anchor="start" x="366.5" y="-896.3" font-family="Times,serif" font-size="14.00">superconf.extra.xdg.UserConfig</text>
<polyline fill="none" stroke="black" points="358.5,-888.5 602.5,-888.5 "/>
<text text-anchor="start" x="390" y="-873.3" font-family="Times,serif" font-size="14.00">DISPLAY : Field</text>
<text text-anchor="start" x="390" y="-858.3" font-family="Times,serif" font-size="14.00">HOME : Field</text>
<text text-anchor="start" x="390" y="-843.3" font-family="Times,serif" font-size="14.00">LANG : Field</text>
<text text-anchor="start" x="390" y="-828.3" font-family="Times,serif" font-size="14.00">OLDPWD : Field</text>
<text text-anchor="start" x="390" y="-813.3" font-family="Times,serif" font-size="14.00">PATH : Field</text>
<text text-anchor="start" x="390" y="-798.3" font-family="Times,serif" font-size="14.00">PWD : Field</text>
<text text-anchor="start" x="390" y="-783.3" font-family="Times,serif" font-size="14.00">SHELL : Field</text>
<text text-anchor="start" x="390" y="-768.3" font-family="Times,serif" font-size="14.00">SHLVL : Field</text>
<text text-anchor="start" x="390" y="-753.3" font-family="Times,serif" font-size="14.00">UID : Field</text>
<text text-anchor="start" x="390" y="-738.3" font-family="Times,serif" font-size="14.00">USER : Field</text>
<text text-anchor="start" x="390" y="-723.3" font-family="Times,serif" font-size="14.00">WEIRD : Field</text>
<text text-anchor="start" x="390" y="-708.3" font-family="Times,serif" font-size="14.00">meta__env_name : str</text>
<text text-anchor="start" x="390" y="-693.3" font-family="Times,serif" font-size="14.00">meta__env_parents : bool</text>
<polyline fill="none" stroke="black" points="358.5,-685.5 602.5,-685.5 "/>
<text text-anchor="start" x="478" y="-670.3" font-family="Times,serif" font-size="14.00"> </text>
</g>
<!-- superconf.extra.xdg.UserConfig&#45;&gt;superconf.configuration.ConfigurationDict -->
<g id="edge6" class="edge">
<title>superconf.extra.xdg.UserConfig&#45;&gt;superconf.configuration.ConfigurationDict</title>
<path fill="none" stroke="black" d="M480.5,-911.74C480.5,-920.83 480.5,-929.78 480.5,-938.3"/>
<polygon fill="none" stroke="black" points="477,-938.49 480.5,-948.49 484,-938.49 477,-938.49"/>
</g>
<!-- superconf.extra.xdg.XDGConfig&#45;&gt;superconf.extra.xdg.UserConfig -->
<g id="edge7" class="edge">
<title>superconf.extra.xdg.XDGConfig&#45;&gt;superconf.extra.xdg.UserConfig</title>
<path fill="none" stroke="black" d="M480.5,-625.74C480.5,-634.44 480.5,-643.24 480.5,-651.99"/>
<polygon fill="none" stroke="black" points="477,-652.24 480.5,-662.24 484,-652.24 477,-652.24"/>
</g>
<!-- superconf.extra.xdg.XDGException -->
<g id="node10" class="node">
<title>superconf.extra.xdg.XDGException</title>
<polygon fill="none" stroke="black" points="650,-134.6 650,-205.4 917,-205.4 917,-134.6 650,-134.6"/>
<text text-anchor="start" x="658" y="-190.2" font-family="Times,serif" font-size="14.00" fill="red">superconf.extra.xdg.XDGException</text>
<polyline fill="none" stroke="black" points="650,-182.4 917,-182.4 "/>
<polyline fill="none" stroke="black" points="650,-157.6 917,-157.6 "/>
<text text-anchor="start" x="781" y="-142.4" font-family="Times,serif" font-size="14.00" fill="red"> </text>
</g>
</g>
</svg>
