<?xml version="1.0" encoding="UTF-8" standalone="no"?>
<!DOCTYPE svg PUBLIC "-//W3C//DTD SVG 1.1//EN"
 "http://www.w3.org/Graphics/SVG/1.1/DTD/svg11.dtd">
<!-- Generated by graphviz version 2.43.0 (0)
 -->
<!-- Title: classes_superconf Pages: 1 -->
<svg width="1394pt" height="462pt"
 viewBox="0.00 0.00 1393.50 461.60" xmlns="http://www.w3.org/2000/svg" xmlns:xlink="http://www.w3.org/1999/xlink">
<g id="graph0" class="graph" transform="scale(1 1) rotate(0) translate(4 457.6)">
<title>classes_superconf</title>
<polygon fill="white" stroke="transparent" points="-4,4 -4,-457.6 1389.5,-457.6 1389.5,4 -4,4"/>
<!-- superconf.casts.AbstractCast -->
<g id="node1" class="node">
<title>superconf.casts.AbstractCast</title>
<polygon fill="none" stroke="black" points="437,-382.3 437,-453.1 662,-453.1 662,-382.3 437,-382.3"/>
<text text-anchor="start" x="445" y="-437.9" font-family="Times,serif" font-size="14.00">superconf.casts.AbstractCast</text>
<polyline fill="none" stroke="black" points="437,-430.1 662,-430.1 "/>
<polyline fill="none" stroke="black" points="437,-405.3 662,-405.3 "/>
<text text-anchor="start" x="547" y="-390.1" font-family="Times,serif" font-size="14.00"> </text>
</g>
<!-- superconf.casts.AsBest -->
<g id="node2" class="node">
<title>superconf.casts.AsBest</title>
<polygon fill="none" stroke="black" points="96.5,-245.3 96.5,-344.3 278.5,-344.3 278.5,-245.3 96.5,-245.3"/>
<text text-anchor="start" x="104.5" y="-329.1" font-family="Times,serif" font-size="14.00">superconf.casts.AsBest</text>
<polyline fill="none" stroke="black" points="96.5,-321.3 278.5,-321.3 "/>
<text text-anchor="start" x="137.5" y="-306.1" font-family="Times,serif" font-size="14.00">delimiter : str</text>
<text text-anchor="start" x="137.5" y="-291.1" font-family="Times,serif" font-size="14.00">dict_caster</text>
<text text-anchor="start" x="137.5" y="-276.1" font-family="Times,serif" font-size="14.00">list_caster</text>
<polyline fill="none" stroke="black" points="96.5,-268.3 278.5,-268.3 "/>
<text text-anchor="start" x="185" y="-253.1" font-family="Times,serif" font-size="14.00"> </text>
</g>
<!-- superconf.casts.AsBest&#45;&gt;superconf.casts.AbstractCast -->
<g id="edge1" class="edge">
<title>superconf.casts.AsBest&#45;&gt;superconf.casts.AbstractCast</title>
<path fill="none" stroke="black" d="M254.68,-344.45C266.85,-351.75 279.74,-358.57 292.5,-363.8 334.74,-381.1 383.28,-392.97 426.72,-401"/>
<polygon fill="none" stroke="black" points="426.31,-404.48 436.78,-402.8 427.55,-397.59 426.31,-404.48"/>
</g>
<!-- superconf.casts.AsBoolean -->
<g id="node3" class="node">
<title>superconf.casts.AsBoolean</title>
<polygon fill="none" stroke="black" points="334.5,-252.8 334.5,-336.8 540.5,-336.8 540.5,-252.8 334.5,-252.8"/>
<text text-anchor="start" x="342.5" y="-321.6" font-family="Times,serif" font-size="14.00">superconf.casts.AsBoolean</text>
<polyline fill="none" stroke="black" points="334.5,-313.8 540.5,-313.8 "/>
<text text-anchor="start" x="365.5" y="-298.6" font-family="Times,serif" font-size="14.00">default_values : dict</text>
<text text-anchor="start" x="365.5" y="-283.6" font-family="Times,serif" font-size="14.00">values : dict</text>
<polyline fill="none" stroke="black" points="334.5,-275.8 540.5,-275.8 "/>
<text text-anchor="start" x="435" y="-260.6" font-family="Times,serif" font-size="14.00"> </text>
</g>
<!-- superconf.casts.AsBoolean&#45;&gt;superconf.casts.AbstractCast -->
<g id="edge2" class="edge">
<title>superconf.casts.AsBoolean&#45;&gt;superconf.casts.AbstractCast</title>
<path fill="none" stroke="black" d="M475.73,-337.07C486.96,-349.19 499.26,-362.46 510.53,-374.63"/>
<polygon fill="none" stroke="black" points="508.04,-377.09 517.4,-382.05 513.17,-372.34 508.04,-377.09"/>
</g>
<!-- superconf.casts.AsDict -->
<g id="node4" class="node">
<title>superconf.casts.AsDict</title>
<polygon fill="none" stroke="black" points="0,-109.3 0,-193.3 179,-193.3 179,-109.3 0,-109.3"/>
<text text-anchor="start" x="8" y="-178.1" font-family="Times,serif" font-size="14.00">superconf.casts.AsDict</text>
<polyline fill="none" stroke="black" points="0,-170.3 179,-170.3 "/>
<text text-anchor="start" x="39.5" y="-155.1" font-family="Times,serif" font-size="14.00">delimiter : str</text>
<text text-anchor="start" x="39.5" y="-140.1" font-family="Times,serif" font-size="14.00">quotes : str</text>
<polyline fill="none" stroke="black" points="0,-132.3 179,-132.3 "/>
<text text-anchor="start" x="36" y="-117.1" font-family="Times,serif" font-size="14.00">cast(sequence)</text>
</g>
<!-- superconf.casts.AsDict&#45;&gt;superconf.casts.AbstractCast -->
<g id="edge3" class="edge">
<title>superconf.casts.AsDict&#45;&gt;superconf.casts.AbstractCast</title>
<path fill="none" stroke="black" d="M74.87,-193.67C62.56,-236.7 52.06,-303.42 87.5,-344.8 130.38,-394.87 304.85,-410.35 426.65,-414.97"/>
<polygon fill="none" stroke="black" points="426.67,-418.48 436.79,-415.34 426.93,-411.48 426.67,-418.48"/>
</g>
<!-- superconf.casts.AsDict&#45;&gt;superconf.casts.AsBest -->
<g id="edge10" class="edge">
<title>superconf.casts.AsDict&#45;&gt;superconf.casts.AsBest</title>
<path fill="none" stroke="black" d="M98.56,-193.46C102.15,-204.81 107.01,-216.75 113.5,-226.8 115.5,-229.9 117.69,-232.95 120,-235.94"/>
<polygon fill="black" stroke="black" points="120.1,-236.05 127.02,-238.07 127.82,-245.24 120.89,-243.22 120.1,-236.05"/>
<text text-anchor="middle" x="153" y="-215.6" font-family="Times,serif" font-size="14.00" fill="green">dict_caster</text>
</g>
<!-- superconf.casts.AsIdentity -->
<g id="node5" class="node">
<title>superconf.casts.AsIdentity</title>
<polygon fill="none" stroke="black" points="558.5,-259.4 558.5,-330.2 764.5,-330.2 764.5,-259.4 558.5,-259.4"/>
<text text-anchor="start" x="566.5" y="-315" font-family="Times,serif" font-size="14.00">superconf.casts.AsIdentity</text>
<polyline fill="none" stroke="black" points="558.5,-307.2 764.5,-307.2 "/>
<polyline fill="none" stroke="black" points="558.5,-282.4 764.5,-282.4 "/>
<text text-anchor="start" x="659" y="-267.2" font-family="Times,serif" font-size="14.00"> </text>
</g>
<!-- superconf.casts.AsIdentity&#45;&gt;superconf.casts.AbstractCast -->
<g id="edge4" class="edge">
<title>superconf.casts.AsIdentity&#45;&gt;superconf.casts.AbstractCast</title>
<path fill="none" stroke="black" d="M629.41,-330.45C616.63,-344.23 601.82,-360.22 588.45,-374.66"/>
<polygon fill="none" stroke="black" points="585.83,-372.34 581.6,-382.05 590.96,-377.09 585.83,-372.34"/>
</g>
<!-- superconf.casts.AsInt -->
<g id="node6" class="node">
<title>superconf.casts.AsInt</title>
<polygon fill="none" stroke="black" points="782.5,-259.4 782.5,-330.2 952.5,-330.2 952.5,-259.4 782.5,-259.4"/>
<text text-anchor="start" x="790.5" y="-315" font-family="Times,serif" font-size="14.00">superconf.casts.AsInt</text>
<polyline fill="none" stroke="black" points="782.5,-307.2 952.5,-307.2 "/>
<polyline fill="none" stroke="black" points="782.5,-282.4 952.5,-282.4 "/>
<text text-anchor="start" x="865" y="-267.2" font-family="Times,serif" font-size="14.00"> </text>
</g>
<!-- superconf.casts.AsInt&#45;&gt;superconf.casts.AbstractCast -->
<g id="edge5" class="edge">
<title>superconf.casts.AsInt&#45;&gt;superconf.casts.AbstractCast</title>
<path fill="none" stroke="black" d="M805,-330.25C794.62,-335.43 783.86,-340.47 773.5,-344.8 741.17,-358.3 705.35,-370.83 672.02,-381.51"/>
<polygon fill="none" stroke="black" points="670.7,-378.26 662.23,-384.63 672.82,-384.93 670.7,-378.26"/>
</g>
<!-- superconf.casts.AsList -->
<g id="node7" class="node">
<title>superconf.casts.AsList</title>
<polygon fill="none" stroke="black" points="207.5,-109.3 207.5,-193.3 383.5,-193.3 383.5,-109.3 207.5,-109.3"/>
<text text-anchor="start" x="215.5" y="-178.1" font-family="Times,serif" font-size="14.00">superconf.casts.AsList</text>
<polyline fill="none" stroke="black" points="207.5,-170.3 383.5,-170.3 "/>
<text text-anchor="start" x="245.5" y="-155.1" font-family="Times,serif" font-size="14.00">delimiter : str</text>
<text text-anchor="start" x="245.5" y="-140.1" font-family="Times,serif" font-size="14.00">quotes : str</text>
<polyline fill="none" stroke="black" points="207.5,-132.3 383.5,-132.3 "/>
<text text-anchor="start" x="242" y="-117.1" font-family="Times,serif" font-size="14.00">cast(sequence)</text>
</g>
<!-- superconf.casts.AsList&#45;&gt;superconf.casts.AbstractCast -->
<g id="edge6" class="edge">
<title>superconf.casts.AsList&#45;&gt;superconf.casts.AbstractCast</title>
<path fill="none" stroke="black" d="M296.94,-193.3C299.51,-242.93 306.54,-322.63 325.5,-344.8 351.08,-374.72 389.16,-392.3 426.69,-402.6"/>
<polygon fill="none" stroke="black" points="426.17,-406.08 436.73,-405.19 427.92,-399.3 426.17,-406.08"/>
</g>
<!-- superconf.casts.AsList&#45;&gt;superconf.casts.AsBest -->
<g id="edge11" class="edge">
<title>superconf.casts.AsList&#45;&gt;superconf.casts.AsBest</title>
<path fill="none" stroke="black" d="M235.16,-193.4C229.05,-199.12 223.32,-205.28 218.5,-211.8 213.52,-218.53 209.24,-226.17 205.6,-234"/>
<polygon fill="black" stroke="black" points="205.57,-234.08 206.9,-241.17 200.87,-245.12 199.54,-238.04 205.57,-234.08"/>
<text text-anchor="middle" x="255.5" y="-215.6" font-family="Times,serif" font-size="14.00" fill="green">list_caster</text>
</g>
<!-- superconf.casts.AsOption -->
<g id="node8" class="node">
<title>superconf.casts.AsOption</title>
<polygon fill="none" stroke="black" points="971,-252.8 971,-336.8 1174,-336.8 1174,-252.8 971,-252.8"/>
<text text-anchor="start" x="982" y="-321.6" font-family="Times,serif" font-size="14.00">superconf.casts.AsOption</text>
<polyline fill="none" stroke="black" points="971,-313.8 1174,-313.8 "/>
<text text-anchor="start" x="979" y="-298.6" font-family="Times,serif" font-size="14.00">default_option : UnSetArg</text>
<text text-anchor="start" x="979" y="-283.6" font-family="Times,serif" font-size="14.00">options</text>
<polyline fill="none" stroke="black" points="971,-275.8 1174,-275.8 "/>
<text text-anchor="start" x="1070" y="-260.6" font-family="Times,serif" font-size="14.00"> </text>
</g>
<!-- superconf.casts.AsOption&#45;&gt;superconf.casts.AbstractCast -->
<g id="edge7" class="edge">
<title>superconf.casts.AsOption&#45;&gt;superconf.casts.AbstractCast</title>
<path fill="none" stroke="black" d="M984.78,-336.83C976.99,-339.77 969.16,-342.48 961.5,-344.8 866.35,-373.64 755.11,-392.19 672.22,-403.22"/>
<polygon fill="none" stroke="black" points="671.71,-399.76 662.25,-404.53 672.62,-406.7 671.71,-399.76"/>
</g>
<!-- superconf.casts.AsString -->
<g id="node9" class="node">
<title>superconf.casts.AsString</title>
<polygon fill="none" stroke="black" points="1191.5,-259.4 1191.5,-330.2 1385.5,-330.2 1385.5,-259.4 1191.5,-259.4"/>
<text text-anchor="start" x="1199.5" y="-315" font-family="Times,serif" font-size="14.00">superconf.casts.AsString</text>
<polyline fill="none" stroke="black" points="1191.5,-307.2 1385.5,-307.2 "/>
<polyline fill="none" stroke="black" points="1191.5,-282.4 1385.5,-282.4 "/>
<text text-anchor="start" x="1286" y="-267.2" font-family="Times,serif" font-size="14.00"> </text>
</g>
<!-- superconf.casts.AsString&#45;&gt;superconf.casts.AbstractCast -->
<g id="edge8" class="edge">
<title>superconf.casts.AsString&#45;&gt;superconf.casts.AbstractCast</title>
<path fill="none" stroke="black" d="M1222.44,-330.25C1209.48,-335.88 1195.78,-341.08 1182.5,-344.8 1009.72,-393.19 801.71,-409.12 672.52,-414.3"/>
<polygon fill="none" stroke="black" points="672.06,-410.82 662.2,-414.7 672.33,-417.81 672.06,-410.82"/>
</g>
<!-- superconf.casts.AsTuple -->
<g id="node10" class="node">
<title>superconf.casts.AsTuple</title>
<polygon fill="none" stroke="black" points="201,-0.5 201,-71.3 390,-71.3 390,-0.5 201,-0.5"/>
<text text-anchor="start" x="209" y="-56.1" font-family="Times,serif" font-size="14.00">superconf.casts.AsTuple</text>
<polyline fill="none" stroke="black" points="201,-48.3 390,-48.3 "/>
<polyline fill="none" stroke="black" points="201,-23.5 390,-23.5 "/>
<text text-anchor="start" x="242" y="-8.3" font-family="Times,serif" font-size="14.00">cast(sequence)</text>
</g>
<!-- superconf.casts.AsTuple&#45;&gt;superconf.casts.AsList -->
<g id="edge9" class="edge">
<title>superconf.casts.AsTuple&#45;&gt;superconf.casts.AsList</title>
<path fill="none" stroke="black" d="M295.5,-71.54C295.5,-80.15 295.5,-89.57 295.5,-98.8"/>
<polygon fill="none" stroke="black" points="292,-99.09 295.5,-109.09 299,-99.09 292,-99.09"/>
</g>
</g>
</svg>
